<svg id="Layer_1" data-name="Layer 1" xmlns="http://www.w3.org/2000/svg" xmlns:xlink="http://www.w3.org/1999/xlink" viewBox="0 0 565 352"><defs><style>.cls-1,.cls-6,.cls-7,.cls-9{fill:none;}.cls-2{clip-path:url(#clip-path);}.cls-3{fill:#f90;}.cls-10,.cls-3,.cls-4,.cls-5,.cls-8{fill-rule:evenodd;}.cls-4{fill:#cb7a00;}.cls-5{fill-opacity:0;}.cls-6{stroke:#233a44;stroke-width:4px;}.cls-6,.cls-7,.cls-9{stroke-linejoin:round;}.cls-7,.cls-8{stroke:lime;}.cls-10,.cls-7,.cls-8,.cls-9{stroke-width:8px;}.cls-8{fill:lime;}.cls-10,.cls-8{stroke-miterlimit:10;}.cls-10,.cls-9{stroke:#90f;}.cls-10{fill:#90f;}</style><clipPath id="clip-path"><rect class="cls-1" x="-69" y="-68" width="1169" height="840"/></clipPath></defs><title>Artboard 1</title><g class="cls-2"><path class="cls-3" d="M232.23,72.39h0A7.08,7.08,0,0,1,225,79.31V72.39h0a3.61,3.61,0,0,1-7.22,0v6.92H99.14a7.08,7.08,0,0,0-7.23,6.92V169.3a7.24,7.24,0,0,0,14.46,0v-6.92H225a7.08,7.08,0,0,0,7.23-6.92ZM99.14,93.16a7.08,7.08,0,0,0,7.23-6.93,3.62,3.62,0,0,0-7.23,0Z"/><path class="cls-4" d="M99.14,93.16a7.08,7.08,0,0,0,7.23-6.93,3.62,3.62,0,0,0-7.23,0ZM225,79.31a6.93,6.93,0,1,0-7.22-6.92,3.61,3.61,0,0,0,7.22,0Z"/><path class="cls-5" d="M91.91,86.23a7.08,7.08,0,0,1,7.23-6.92H217.78V72.39h0a7.23,7.23,0,0,1,14.45,0v83.07a7.08,7.08,0,0,1-7.23,6.92H106.37v6.92a7.24,7.24,0,0,1-14.46,0Zm125.87-6.92H225a7.08,7.08,0,0,0,7.23-6.92M225,79.31V72.39h0a3.61,3.61,0,0,1-7.22,0M99.14,93.16V86.23h0a3.62,3.62,0,0,1,7.23,0,7.24,7.24,0,0,1-14.46,0m14.46,0v76.15"/><path class="cls-6" d="M91.91,86.23a7.08,7.08,0,0,1,7.23-6.92H217.78V72.39h0a7.23,7.23,0,0,1,14.45,0v83.07a7.08,7.08,0,0,1-7.23,6.92H106.37v6.92a7.24,7.24,0,0,1-14.46,0Zm125.87-6.92H225a7.08,7.08,0,0,0,7.23-6.92M225,79.31V72.39h0a3.61,3.61,0,0,1-7.22,0M99.14,93.16V86.23h0a3.62,3.62,0,0,1,7.23,0,7.24,7.24,0,0,1-14.46,0m14.46,0v76.15"/><path d="M115.74,115.74a1.89,1.89,0,0,1-.46,0c-.11,0-.17-.1-.17-.18s.25-.3.73-.38a2.54,2.54,0,0,0,1.21-.48,1.42,1.42,0,0,0,.39-1.12v-8.86a3.27,3.27,0,0,0-.26-1.45,1.38,1.38,0,0,0-1.08-.65,2,2,0,0,1-.56-.16.31.31,0,0,1-.17-.26c0-.08.06-.14.17-.18a2,2,0,0,1,.47,0h1.44l.7,0c.3,0,.59,0,.89,0l.84-.07a6.32,6.32,0,0,1,.71,0,7.13,7.13,0,0,1,4,1,3.08,3.08,0,0,1,1.53,2.74,5.41,5.41,0,0,1-.53,2.37,4,4,0,0,1-1.6,1.74,5.47,5.47,0,0,1-2.78.64,1.6,1.6,0,0,1-.73-.14c-.17-.09-.25-.18-.25-.26a.27.27,0,0,1,.11-.19.42.42,0,0,1,.24-.11l.35,0h.67a2.17,2.17,0,0,0,2-1,5.45,5.45,0,0,0,.67-2.91,3,3,0,0,0-1-2.47,4.07,4.07,0,0,0-2.63-.82,2.3,2.3,0,0,0-1,.2.72.72,0,0,0-.39.69v10a2,2,0,0,0,.33,1.21,1.74,1.74,0,0,0,1.13.61,2,2,0,0,1,.56.15.25.25,0,0,1,.17.23c0,.08-.06.14-.17.18a1.89,1.89,0,0,1-.46,0,7.05,7.05,0,0,1-.91,0l-.57-.07a4.27,4.27,0,0,0-.68,0,9.54,9.54,0,0,0-1,0l-.85.07A10.28,10.28,0,0,1,115.74,115.74Zm12,0a.67.67,0,0,1-.32-.06.17.17,0,0,1-.1-.17c0-.12,0-.19.12-.22a2.16,2.16,0,0,1,.38-.12,1.45,1.45,0,0,0,.61-.31.65.65,0,0,0,.21-.49v-4.51a2.42,2.42,0,0,0-.17-1,.89.89,0,0,0-.73-.54.36.36,0,0,1-.15-.11.27.27,0,0,1-.06-.16.23.23,0,0,1,.2-.25,7.22,7.22,0,0,0,1.18-.49c.42-.22.75-.4,1-.55a.73.73,0,0,1,.2-.1l.13,0c.07,0,.11,0,.11.13s0,.16,0,.33,0,.36,0,.59l0,.66s0,.05,0,.05a5.35,5.35,0,0,1,.77-.74,4.31,4.31,0,0,1,.87-.5,2.26,2.26,0,0,1,.89-.19,1.29,1.29,0,0,1,.74.19.54.54,0,0,1,.3.48,1,1,0,0,1-.13.46,1.47,1.47,0,0,1-.31.44.57.57,0,0,1-.42.19.79.79,0,0,1-.28-.06l-.33-.13-.34-.12a.89.89,0,0,0-.36-.07,1.71,1.71,0,0,0-1,.37,1.64,1.64,0,0,0-.48,1.39v4.25a.52.52,0,0,0,.3.45,4.21,4.21,0,0,0,.87.35,2.18,2.18,0,0,1,.37.13.21.21,0,0,1,.13.21c0,.15-.15.23-.44.23a6.23,6.23,0,0,1-1-.06,6.86,6.86,0,0,0-.9,0,5.34,5.34,0,0,0-.62,0l-.48,0A4.1,4.1,0,0,1,127.75,115.7Zm10.92.25a3.92,3.92,0,0,1-2.1-.56,4,4,0,0,1-1.41-1.62,5.5,5.5,0,0,1-.5-2.4,4.39,4.39,0,0,1,.57-2.22,4.6,4.6,0,0,1,1.56-1.6,3.84,3.84,0,0,1,2.11-.61,3.32,3.32,0,0,1,1.54.34,2.56,2.56,0,0,1,1.07.93,2.48,2.48,0,0,1,.39,1.38c0,.43-.22.64-.66.64h-4.62a.58.58,0,0,0-.45.16,1.23,1.23,0,0,0-.11.62,3.76,3.76,0,0,0,.46,1.85,3.84,3.84,0,0,0,1.22,1.31,3.09,3.09,0,0,0,1.7.49,3,3,0,0,0,1.19-.23,2.86,2.86,0,0,0,1-.71l.15-.13a.15.15,0,0,1,.1,0q.18,0,.18.21a1.47,1.47,0,0,1-.4.89,3.38,3.38,0,0,1-.8.69,3.46,3.46,0,0,1-1,.44A3.88,3.88,0,0,1,138.67,116Zm-2-6.36h2l.88,0a5.39,5.39,0,0,0,.73-.09.18.18,0,0,0,.14-.14.87.87,0,0,0,.05-.33,1.25,1.25,0,0,0-.58-1,2.08,2.08,0,0,0-1.32-.44,2,2,0,0,0-1,.29,2.6,2.6,0,0,0-.84.7,1.36,1.36,0,0,0-.33.83C136.39,109.52,136.48,109.59,136.66,109.59Zm9.05,6.34a4.07,4.07,0,0,1-1.27-.2,3.57,3.57,0,0,1-1-.56,3,3,0,0,1-.15-.78c0-.37-.06-.67-.07-.91s.09-.17.28-.17l.16,0a.18.18,0,0,1,.1.11,2.54,2.54,0,0,0,.9,1.48,2.22,2.22,0,0,0,1.27.44A1.55,1.55,0,0,0,147,115a1.3,1.3,0,0,0,.46-1,1.38,1.38,0,0,0-.4-1,7.78,7.78,0,0,0-1.39-1,10,10,0,0,1-1.21-.83,2.75,2.75,0,0,1-.67-.82,2.23,2.23,0,0,1-.2-.94,2.3,2.3,0,0,1,.33-1.22,2.34,2.34,0,0,1,1-.88,3.84,3.84,0,0,1,1.66-.32,3.62,3.62,0,0,1,1.08.13,2.42,2.42,0,0,1,.66.26,2,2,0,0,1,.3.73,3.54,3.54,0,0,1,.13.94c0,.09-.08.14-.23.14a1.17,1.17,0,0,1-.26,0,.34.34,0,0,1-.15-.14,2.72,2.72,0,0,0-.72-1.07,1.58,1.58,0,0,0-1.05-.37,1.65,1.65,0,0,0-1,.32,1.1,1.1,0,0,0-.43.93,1.33,1.33,0,0,0,.32.86,4.9,4.9,0,0,0,1.2.86,8.58,8.58,0,0,1,1.89,1.29,2.09,2.09,0,0,1,.63,1.58,2.27,2.27,0,0,1-.9,1.86A3.65,3.65,0,0,1,145.71,115.93Zm8.59,0a3.92,3.92,0,0,1-2.1-.56,4,4,0,0,1-1.41-1.62,5.5,5.5,0,0,1-.5-2.4,4.39,4.39,0,0,1,.57-2.22,4.6,4.6,0,0,1,1.56-1.6,3.84,3.84,0,0,1,2.11-.61,3.32,3.32,0,0,1,1.54.34,2.56,2.56,0,0,1,1.07.93,2.47,2.47,0,0,1,.38,1.38.57.57,0,0,1-.65.64h-4.63a.57.57,0,0,0-.44.16,1.23,1.23,0,0,0-.11.62,3.86,3.86,0,0,0,.45,1.85,4,4,0,0,0,1.23,1.31,3.09,3.09,0,0,0,1.7.49,3,3,0,0,0,1.18-.23,2.89,2.89,0,0,0,1-.71l.14-.13a.21.21,0,0,1,.1,0c.13,0,.19.07.19.21a1.47,1.47,0,0,1-.4.89,3.59,3.59,0,0,1-.8.69,3.46,3.46,0,0,1-1,.44A3.88,3.88,0,0,1,154.3,116Zm-2-6.36h2l.88,0a5.39,5.39,0,0,0,.73-.09.2.2,0,0,0,.14-.14.92.92,0,0,0,0-.33,1.24,1.24,0,0,0-.57-1,2.08,2.08,0,0,0-1.32-.44,2,2,0,0,0-1,.29,2.64,2.64,0,0,0-.85.7,1.4,1.4,0,0,0-.32.83C152,109.52,152.11,109.59,152.29,109.59Zm6.86,6.11a.81.81,0,0,1-.33-.06.18.18,0,0,1-.11-.17c0-.12,0-.19.13-.22a2,2,0,0,1,.37-.12,3.41,3.41,0,0,0,.63-.24.55.55,0,0,0,.31-.56v-4.51a3,3,0,0,0-.13-1,.85.85,0,0,0-.68-.55.83.83,0,0,1-.16-.09.24.24,0,0,1-.06-.18c0-.16.07-.24.2-.25a4.49,4.49,0,0,0,1.24-.46,8.13,8.13,0,0,0,.95-.62l.12-.06a.27.27,0,0,1,.12,0,.08.08,0,0,1,.07,0,.12.12,0,0,1,0,.09c0,.1,0,.31-.05.61a5.86,5.86,0,0,0-.06.75.76.76,0,0,0,0,.15.3.3,0,0,0,0,.09,5.85,5.85,0,0,1,1.64-1,4.94,4.94,0,0,1,1.9-.35,2.22,2.22,0,0,1,1.77.84,3.12,3.12,0,0,1,.7,2.08v4.47a.54.54,0,0,0,.3.55l.64.25.34.13a.25.25,0,0,1,.17.25q0,.12-.15.15a1.06,1.06,0,0,1-.29,0,4,4,0,0,1-.68,0l-.46,0a4.71,4.71,0,0,0-.61,0,5.34,5.34,0,0,0-.62,0l-.5,0a4,4,0,0,1-.68,0,1.17,1.17,0,0,1-.29,0q-.15,0-.15-.15a.26.26,0,0,1,.15-.25l.36-.13c.22-.08.43-.16.63-.25a.53.53,0,0,0,.31-.55v-4.41a1.92,1.92,0,0,0-.54-1.44,2,2,0,0,0-1.43-.53,3.77,3.77,0,0,0-1.4.24,4.39,4.39,0,0,0-1,.59.67.67,0,0,0-.13.22,1.26,1.26,0,0,0,0,.27v5.06a.56.56,0,0,0,.3.56,3.81,3.81,0,0,0,.64.24c.34.08.5.19.5.34a.16.16,0,0,1-.11.17.69.69,0,0,1-.33.06,4.2,4.2,0,0,1-.68,0l-.48,0a4.6,4.6,0,0,0-.61,0,4.75,4.75,0,0,0-.6,0l-.48,0A4.25,4.25,0,0,1,159.15,115.7Zm14.74.23a2.2,2.2,0,0,1-1.67-.63,2.64,2.64,0,0,1-.6-1.87v-4.88a.22.22,0,0,0-.14-.23,1.12,1.12,0,0,0-.57-.09h-.13a.22.22,0,0,1-.18-.13.55.55,0,0,1-.07-.28.24.24,0,0,1,.05-.12.59.59,0,0,1,.1-.11c.29-.2.55-.39.79-.59s.46-.39.65-.57a5.82,5.82,0,0,0,.5-.52l.19-.18a.29.29,0,0,1,.18-.08.43.43,0,0,1,.22.06c.06,0,.09.08.07.17l-.1,1a.31.31,0,0,0,.1.32.76.76,0,0,0,.41.09h2.51c.06,0,.11,0,.15.13a.79.79,0,0,1,.07.32,1.16,1.16,0,0,1-.07.37c0,.12-.09.17-.15.17H174a1.77,1.77,0,0,0-.73.1c-.11.06-.16.22-.16.49V113a2.13,2.13,0,0,0,.37,1.32,1.28,1.28,0,0,0,1.07.48,3.62,3.62,0,0,0,1-.1,2.3,2.3,0,0,0,.64-.28.12.12,0,0,1,.08,0,.12.12,0,0,1,.12.09.49.49,0,0,1,0,.21c0,.06-.12.2-.37.42a3.9,3.9,0,0,1-.94.59A2.91,2.91,0,0,1,173.89,115.93Z"/><path d="M119.25,141.32a3.81,3.81,0,0,1-2-.53,3.88,3.88,0,0,1-1.4-1.47,4.28,4.28,0,0,1-.51-2.09,5,5,0,0,1,.61-2.47,4.87,4.87,0,0,1,1.68-1.78,4.25,4.25,0,0,1,2.33-.67,4.33,4.33,0,0,1,2.5.74.52.52,0,0,1,.25.4.74.74,0,0,1-.15.38,1.2,1.2,0,0,1-.37.34.84.84,0,0,1-.42.14.44.44,0,0,1-.21-.07l-.25-.17a9.1,9.1,0,0,0-1.08-.67,2.14,2.14,0,0,0-1-.31,2.07,2.07,0,0,0-1.76,1,4.4,4.4,0,0,0-.65,2.5,3.68,3.68,0,0,0,.44,1.79,3.57,3.57,0,0,0,1.21,1.26,3.13,3.13,0,0,0,1.67.46,2.78,2.78,0,0,0,1.1-.19,3.7,3.7,0,0,0,1-.71l.1-.07a.19.19,0,0,1,.11,0q.24,0,.24.3a.71.71,0,0,1-.07.29,1.55,1.55,0,0,1-.25.35,3.47,3.47,0,0,1-.83.74,3.61,3.61,0,0,1-1.07.44A5,5,0,0,1,119.25,141.32Zm8.94,0a4.53,4.53,0,0,1-2.21-.55,4.06,4.06,0,0,1-2.14-3.68,4.48,4.48,0,0,1,.35-1.72,4.88,4.88,0,0,1,1-1.53,5.09,5.09,0,0,1,1.54-1.11,4.41,4.41,0,0,1,1.88-.41,4.51,4.51,0,0,1,2.29.59,4.61,4.61,0,0,1,1.62,1.54,3.82,3.82,0,0,1,.62,2.1,4.93,4.93,0,0,1-.57,2.31,4.48,4.48,0,0,1-1.66,1.77A5,5,0,0,1,128.19,141.31Zm.47-.65a3.13,3.13,0,0,0,1.33-.27,2,2,0,0,0,.93-.87,3.49,3.49,0,0,0,.34-1.18,8.69,8.69,0,0,0,.1-1.3,5,5,0,0,0-.39-1.94,3.83,3.83,0,0,0-1.08-1.53,2.4,2.4,0,0,0-1.63-.6,3.12,3.12,0,0,0-1,.17,2.06,2.06,0,0,0-.87.66,2.68,2.68,0,0,0-.58,1.29,9.48,9.48,0,0,0-.12,1.5,5,5,0,0,0,.38,2,4.25,4.25,0,0,0,1.07,1.52A2.35,2.35,0,0,0,128.66,140.66Zm6.23.41a.79.79,0,0,1-.33,0,.18.18,0,0,1-.11-.18c0-.12,0-.19.12-.22l.37-.12a2.8,2.8,0,0,0,.63-.23.57.57,0,0,0,.32-.56V135.2a3.42,3.42,0,0,0-.13-1,.87.87,0,0,0-.69-.54.78.78,0,0,1-.15-.1.22.22,0,0,1-.06-.18c0-.15.07-.23.2-.24a4.6,4.6,0,0,0,1.24-.47,7.93,7.93,0,0,0,.94-.61l.13-.07.11,0a.12.12,0,0,1,.08,0,.18.18,0,0,1,0,.1,5.71,5.71,0,0,1-.06.6,5.86,5.86,0,0,0-.06.75.61.61,0,0,0,0,.15.41.41,0,0,0,0,.1,5.31,5.31,0,0,1,1.64-1.05,4.91,4.91,0,0,1,1.9-.36,2.2,2.2,0,0,1,1.77.85,3.15,3.15,0,0,1,.7,2.08v4.47a.53.53,0,0,0,.3.54,4.47,4.47,0,0,0,.64.25l.34.14a.24.24,0,0,1,.17.24c0,.09-.05.14-.16.15a1,1,0,0,1-.28,0,4.17,4.17,0,0,1-.69,0l-.45,0a5.27,5.27,0,0,0-.62,0,5.44,5.44,0,0,0-.61,0l-.5,0a4,4,0,0,1-.68,0,1.11,1.11,0,0,1-.29,0c-.1,0-.16-.06-.16-.15a.24.24,0,0,1,.16-.24l.36-.14a4.23,4.23,0,0,0,.62-.25.53.53,0,0,0,.32-.54v-4.42a1.88,1.88,0,0,0-.54-1.43,2,2,0,0,0-1.43-.54,3.57,3.57,0,0,0-1.4.25,3.91,3.91,0,0,0-1,.59.43.43,0,0,0-.13.22.84.84,0,0,0,0,.27v5.06a.57.57,0,0,0,.3.56,3.07,3.07,0,0,0,.64.23c.33.08.5.2.5.34a.19.19,0,0,1-.12.18.64.64,0,0,1-.32,0,4.25,4.25,0,0,1-.69,0l-.47,0a9.16,9.16,0,0,0-1.21,0l-.49,0A4.2,4.2,0,0,1,134.89,141.07Zm13.75.24a3.85,3.85,0,0,1-1.27-.21,3.1,3.1,0,0,1-1-.56,2.77,2.77,0,0,1-.16-.78c0-.36-.06-.66-.07-.9s.1-.18.29-.18a.33.33,0,0,1,.15,0,.14.14,0,0,1,.1.11,2.67,2.67,0,0,0,.9,1.48,2.23,2.23,0,0,0,1.27.43,1.53,1.53,0,0,0,1.09-.41,1.32,1.32,0,0,0,.46-1,1.38,1.38,0,0,0-.4-1,6.89,6.89,0,0,0-1.39-1,8.35,8.35,0,0,1-1.21-.84,2.5,2.5,0,0,1-.67-.82,2.06,2.06,0,0,1-.2-.94,2.33,2.33,0,0,1,.33-1.22,2.27,2.27,0,0,1,1-.87,3.69,3.69,0,0,1,1.66-.33,3.63,3.63,0,0,1,1.08.14,2.57,2.57,0,0,1,.66.26,1.89,1.89,0,0,1,.3.72,4,4,0,0,1,.13.95c0,.09-.08.13-.23.13a.78.78,0,0,1-.26,0,.32.32,0,0,1-.16-.14,2.77,2.77,0,0,0-.71-1.06,1.56,1.56,0,0,0-1.06-.37,1.59,1.59,0,0,0-1,.31,1.07,1.07,0,0,0-.43.93,1.35,1.35,0,0,0,.31.86,4.88,4.88,0,0,0,1.2.87,8.7,8.7,0,0,1,1.9,1.28,2.09,2.09,0,0,1,.63,1.59,2.3,2.3,0,0,1-.9,1.86A3.66,3.66,0,0,1,148.64,141.31Zm8.07,0a2.2,2.2,0,0,1-1.67-.63,2.65,2.65,0,0,1-.6-1.88v-4.88a.24.24,0,0,0-.14-.23,1.36,1.36,0,0,0-.57-.08h-.13c-.07,0-.13-.05-.19-.14a.54.54,0,0,1-.07-.27.22.22,0,0,1,.06-.12.37.37,0,0,1,.1-.11c.28-.2.54-.4.78-.59a8,8,0,0,0,.66-.58c.2-.19.37-.36.5-.51l.18-.18a.25.25,0,0,1,.19-.08.36.36,0,0,1,.21.05c.07,0,.09.09.07.18l-.09.94a.33.33,0,0,0,.09.33,1,1,0,0,0,.42.08H159c.06,0,.1,0,.14.14a.62.62,0,0,1,.07.31.94.94,0,0,1-.07.37c0,.12-.08.18-.14.18h-2.17a1.67,1.67,0,0,0-.73.1c-.1,0-.15.21-.15.49v4.14a2.14,2.14,0,0,0,.37,1.33,1.25,1.25,0,0,0,1.07.47,4.06,4.06,0,0,0,1-.09,2,2,0,0,0,.64-.29.12.12,0,0,1,.09,0,.1.1,0,0,1,.11.1.46.46,0,0,1,.05.2c0,.07-.13.21-.37.43a4,4,0,0,1-.95.58A2.73,2.73,0,0,1,156.71,141.31Zm3.81-.24a.76.76,0,0,1-.33,0,.23.23,0,0,1,0-.4l.37-.12a1.38,1.38,0,0,0,.62-.3.67.67,0,0,0,.21-.49V135.2a2.62,2.62,0,0,0-.17-1,.9.9,0,0,0-.73-.53.39.39,0,0,1-.15-.11.29.29,0,0,1-.06-.17.23.23,0,0,1,.2-.24,7.6,7.6,0,0,0,1.18-.49c.42-.22.75-.4,1-.55a.83.83,0,0,1,.2-.11l.13,0c.07,0,.11.05.11.14s0,.15,0,.33,0,.36,0,.59l0,.65s0,.06,0,.06a4.86,4.86,0,0,1,.77-.74,4.92,4.92,0,0,1,.87-.51,2.26,2.26,0,0,1,.89-.19,1.29,1.29,0,0,1,.74.19.57.57,0,0,1,.3.48,1,1,0,0,1-.13.47,1.48,1.48,0,0,1-.31.43.57.57,0,0,1-.42.19.76.76,0,0,1-.28,0l-.33-.14a2.3,2.3,0,0,1-.34-.12.92.92,0,0,0-.36-.07,1.71,1.71,0,0,0-1,.37,1.66,1.66,0,0,0-.48,1.4v4.25a.52.52,0,0,0,.3.45,4.26,4.26,0,0,0,.87.34,2.08,2.08,0,0,1,.37.14.2.2,0,0,1,.13.2c0,.16-.15.23-.45.23a6.33,6.33,0,0,1-1,0,5.46,5.46,0,0,0-.9-.05,5.54,5.54,0,0,0-.62,0l-.48,0A4.1,4.1,0,0,1,160.52,141.07Zm8.82.24a1.38,1.38,0,0,1-.81-.3,2.82,2.82,0,0,1-.67-.71,1.56,1.56,0,0,1-.27-.81,1.39,1.39,0,0,1,.37-1,3.27,3.27,0,0,1,1.18-.7l2.24-.89a1.12,1.12,0,0,0,.5-.28A1.27,1.27,0,0,0,172,136l0-1.34a1.32,1.32,0,0,0-.33-.94,1.15,1.15,0,0,0-1-.41,1.91,1.91,0,0,0-.66.11,1.82,1.82,0,0,0-.54.27.36.36,0,0,0-.18.26,1.34,1.34,0,0,0-.05.35,1.68,1.68,0,0,0,0,.2,1,1,0,0,1,0,.17c0,.08-.09.17-.28.29a3.26,3.26,0,0,1-.62.31,1.34,1.34,0,0,1-.55.14.29.29,0,0,1-.17-.05.19.19,0,0,1-.08-.14,1.41,1.41,0,0,1,.23-.71,3,3,0,0,1,.66-.74,5.83,5.83,0,0,1,1.08-.76,6.72,6.72,0,0,1,1.17-.54,3.18,3.18,0,0,1,1-.19,1.76,1.76,0,0,1,1.3.53,1.82,1.82,0,0,1,.49,1.34l-.11,5a1,1,0,0,0,.2.72.76.76,0,0,0,.59.27,1.15,1.15,0,0,0,.81-.23.31.31,0,0,1,.17-.11.19.19,0,0,1,.17.07.19.19,0,0,1,.07.16.67.67,0,0,1-.24.47,2.81,2.81,0,0,1-.76.53,1.58,1.58,0,0,1-.75.21,1.8,1.8,0,0,1-1.6-1.1h-.06a5.37,5.37,0,0,1-1.38.82A3.38,3.38,0,0,1,169.34,141.31Zm1-1a1.81,1.81,0,0,0,.74-.14,2,2,0,0,0,.56-.37,1.11,1.11,0,0,0,.17-.29,1.49,1.49,0,0,0,.1-.57l.06-1a.81.81,0,0,0,0-.34.18.18,0,0,0-.17-.11l-.16,0a1.63,1.63,0,0,0-.29.08,4.7,4.7,0,0,0-1.61.83,1.21,1.21,0,0,0-.44.78,1,1,0,0,0,.33.84A1.13,1.13,0,0,0,170.37,140.3Zm6.12.77a.82.82,0,0,1-.33,0,.2.2,0,0,1-.11-.18.22.22,0,0,1,.15-.23,2.35,2.35,0,0,1,.35-.11,2.52,2.52,0,0,0,.7-.26.6.6,0,0,0,.24-.53v-4.57a2.16,2.16,0,0,0-.22-1,.9.9,0,0,0-.77-.53.29.29,0,0,1-.17-.07.35.35,0,0,1,0-.2c0-.16.07-.24.2-.25a5.12,5.12,0,0,0,1.44-.52c.38-.22.67-.4.86-.53a.58.58,0,0,1,.3-.15c.09,0,.14,0,.14.11s0,.33-.06.67-.07.69-.1,1.09,0,.75,0,1.07v4.88a.59.59,0,0,0,.24.52,2.32,2.32,0,0,0,.7.27,1.83,1.83,0,0,1,.33.11.23.23,0,0,1,.17.23c0,.16-.15.23-.44.23a4.06,4.06,0,0,1-.67,0l-.47,0a5.55,5.55,0,0,0-.63,0,5.35,5.35,0,0,0-.61,0l-.49,0A4,4,0,0,1,176.49,141.07Zm2.14-10.91a1.07,1.07,0,0,1-.78-.3,1,1,0,0,1-.32-.73,1,1,0,0,1,.32-.77,1.14,1.14,0,0,1,1.56,0,1,1,0,0,1,.33.77,1,1,0,0,1-.33.73A1.07,1.07,0,0,1,178.63,130.16Zm3.23,10.91a.82.82,0,0,1-.33,0,.2.2,0,0,1-.11-.18c0-.12,0-.19.13-.22l.37-.12a2.72,2.72,0,0,0,.62-.23.57.57,0,0,0,.32-.56V135.2a3.1,3.1,0,0,0-.13-1,.85.85,0,0,0-.68-.54l-.16-.1a.22.22,0,0,1-.06-.18c0-.15.07-.23.2-.24a4.6,4.6,0,0,0,1.24-.47,7.19,7.19,0,0,0,.94-.61l.13-.07a.27.27,0,0,1,.12,0,.1.1,0,0,1,.07,0,.13.13,0,0,1,0,.1,5.71,5.71,0,0,1-.06.6c0,.3,0,.55,0,.75a.66.66,0,0,0,0,.15.41.41,0,0,0,0,.1,5.31,5.31,0,0,1,1.64-1.05,4.91,4.91,0,0,1,1.9-.36,2.2,2.2,0,0,1,1.77.85,3.15,3.15,0,0,1,.7,2.08v4.47a.53.53,0,0,0,.3.54,5,5,0,0,0,.64.25l.34.14a.23.23,0,0,1,.17.24q0,.13-.15.15a1.06,1.06,0,0,1-.29,0,4,4,0,0,1-.68,0l-.46,0a5.08,5.08,0,0,0-.61,0,5.54,5.54,0,0,0-.62,0l-.5,0a4,4,0,0,1-.68,0,1.17,1.17,0,0,1-.29,0c-.1,0-.16-.06-.16-.15a.24.24,0,0,1,.16-.24l.36-.14a4.35,4.35,0,0,0,.63-.25.53.53,0,0,0,.31-.54v-4.42a1.88,1.88,0,0,0-.54-1.43,2,2,0,0,0-1.43-.54,3.57,3.57,0,0,0-1.4.25,4.07,4.07,0,0,0-1,.59.43.43,0,0,0-.13.22.84.84,0,0,0,0,.27v5.06a.57.57,0,0,0,.3.56,3.07,3.07,0,0,0,.64.23c.33.08.5.2.5.34a.2.2,0,0,1-.11.18.71.71,0,0,1-.33,0,4.25,4.25,0,0,1-.69,0l-.47,0a5,5,0,0,0-.61,0,5.08,5.08,0,0,0-.6,0l-.49,0A4.2,4.2,0,0,1,181.86,141.07Zm14.74.24a2.2,2.2,0,0,1-1.67-.63,2.65,2.65,0,0,1-.6-1.88v-4.88a.24.24,0,0,0-.14-.23,1.36,1.36,0,0,0-.57-.08h-.13c-.07,0-.13-.05-.19-.14a.68.68,0,0,1-.07-.27.22.22,0,0,1,.06-.12.37.37,0,0,1,.1-.11c.29-.2.55-.4.78-.59a8,8,0,0,0,.66-.58c.2-.19.37-.36.5-.51l.19-.18a.22.22,0,0,1,.18-.08.42.42,0,0,1,.22.05.15.15,0,0,1,.07.18l-.1.94c0,.16,0,.27.1.33a.87.87,0,0,0,.41.08h2.51c.06,0,.11,0,.14.14a.62.62,0,0,1,.08.31,1,1,0,0,1-.08.37c0,.12-.08.18-.14.18h-2.17a1.59,1.59,0,0,0-.72.1c-.11,0-.16.21-.16.49v4.14a2.14,2.14,0,0,0,.37,1.33,1.26,1.26,0,0,0,1.07.47,4,4,0,0,0,1-.09,2,2,0,0,0,.65-.29.1.1,0,0,1,.08,0,.12.12,0,0,1,.12.1.65.65,0,0,1,0,.2c0,.07-.12.21-.37.43a3.9,3.9,0,0,1-.94.58A2.77,2.77,0,0,1,196.6,141.31Zm5.9,0a3.8,3.8,0,0,1-1.27-.21,3,3,0,0,1-1-.56,2.77,2.77,0,0,1-.16-.78c0-.36-.06-.66-.07-.9s.09-.18.28-.18a.41.41,0,0,1,.16,0,.16.16,0,0,1,.1.11,2.61,2.61,0,0,0,.9,1.48,2.2,2.2,0,0,0,1.27.43,1.49,1.49,0,0,0,1.08-.41,1.28,1.28,0,0,0,.46-1,1.34,1.34,0,0,0-.4-1,7.06,7.06,0,0,0-1.38-1,8.5,8.5,0,0,1-1.22-.84,2.63,2.63,0,0,1-.67-.82,2.2,2.2,0,0,1-.2-.94,2.33,2.33,0,0,1,.33-1.22,2.39,2.39,0,0,1,1-.87,3.69,3.69,0,0,1,1.66-.33,3.58,3.58,0,0,1,1.08.14,2.42,2.42,0,0,1,.66.26,1.89,1.89,0,0,1,.3.72,3.56,3.56,0,0,1,.13.95c0,.09-.08.13-.23.13a.82.82,0,0,1-.26,0,.34.34,0,0,1-.15-.14,2.68,2.68,0,0,0-.72-1.06,1.51,1.51,0,0,0-1.05-.37,1.64,1.64,0,0,0-1,.31,1.1,1.1,0,0,0-.43.93,1.31,1.31,0,0,0,.32.86,4.88,4.88,0,0,0,1.2.87,9,9,0,0,1,1.9,1.28,2.12,2.12,0,0,1,.62,1.59,2.3,2.3,0,0,1-.9,1.86A3.63,3.63,0,0,1,202.5,141.31Z"/><path class="cls-3" d="M232.23,214.43h0a7.19,7.19,0,0,1-7.34,7v-7h0a3.67,3.67,0,0,1-7.34,0v7H99.26a7.2,7.2,0,0,0-7.35,7v84.39a7.35,7.35,0,0,0,14.69,0v-7H224.89a7.19,7.19,0,0,0,7.34-7Zm-133,21.09a7.19,7.19,0,0,0,7.34-7,3.67,3.67,0,0,0-7.34,0Z"/><path class="cls-4" d="M99.26,235.52a7.19,7.19,0,0,0,7.34-7,3.67,3.67,0,0,0-7.34,0Zm125.63-14.06a7,7,0,1,0-7.34-7,3.67,3.67,0,0,0,7.34,0Z"/><path class="cls-5" d="M91.91,228.49a7.2,7.2,0,0,1,7.35-7H217.55v-7h0a7.35,7.35,0,0,1,14.68,0v84.39a7.19,7.19,0,0,1-7.34,7H106.6v7a7.35,7.35,0,0,1-14.69,0Zm125.64-7h7.34a7.19,7.19,0,0,0,7.34-7m-7.34,7v-7h0a3.67,3.67,0,0,1-7.34,0M99.26,235.52v-7h0a3.67,3.67,0,0,1,7.34,0,7.35,7.35,0,0,1-14.69,0m14.69,0v77.36"/><path class="cls-6" d="M91.91,228.49a7.2,7.2,0,0,1,7.35-7H217.55v-7h0a7.35,7.35,0,0,1,14.68,0v84.39a7.19,7.19,0,0,1-7.34,7H106.6v7a7.35,7.35,0,0,1-14.69,0Zm125.64-7h7.34a7.19,7.19,0,0,0,7.34-7m-7.34,7v-7h0a3.67,3.67,0,0,1-7.34,0M99.26,235.52v-7h0a3.67,3.67,0,0,1,7.34,0,7.35,7.35,0,0,1-14.69,0m14.69,0v77.36"/><path d="M128.77,258.88a6,6,0,0,1-1.15-.1,3.5,3.5,0,0,1-1-.34,3,3,0,0,1-.85-.7l-1-1.2c-.33-.38-.67-.83-1-1.33s-.79-1.15-1.3-1.94a2.29,2.29,0,0,0-.94-.82,3.58,3.58,0,0,0-1-.31,6.48,6.48,0,0,0-.77-.13c-.12,0-.21,0-.25.11a.63.63,0,0,0-.08.32v3.69a2,2,0,0,0,.33,1.16,1.65,1.65,0,0,0,1.13.64,3,3,0,0,1,.56.15.28.28,0,0,1,.17.24c0,.08-.06.14-.17.17a1.47,1.47,0,0,1-.46.06,7.05,7.05,0,0,1-.91,0l-.57-.07a4.22,4.22,0,0,0-.67,0,9.62,9.62,0,0,0-1,0l-.85.07a10.28,10.28,0,0,1-1,0,1.47,1.47,0,0,1-.46-.06c-.11,0-.17-.09-.17-.17s.25-.3.73-.39a2.65,2.65,0,0,0,1.21-.47,1.45,1.45,0,0,0,.39-1.13v-8.94a6,6,0,0,0-.09-1.2.76.76,0,0,0-.34-.57,2.06,2.06,0,0,0-.91-.24,1.22,1.22,0,0,1-.56-.15.34.34,0,0,1-.17-.27c0-.08.06-.14.17-.18a2,2,0,0,1,.47-.05h2.14c.29,0,.54,0,.76,0s.46,0,.73-.06.61,0,1,0a6.44,6.44,0,0,1,3.67.87,2.92,2.92,0,0,1,1.27,2.58,3.25,3.25,0,0,1-.4,1.63,4.11,4.11,0,0,1-1,1.15,7,7,0,0,1-1.2.75c-.06,0-.08,0-.07.09a.6.6,0,0,0,.07.18l1.31,1.87c.42.59.88,1.16,1.37,1.73a22.63,22.63,0,0,0,1.77,1.73,2.52,2.52,0,0,0,1.16.59,7.92,7.92,0,0,0,1.37.11c.22,0,.33.07.33.22a.5.5,0,0,1-.33.48,2,2,0,0,1-.76.2A5.07,5.07,0,0,1,128.77,258.88Zm-8.19-7.34a3.31,3.31,0,0,0,1.74-.44,3.09,3.09,0,0,0,1.14-1.16,3,3,0,0,0,.4-1.52,4.84,4.84,0,0,0-.23-1.57,2,2,0,0,0-.92-1.14,3.92,3.92,0,0,0-2.06-.44,1,1,0,0,0-.93.44,4.21,4.21,0,0,0-.25,1.52c0,.35,0,.82,0,1.42v2.15q0,.51.3.63A2.81,2.81,0,0,0,120.58,251.54Zm14.53,7.21a3.84,3.84,0,0,1-2.1-.56,3.89,3.89,0,0,1-1.41-1.61,5.52,5.52,0,0,1-.5-2.41,4.36,4.36,0,0,1,.57-2.21,4.51,4.51,0,0,1,1.56-1.6,3.85,3.85,0,0,1,2.11-.62,3.33,3.33,0,0,1,1.54.35A2.56,2.56,0,0,1,138,251a2.47,2.47,0,0,1,.38,1.38.57.57,0,0,1-.65.64h-4.63a.54.54,0,0,0-.44.16,1.21,1.21,0,0,0-.11.62,3.8,3.8,0,0,0,.45,1.84,3.9,3.9,0,0,0,1.23,1.32,3.09,3.09,0,0,0,1.7.49,3,3,0,0,0,1.18-.23,2.89,2.89,0,0,0,1-.71l.14-.13a.21.21,0,0,1,.1,0c.13,0,.19.07.19.21a1.47,1.47,0,0,1-.4.89,3.59,3.59,0,0,1-.8.69,3.75,3.75,0,0,1-1,.44A3.88,3.88,0,0,1,135.11,258.75Zm-2-6.35h2l.88,0a5.39,5.39,0,0,0,.73-.09.2.2,0,0,0,.14-.14.92.92,0,0,0,0-.33,1.24,1.24,0,0,0-.57-1,2.08,2.08,0,0,0-1.32-.44,2,2,0,0,0-1,.29,2.75,2.75,0,0,0-.85.69,1.43,1.43,0,0,0-.32.84C132.83,252.32,132.92,252.4,133.1,252.4Zm9.05,6.34a4,4,0,0,1-1.27-.2,3.57,3.57,0,0,1-1-.56,3,3,0,0,1-.15-.78c0-.37-.07-.67-.08-.91s.1-.17.29-.17a.41.41,0,0,1,.16,0,.22.22,0,0,1,.1.11,2.59,2.59,0,0,0,.89,1.48,2.24,2.24,0,0,0,1.27.44,1.57,1.57,0,0,0,1.09-.41,1.34,1.34,0,0,0,.46-1,1.38,1.38,0,0,0-.4-1,7.31,7.31,0,0,0-1.39-1,9.26,9.26,0,0,1-1.21-.83,2.88,2.88,0,0,1-.67-.82,2.24,2.24,0,0,1-.2-1,2.28,2.28,0,0,1,1.31-2.09,3.69,3.69,0,0,1,1.66-.33,3.63,3.63,0,0,1,1.08.14,2.42,2.42,0,0,1,.66.26,2,2,0,0,1,.3.73,3.94,3.94,0,0,1,.13.94c0,.09-.08.14-.23.14a.8.8,0,0,1-.26,0,.31.31,0,0,1-.16-.13,2.71,2.71,0,0,0-.71-1.07,1.59,1.59,0,0,0-1.06-.37,1.62,1.62,0,0,0-1,.32,1.07,1.07,0,0,0-.43.93,1.33,1.33,0,0,0,.32.86,4.86,4.86,0,0,0,1.19.86,8.7,8.7,0,0,1,1.9,1.28,2.11,2.11,0,0,1,.63,1.59,2.27,2.27,0,0,1-.9,1.86A3.65,3.65,0,0,1,142.15,258.74Zm9,0a4.45,4.45,0,0,1-2.21-.55,4.06,4.06,0,0,1-2.14-3.67,4.33,4.33,0,0,1,.36-1.73,5.09,5.09,0,0,1,1-1.53,5.45,5.45,0,0,1,1.54-1.11,4.43,4.43,0,0,1,1.89-.41,4.5,4.5,0,0,1,2.28.59,4.58,4.58,0,0,1,1.63,1.55,3.78,3.78,0,0,1,.61,2.09,4.93,4.93,0,0,1-.57,2.31,4.43,4.43,0,0,1-1.66,1.78A5.08,5.08,0,0,1,151.19,258.74Zm.48-.64a3,3,0,0,0,1.32-.28,2,2,0,0,0,.93-.87,3.22,3.22,0,0,0,.34-1.18,8.56,8.56,0,0,0,.1-1.29,5.17,5.17,0,0,0-.38-1.95,3.85,3.85,0,0,0-1.09-1.53,2.37,2.37,0,0,0-1.62-.6,3,3,0,0,0-1.06.18,2.26,2.26,0,0,0-.87.65,2.62,2.62,0,0,0-.57,1.29,8.44,8.44,0,0,0-.13,1.5,5,5,0,0,0,.39,2,4.05,4.05,0,0,0,1.07,1.52A2.34,2.34,0,0,0,151.67,258.1Zm5.78.41a2,2,0,0,1-.29,0q-.15,0-.15-.15a.26.26,0,0,1,.15-.25l.36-.14a5.87,5.87,0,0,0,.63-.24.54.54,0,0,0,.31-.55V246.56a2,2,0,0,0-.24-1,1.1,1.1,0,0,0-.77-.52c-.12,0-.17-.11-.17-.26s0-.23.14-.26a7.18,7.18,0,0,0,1-.26c.29-.09.55-.18.79-.28l.71-.28.13,0s.05,0,.07.06a.16.16,0,0,1,.05.09,7.19,7.19,0,0,1-.09.81,19.6,19.6,0,0,0-.07,2v10.5a.55.55,0,0,0,.3.55c.21.09.42.17.64.24l.33.14a.26.26,0,0,1,.17.25c0,.08-.06.13-.17.15a1.66,1.66,0,0,1-.26,0,5.73,5.73,0,0,1-.67,0l-.48,0a6.53,6.53,0,0,0-1.25,0l-.48,0A5.18,5.18,0,0,1,157.45,258.51Zm9.1.37c-.06,0-.14-.11-.23-.33a4.23,4.23,0,0,1-.17-.47c-.11-.23-.2-.48-.29-.73s-.17-.51-.25-.74c-.33-.87-.67-1.72-1.05-2.55s-.73-1.68-1.08-2.52a1.94,1.94,0,0,0-.49-.69,1.3,1.3,0,0,0-.64-.39,1.22,1.22,0,0,1-.28-.13.21.21,0,0,1-.1-.2q0-.12.15-.15a1.16,1.16,0,0,1,.27,0l.65,0a2.32,2.32,0,0,1,.38.06,4.37,4.37,0,0,0,.59,0,4.2,4.2,0,0,0,.58,0A2.83,2.83,0,0,1,165,250l.64,0a1,1,0,0,1,.26,0c.11,0,.17.07.17.15a.28.28,0,0,1-.16.23,2.18,2.18,0,0,1-.34.14.61.61,0,0,0-.33.34,1.11,1.11,0,0,0-.12.52c0,.1,0,.2,0,.3a1.73,1.73,0,0,0,.08.27l1.73,4.4s0,0,0,0l0,0,1.67-4.08a2.13,2.13,0,0,0,.13-.45,2.63,2.63,0,0,0,.05-.41,1,1,0,0,0-.14-.61.89.89,0,0,0-.43-.28,2.47,2.47,0,0,1-.4-.17.22.22,0,0,1-.11-.2c0-.08.05-.13.14-.15a1,1,0,0,1,.3,0,4.11,4.11,0,0,1,.63.05,6.7,6.7,0,0,0,1,.06,3.17,3.17,0,0,0,.77-.06,2,2,0,0,1,.53-.05,1,1,0,0,1,.3,0,.15.15,0,0,1,.13.15c0,.15-.17.28-.5.37a1.76,1.76,0,0,0-.73.49,3.22,3.22,0,0,0-.63.91l-1.71,4a3.17,3.17,0,0,0-.17.41c-.09.21-.18.46-.29.72s-.19.48-.27.67l-.1.27-.1.21c-.06.13-.12.26-.2.41a2.22,2.22,0,0,1-.18.33Zm9-.13a3.84,3.84,0,0,1-2.1-.56,3.89,3.89,0,0,1-1.41-1.61,5.52,5.52,0,0,1-.5-2.41,4.36,4.36,0,0,1,.57-2.21,4.51,4.51,0,0,1,1.56-1.6,3.85,3.85,0,0,1,2.11-.62,3.33,3.33,0,0,1,1.54.35,2.56,2.56,0,0,1,1.07.93,2.48,2.48,0,0,1,.39,1.38c0,.43-.22.64-.66.64h-4.62a.55.55,0,0,0-.45.16,1.21,1.21,0,0,0-.11.62,3.7,3.7,0,0,0,.46,1.84,3.78,3.78,0,0,0,1.22,1.32,3.09,3.09,0,0,0,1.7.49,3,3,0,0,0,1.19-.23,2.86,2.86,0,0,0,.95-.71l.15-.13a.15.15,0,0,1,.1,0q.18,0,.18.21a1.47,1.47,0,0,1-.4.89,3.38,3.38,0,0,1-.8.69,3.75,3.75,0,0,1-1,.44A3.88,3.88,0,0,1,175.57,258.75Zm-2-6.35h2l.88,0a5.39,5.39,0,0,0,.73-.09.18.18,0,0,0,.14-.14.87.87,0,0,0,.05-.33,1.25,1.25,0,0,0-.58-1,2.08,2.08,0,0,0-1.32-.44,2,2,0,0,0-1,.29,2.7,2.7,0,0,0-.84.69,1.38,1.38,0,0,0-.33.84C173.29,252.32,173.38,252.4,173.56,252.4Z"/><path d="M119.48,284.13a3.81,3.81,0,0,1-2-.53,3.88,3.88,0,0,1-1.4-1.47,4.31,4.31,0,0,1-.51-2.09,5,5,0,0,1,.61-2.47,4.87,4.87,0,0,1,1.68-1.78,4.25,4.25,0,0,1,2.33-.67,4.33,4.33,0,0,1,2.5.74.52.52,0,0,1,.25.39.74.74,0,0,1-.15.39,1.34,1.34,0,0,1-.37.34.84.84,0,0,1-.42.14.44.44,0,0,1-.21-.07l-.25-.17a9.1,9.1,0,0,0-1.08-.67,2.14,2.14,0,0,0-1-.31,2.07,2.07,0,0,0-1.76,1,4.37,4.37,0,0,0-.65,2.5,3.68,3.68,0,0,0,.44,1.79,3.57,3.57,0,0,0,1.21,1.26,3.13,3.13,0,0,0,1.67.46,2.78,2.78,0,0,0,1.1-.19,3.7,3.7,0,0,0,1-.71l.1-.07a.19.19,0,0,1,.11,0q.24,0,.24.3a.71.71,0,0,1-.07.29,1.55,1.55,0,0,1-.25.35,3.47,3.47,0,0,1-.83.74,3.61,3.61,0,0,1-1.07.44A5,5,0,0,1,119.48,284.13Zm8.94,0a4.53,4.53,0,0,1-2.21-.55,4.21,4.21,0,0,1-1.57-1.51,4.14,4.14,0,0,1-.57-2.17,4.28,4.28,0,0,1,.36-1.72,4.69,4.69,0,0,1,1-1.53,5.09,5.09,0,0,1,1.54-1.11,4.41,4.41,0,0,1,1.88-.41,4.58,4.58,0,0,1,3.91,2.13,3.81,3.81,0,0,1,.62,2.09,4.88,4.88,0,0,1-.57,2.31,4.5,4.5,0,0,1-1.66,1.78A5,5,0,0,1,128.42,284.12Zm.47-.65a3.13,3.13,0,0,0,1.33-.27,1.93,1.93,0,0,0,.93-.88,3.37,3.37,0,0,0,.34-1.17,8.79,8.79,0,0,0,.1-1.3,5,5,0,0,0-.39-1.94,3.83,3.83,0,0,0-1.08-1.53,2.4,2.4,0,0,0-1.63-.6,3.12,3.12,0,0,0-1.05.17,2.06,2.06,0,0,0-.87.66,2.69,2.69,0,0,0-.58,1.28,9.7,9.7,0,0,0-.12,1.51,5,5,0,0,0,.38,2,4.25,4.25,0,0,0,1.07,1.52A2.35,2.35,0,0,0,128.89,283.47Zm6.23.41a.79.79,0,0,1-.33-.05.18.18,0,0,1-.11-.18c0-.12,0-.19.12-.22s.21-.08.37-.12a3.38,3.38,0,0,0,.63-.23.57.57,0,0,0,.32-.56V278a3.4,3.4,0,0,0-.13-1,.87.87,0,0,0-.69-.54.78.78,0,0,1-.15-.1.23.23,0,0,1-.06-.18c0-.15.07-.23.2-.24a5,5,0,0,0,1.24-.47,7.93,7.93,0,0,0,.94-.61l.13-.07.12,0a.13.13,0,0,1,.07,0,.18.18,0,0,1,0,.1,5.71,5.71,0,0,1-.06.6,5.61,5.61,0,0,0-.05.75.66.66,0,0,0,0,.15.41.41,0,0,0,0,.1,5.31,5.31,0,0,1,1.64-1,4.91,4.91,0,0,1,1.9-.36,2.2,2.2,0,0,1,1.77.85,3.15,3.15,0,0,1,.7,2.08v4.47a.53.53,0,0,0,.3.54,6.08,6.08,0,0,0,.64.25l.34.14a.24.24,0,0,1,.17.24c0,.08-.05.13-.16.15a1,1,0,0,1-.28,0,4.17,4.17,0,0,1-.69,0l-.45,0a4.88,4.88,0,0,0-.62,0,5.16,5.16,0,0,0-.61,0l-.5,0a4,4,0,0,1-.68,0,1.11,1.11,0,0,1-.29,0c-.1,0-.16-.07-.16-.15a.24.24,0,0,1,.16-.24,3,3,0,0,1,.36-.14,5.73,5.73,0,0,0,.62-.25.53.53,0,0,0,.32-.54V278.1a1.92,1.92,0,0,0-.54-1.44,2,2,0,0,0-1.43-.53,3.57,3.57,0,0,0-1.4.25,3.91,3.91,0,0,0-1,.59.44.44,0,0,0-.13.21,1,1,0,0,0,0,.28v5.06a.57.57,0,0,0,.3.56,3.77,3.77,0,0,0,.64.23c.33.08.5.19.5.34a.2.2,0,0,1-.11.18.71.71,0,0,1-.33.05,4.25,4.25,0,0,1-.69,0l-.47,0a6.12,6.12,0,0,0-1.21,0l-.49,0A4.2,4.2,0,0,1,135.12,283.88Zm13.75.24a3.85,3.85,0,0,1-1.27-.21,3.29,3.29,0,0,1-1-.56,2.77,2.77,0,0,1-.16-.78c0-.36-.06-.66-.07-.9s.1-.18.29-.18a.41.41,0,0,1,.16,0,.15.15,0,0,1,.09.11,2.6,2.6,0,0,0,.9,1.47,2.17,2.17,0,0,0,1.27.44,1.57,1.57,0,0,0,1.09-.41,1.32,1.32,0,0,0,.46-1,1.38,1.38,0,0,0-.4-1,6.89,6.89,0,0,0-1.39-1,8.35,8.35,0,0,1-1.21-.84,2.5,2.5,0,0,1-.67-.82,2.06,2.06,0,0,1-.2-.94,2.25,2.25,0,0,1,1.31-2.09,3.69,3.69,0,0,1,1.66-.33,3.63,3.63,0,0,1,1.08.14,2.25,2.25,0,0,1,.66.26,1.89,1.89,0,0,1,.3.72,4,4,0,0,1,.13.94c0,.1-.08.14-.23.14a.78.78,0,0,1-.26,0,.32.32,0,0,1-.16-.14,2.77,2.77,0,0,0-.71-1.06,1.56,1.56,0,0,0-1.06-.37,1.59,1.59,0,0,0-1,.31,1.07,1.07,0,0,0-.43.93,1.35,1.35,0,0,0,.31.86,4.65,4.65,0,0,0,1.2.86,9.05,9.05,0,0,1,1.9,1.29,2.09,2.09,0,0,1,.63,1.59,2.27,2.27,0,0,1-.9,1.85A3.6,3.6,0,0,1,148.87,284.12Zm8.07,0a2.2,2.2,0,0,1-1.67-.63,2.67,2.67,0,0,1-.6-1.88v-4.88a.24.24,0,0,0-.14-.23,1.36,1.36,0,0,0-.57-.08h-.13c-.07,0-.13-.05-.19-.14a.54.54,0,0,1-.07-.27.22.22,0,0,1,.06-.12c.05-.07.08-.11.1-.11.28-.2.54-.4.78-.59a8,8,0,0,0,.66-.58,5.82,5.82,0,0,0,.5-.52l.18-.17a.26.26,0,0,1,.19-.09.37.37,0,0,1,.21.06c.07,0,.09.09.08.18l-.1.94a.32.32,0,0,0,.1.33.87.87,0,0,0,.41.08h2.51c.06,0,.11.05.14.14a.62.62,0,0,1,.07.31.94.94,0,0,1-.07.37c0,.12-.08.18-.14.18h-2.17a1.9,1.9,0,0,0-.73.09c-.1.06-.15.22-.15.5v4.14a2.16,2.16,0,0,0,.37,1.33,1.28,1.28,0,0,0,1.07.47,4.06,4.06,0,0,0,1-.09,2.2,2.2,0,0,0,.64-.29.12.12,0,0,1,.09,0,.1.1,0,0,1,.11.1.46.46,0,0,1,0,.2c0,.06-.13.21-.37.42a4,4,0,0,1-.95.59A2.87,2.87,0,0,1,156.94,284.12Zm3.81-.24a.76.76,0,0,1-.33-.05.23.23,0,0,1,0-.4c.09,0,.21-.08.37-.12a1.38,1.38,0,0,0,.62-.3.67.67,0,0,0,.21-.49V278a2.61,2.61,0,0,0-.17-1,.9.9,0,0,0-.73-.53.39.39,0,0,1-.15-.11.29.29,0,0,1-.06-.17.22.22,0,0,1,.2-.24,8.73,8.73,0,0,0,1.18-.49c.42-.22.75-.41,1-.55a.83.83,0,0,1,.2-.11l.13,0c.07,0,.11,0,.11.14s0,.15,0,.33,0,.36,0,.58l0,.66s0,.06,0,.06a4.86,4.86,0,0,1,.77-.74,4.92,4.92,0,0,1,.87-.51,2.26,2.26,0,0,1,.89-.19,1.29,1.29,0,0,1,.74.19.57.57,0,0,1,.3.48.92.92,0,0,1-.13.46,1.52,1.52,0,0,1-.31.44.57.57,0,0,1-.42.19.76.76,0,0,1-.28-.05l-.33-.14-.34-.12a.92.92,0,0,0-.36-.07,1.71,1.71,0,0,0-1,.37,1.65,1.65,0,0,0-.48,1.39v4.26a.52.52,0,0,0,.3.45,4.26,4.26,0,0,0,.87.34,1.51,1.51,0,0,1,.37.14.2.2,0,0,1,.13.2c0,.16-.15.23-.45.23a6.33,6.33,0,0,1-1-.05,5.28,5.28,0,0,0-.9-.06,5.22,5.22,0,0,0-.62,0l-.48,0A4.1,4.1,0,0,1,160.75,283.88Zm8.82.24a1.33,1.33,0,0,1-.81-.31,2.66,2.66,0,0,1-.67-.71,1.5,1.5,0,0,1-.27-.8,1.38,1.38,0,0,1,.37-1,3.27,3.27,0,0,1,1.18-.7l2.24-.89a1.12,1.12,0,0,0,.5-.28,1.27,1.27,0,0,0,.12-.55l0-1.34a1.31,1.31,0,0,0-.33-.94,1.15,1.15,0,0,0-1-.42,2.17,2.17,0,0,0-.66.11,2.1,2.1,0,0,0-.54.28.39.39,0,0,0-.18.26,1.34,1.34,0,0,0-.05.35,1.37,1.37,0,0,0,0,.19,1.21,1.21,0,0,1,0,.18c0,.08-.09.17-.28.29a3.26,3.26,0,0,1-.62.31,1.53,1.53,0,0,1-.55.14.29.29,0,0,1-.17-.05.19.19,0,0,1-.08-.14,1.41,1.41,0,0,1,.23-.71,2.84,2.84,0,0,1,.66-.74,6.4,6.4,0,0,1,1.08-.77,7.46,7.46,0,0,1,1.17-.53,3.18,3.18,0,0,1,1-.19,1.76,1.76,0,0,1,1.3.53,1.81,1.81,0,0,1,.49,1.34l-.11,5a1,1,0,0,0,.2.73.76.76,0,0,0,.59.27,1.21,1.21,0,0,0,.81-.23.31.31,0,0,1,.17-.11.19.19,0,0,1,.17.07.18.18,0,0,1,.07.16.67.67,0,0,1-.24.47,3.05,3.05,0,0,1-.76.53,1.58,1.58,0,0,1-.75.21,1.8,1.8,0,0,1-1.6-1.1h-.06a5.37,5.37,0,0,1-1.38.82A3.56,3.56,0,0,1,169.57,284.12Zm1-1a1.82,1.82,0,0,0,.74-.13,2,2,0,0,0,.56-.37,1.11,1.11,0,0,0,.17-.29,1.49,1.49,0,0,0,.1-.57l.06-1a.81.81,0,0,0,0-.34.18.18,0,0,0-.17-.11l-.16,0a1.07,1.07,0,0,0-.29.08,4.53,4.53,0,0,0-1.61.83,1.21,1.21,0,0,0-.44.78,1,1,0,0,0,.33.84A1.12,1.12,0,0,0,170.6,283.1Zm6.12.78a.82.82,0,0,1-.33-.05.2.2,0,0,1-.11-.18.21.21,0,0,1,.15-.23,2.35,2.35,0,0,1,.35-.11,2.52,2.52,0,0,0,.7-.26.6.6,0,0,0,.24-.53V278a2.16,2.16,0,0,0-.22-1,.9.9,0,0,0-.77-.53.29.29,0,0,1-.17-.07.39.39,0,0,1,0-.21c0-.15.07-.23.2-.24a5.12,5.12,0,0,0,1.44-.52c.38-.22.67-.4.86-.53a.58.58,0,0,1,.3-.15c.09,0,.14,0,.14.11s0,.33-.06.67-.07.69-.1,1.09,0,.75,0,1.07v4.88a.59.59,0,0,0,.24.52,2.62,2.62,0,0,0,.7.27,1.6,1.6,0,0,1,.33.11.22.22,0,0,1,.17.23c0,.16-.15.23-.44.23a4.06,4.06,0,0,1-.67,0l-.47,0a5.18,5.18,0,0,0-.63,0,5,5,0,0,0-.61,0l-.49,0A4,4,0,0,1,176.72,283.88ZM178.86,273a1.07,1.07,0,0,1-.78-.3,1,1,0,0,1-.32-.74,1,1,0,0,1,.32-.76,1.11,1.11,0,0,1,1.56,0,1,1,0,0,1,.33.76,1,1,0,0,1-.33.74A1.07,1.07,0,0,1,178.86,273Zm3.23,10.91a.82.82,0,0,1-.33-.05.2.2,0,0,1-.11-.18c0-.12,0-.19.13-.22a2.69,2.69,0,0,1,.37-.12,3.29,3.29,0,0,0,.62-.23.57.57,0,0,0,.32-.56V278a3.08,3.08,0,0,0-.13-1,.85.85,0,0,0-.68-.54l-.16-.1a.23.23,0,0,1-.06-.18c0-.15.07-.23.2-.24a5,5,0,0,0,1.24-.47,7.19,7.19,0,0,0,.94-.61l.13-.07.12,0a.1.1,0,0,1,.07,0,.13.13,0,0,1,0,.1,5.71,5.71,0,0,1-.06.6c0,.3-.05.55-.05.75a.66.66,0,0,0,0,.15.41.41,0,0,0,0,.1,5.31,5.31,0,0,1,1.64-1,4.91,4.91,0,0,1,1.9-.36A2.2,2.2,0,0,1,190,276a3.15,3.15,0,0,1,.7,2.08v4.47a.53.53,0,0,0,.3.54c.21.09.42.18.64.25l.34.14a.23.23,0,0,1,.17.24q0,.12-.15.15a1.06,1.06,0,0,1-.29,0,4,4,0,0,1-.68,0l-.46,0a4.71,4.71,0,0,0-.61,0,5.22,5.22,0,0,0-.62,0l-.5,0a4,4,0,0,1-.68,0,1.17,1.17,0,0,1-.29,0c-.1,0-.16-.07-.16-.15a.24.24,0,0,1,.16-.24,3.84,3.84,0,0,1,.36-.14,5.9,5.9,0,0,0,.63-.25.53.53,0,0,0,.31-.54V278.1a1.92,1.92,0,0,0-.54-1.44,2,2,0,0,0-1.43-.53,3.57,3.57,0,0,0-1.4.25,4.07,4.07,0,0,0-1,.59.44.44,0,0,0-.13.21,1,1,0,0,0,0,.28v5.06a.57.57,0,0,0,.3.56,3.77,3.77,0,0,0,.64.23c.33.08.5.19.5.34a.2.2,0,0,1-.11.18.71.71,0,0,1-.33.05,4.25,4.25,0,0,1-.69,0l-.47,0a4.6,4.6,0,0,0-.61,0,4.75,4.75,0,0,0-.6,0l-.49,0A4.12,4.12,0,0,1,182.09,283.88Zm14.74.24a2.2,2.2,0,0,1-1.67-.63,2.67,2.67,0,0,1-.6-1.88v-4.88a.24.24,0,0,0-.14-.23,1.36,1.36,0,0,0-.57-.08h-.13c-.07,0-.13-.05-.19-.14a.68.68,0,0,1-.07-.27.22.22,0,0,1,.06-.12c0-.07.08-.11.1-.11.29-.2.55-.4.78-.59a8,8,0,0,0,.66-.58,5.82,5.82,0,0,0,.5-.52l.19-.17a.24.24,0,0,1,.18-.09.43.43,0,0,1,.22.06.15.15,0,0,1,.07.18l-.1.94a.32.32,0,0,0,.1.33.87.87,0,0,0,.41.08h2.51c.06,0,.11.05.15.14a.74.74,0,0,1,.07.31,1.16,1.16,0,0,1-.07.37q-.06.18-.15.18H197a1.8,1.8,0,0,0-.72.09c-.11.06-.16.22-.16.5v4.14a2.16,2.16,0,0,0,.37,1.33,1.29,1.29,0,0,0,1.07.47,4,4,0,0,0,1-.09,2.26,2.26,0,0,0,.65-.29.1.1,0,0,1,.08,0,.12.12,0,0,1,.12.1.65.65,0,0,1,0,.2c0,.06-.12.21-.37.42a3.9,3.9,0,0,1-.94.59A2.91,2.91,0,0,1,196.83,284.12Zm5.9,0a3.8,3.8,0,0,1-1.27-.21,3.18,3.18,0,0,1-1-.56,2.77,2.77,0,0,1-.16-.78c0-.36-.06-.66-.07-.9s.09-.18.28-.18a.41.41,0,0,1,.16,0,.16.16,0,0,1,.1.11,2.55,2.55,0,0,0,.9,1.47,2.15,2.15,0,0,0,1.27.44,1.53,1.53,0,0,0,1.08-.41,1.28,1.28,0,0,0,.46-1,1.34,1.34,0,0,0-.4-1,7.06,7.06,0,0,0-1.38-1,8.5,8.5,0,0,1-1.22-.84,2.63,2.63,0,0,1-.67-.82,2.2,2.2,0,0,1-.2-.94,2.33,2.33,0,0,1,.33-1.22,2.36,2.36,0,0,1,1-.87,4.27,4.27,0,0,1,2.73-.19,2.14,2.14,0,0,1,.66.26,1.75,1.75,0,0,1,.3.72,3.54,3.54,0,0,1,.13.94c0,.1-.08.14-.23.14a.82.82,0,0,1-.26,0,.34.34,0,0,1-.15-.14,2.68,2.68,0,0,0-.72-1.06,1.51,1.51,0,0,0-1-.37,1.64,1.64,0,0,0-1,.31,1.09,1.09,0,0,0-.42.93,1.3,1.3,0,0,0,.31.86,4.65,4.65,0,0,0,1.2.86,9.33,9.33,0,0,1,1.9,1.29,2.12,2.12,0,0,1,.62,1.59,2.27,2.27,0,0,1-.9,1.85A3.57,3.57,0,0,1,202.73,284.12Z"/><path class="cls-3" d="M336.1,223.36h0a5.87,5.87,0,0,0,6-5.74h-6a2.87,2.87,0,1,0,0-5.73h6V137.28h0a5.87,5.87,0,0,1,6-5.74h167a5.75,5.75,0,1,1,0,11.48h-6v74.6a5.87,5.87,0,0,1-6,5.74Zm18-86.08h0a5.87,5.87,0,0,1-6,5.74,2.87,2.87,0,1,1,0-5.74Z"/><path class="cls-4" d="M354.07,137.28h0a5.87,5.87,0,0,1-6,5.74,2.87,2.87,0,1,1,0-5.74Zm-12,80.34a6,6,0,1,1-6-5.73h0a2.87,2.87,0,1,1,0,5.73Z"/><path class="cls-5" d="M342.09,211.89V137.28h0a5.87,5.87,0,0,1,6-5.74h167a5.75,5.75,0,1,1,0,11.48h-6v74.6a5.87,5.87,0,0,1-6,5.74h-167a5.74,5.74,0,1,1,0-11.47Zm6-80.35h0a5.75,5.75,0,1,1,0,11.48,2.87,2.87,0,1,1,0-5.74h6m155,5.74h-161m-12,68.87h0a2.87,2.87,0,1,1,0,5.73h6m-6,5.74h0a5.87,5.87,0,0,0,6-5.74v-5.73"/><path class="cls-6" d="M342.09,211.89V137.28h0a5.87,5.87,0,0,1,6-5.74h167a5.75,5.75,0,1,1,0,11.48h-6v74.6a5.87,5.87,0,0,1-6,5.74h-167a5.74,5.74,0,1,1,0-11.47Zm6-80.35h0a5.75,5.75,0,1,1,0,11.48,2.87,2.87,0,1,1,0-5.74h6m155,5.74h-161m-12,68.87h0a2.87,2.87,0,1,1,0,5.73h6m-6,5.74h0a5.87,5.87,0,0,0,6-5.74v-5.73"/><path d="M354.78,175.45a4.93,4.93,0,0,1-1.7-.28,4.52,4.52,0,0,1-1.39-.74,1.72,1.72,0,0,1-.17-.19,1,1,0,0,1-.11-.23,4.93,4.93,0,0,1-.15-1.09,9.86,9.86,0,0,0-.08-1.11.23.23,0,0,1,.13-.22.65.65,0,0,1,.31-.08.54.54,0,0,1,.22.05.28.28,0,0,1,.14.18,4.26,4.26,0,0,0,1.3,2.33,2.92,2.92,0,0,0,1.81.68,2.81,2.81,0,0,0,1.35-.32,2.2,2.2,0,0,0,.93-.88,2.68,2.68,0,0,0,.34-1.37,2.77,2.77,0,0,0-.29-1.38,2.84,2.84,0,0,0-.85-1c-.36-.26-.8-.55-1.32-.86s-1.14-.69-1.7-1.05a6,6,0,0,1-1.39-1.24,2.77,2.77,0,0,1-.54-1.71,3.81,3.81,0,0,1,.5-1.94,3.54,3.54,0,0,1,1.53-1.37,5.54,5.54,0,0,1,2.55-.52,5.05,5.05,0,0,1,1.37.16,6.4,6.4,0,0,1,.93.3.63.63,0,0,1,.3.21.74.74,0,0,1,.17.31q.13.45.27,1a3.69,3.69,0,0,1,.16,1.06c0,.16-.11.23-.33.23a.9.9,0,0,1-.38-.08.36.36,0,0,1-.23-.2,4.93,4.93,0,0,0-1.07-1.71,2.18,2.18,0,0,0-1.56-.59,3.32,3.32,0,0,0-1.23.23,2.12,2.12,0,0,0-.94.77,2.39,2.39,0,0,0-.35,1.39,1.83,1.83,0,0,0,.42,1.17,5.59,5.59,0,0,0,1.13,1l1.51.94a13.23,13.23,0,0,1,1.5,1,4.45,4.45,0,0,1,1.21,1.24,3.18,3.18,0,0,1,.48,1.78,4,4,0,0,1-.6,2.18,4,4,0,0,1-1.66,1.43A5.78,5.78,0,0,1,354.78,175.45Zm9.86,0a2.2,2.2,0,0,1-1.67-.63,2.67,2.67,0,0,1-.6-1.88V168a.24.24,0,0,0-.14-.23,1.36,1.36,0,0,0-.57-.08h-.13c-.07,0-.13-.05-.19-.14a.68.68,0,0,1-.07-.27.22.22,0,0,1,.06-.12c.05-.07.08-.11.1-.11.28-.2.55-.4.78-.59a8,8,0,0,0,.66-.58,5.82,5.82,0,0,0,.5-.52l.18-.17a.26.26,0,0,1,.19-.09.37.37,0,0,1,.21.06c.07,0,.09.09.08.18l-.1.94a.33.33,0,0,0,.1.33.87.87,0,0,0,.41.08H367c.06,0,.11,0,.14.14a.62.62,0,0,1,.08.31,1,1,0,0,1-.08.37c0,.12-.08.18-.14.18h-2.17a1.9,1.9,0,0,0-.73.09c-.1.06-.15.22-.15.5v4.14a2.11,2.11,0,0,0,.37,1.32,1.27,1.27,0,0,0,1.07.48,4.06,4.06,0,0,0,1-.09,2.39,2.39,0,0,0,.65-.29.09.09,0,0,1,.08,0,.12.12,0,0,1,.12.1.65.65,0,0,1,0,.2c0,.06-.13.21-.37.42a3.9,3.9,0,0,1-.94.59A2.94,2.94,0,0,1,364.64,175.41Zm5.31,0a1.33,1.33,0,0,1-.81-.31,2.66,2.66,0,0,1-.67-.71,1.5,1.5,0,0,1-.27-.8,1.38,1.38,0,0,1,.37-1,3.27,3.27,0,0,1,1.18-.7L372,171a1.12,1.12,0,0,0,.5-.28,1.27,1.27,0,0,0,.12-.55l0-1.34a1.35,1.35,0,0,0-.33-.95,1.18,1.18,0,0,0-1-.41,2.17,2.17,0,0,0-.66.11,2.1,2.1,0,0,0-.54.28.36.36,0,0,0-.18.26,1.34,1.34,0,0,0-.05.35,1.37,1.37,0,0,0,0,.19,1.21,1.21,0,0,1,0,.18c0,.07-.09.17-.28.29a3.26,3.26,0,0,1-.62.31,1.53,1.53,0,0,1-.55.14.29.29,0,0,1-.17,0,.19.19,0,0,1-.08-.14,1.41,1.41,0,0,1,.23-.71,2.84,2.84,0,0,1,.66-.74,6.4,6.4,0,0,1,1.08-.77,7.46,7.46,0,0,1,1.17-.53,3.18,3.18,0,0,1,1-.19,1.76,1.76,0,0,1,1.3.53,1.81,1.81,0,0,1,.49,1.34l-.11,5a1,1,0,0,0,.2.73.76.76,0,0,0,.59.27,1.21,1.21,0,0,0,.81-.23.31.31,0,0,1,.17-.11.19.19,0,0,1,.17.07.18.18,0,0,1,.07.16.67.67,0,0,1-.24.47,3.05,3.05,0,0,1-.76.53,1.58,1.58,0,0,1-.75.21,1.8,1.8,0,0,1-1.6-1.1h-.06a5.37,5.37,0,0,1-1.38.82A3.56,3.56,0,0,1,370,175.41Zm1-1a1.82,1.82,0,0,0,.74-.13,2,2,0,0,0,.56-.37,1.31,1.31,0,0,0,.17-.29,1.49,1.49,0,0,0,.1-.57l.06-1a.81.81,0,0,0,0-.34.18.18,0,0,0-.17-.11l-.16,0a1.07,1.07,0,0,0-.29.08,4.53,4.53,0,0,0-1.61.83,1.21,1.21,0,0,0-.44.78,1,1,0,0,0,.33.84A1.12,1.12,0,0,0,371,174.39Zm9.43,6.8a5.53,5.53,0,0,1-3-.68,2.06,2.06,0,0,1-1.09-1.84,2.38,2.38,0,0,1,.17-.93,1.69,1.69,0,0,1,.56-.64c.2-.17.47-.39.81-.64l1.07-.81.92,0a4.83,4.83,0,0,0-1.47,1.25,2.36,2.36,0,0,0-.42,1.42,1.73,1.73,0,0,0,.77,1.42,3.22,3.22,0,0,0,1.93.57,3.44,3.44,0,0,0,2.08-.56,2.75,2.75,0,0,0,.85-1,3.11,3.11,0,0,0,.31-1.35,1,1,0,0,0-.34-.77,2.56,2.56,0,0,0-1.06-.49,9.32,9.32,0,0,0-1.88-.25,8.9,8.9,0,0,1-2.87-.53,1.23,1.23,0,0,1-.8-1.17.77.77,0,0,1,.11-.39,2.12,2.12,0,0,1,.4-.38l.75-.56a2.46,2.46,0,0,0,.35-.3,1.54,1.54,0,0,0,.23-.32l.76.36a2.39,2.39,0,0,0-.82.45.72.72,0,0,0-.33.51.63.63,0,0,0,.33.52,3,3,0,0,0,1,.35,13.6,13.6,0,0,0,1.55.18,7.51,7.51,0,0,1,3,.63,1.64,1.64,0,0,1,1,1.49,3.26,3.26,0,0,1-.43,1.6,5.53,5.53,0,0,1-1.13,1.45,5.67,5.67,0,0,1-1.56,1A4.47,4.47,0,0,1,380.41,181.19Zm.26-9.05a1.61,1.61,0,0,0,1.37-.81,3.43,3.43,0,0,0,.55-2,2.3,2.3,0,0,0-.3-1.15,2.33,2.33,0,0,0-.75-.86,1.78,1.78,0,0,0-1-.33,1.6,1.6,0,0,0-1,.35,2.77,2.77,0,0,0-.72.89,2.67,2.67,0,0,0-.28,1.19,3.3,3.3,0,0,0,.29,1.37,2.53,2.53,0,0,0,.77,1A1.74,1.74,0,0,0,380.67,172.14Zm-.13.74a3.57,3.57,0,0,1-1.71-.44,3.74,3.74,0,0,1-1.33-1.16,2.73,2.73,0,0,1-.51-1.59,3,3,0,0,1,.52-1.74,3.68,3.68,0,0,1,1.42-1.16,4.3,4.3,0,0,1,1.87-.42,3.42,3.42,0,0,1,1.11.16l.93.28a6.74,6.74,0,0,0,.82.19c.21,0,.43,0,.65,0s.39,0,.65,0l.54,0c.19,0,.29.1.29.31a.58.58,0,0,1-.21.4c-.08.07-.14.11-.18.11h-.59c-.39,0-.61.05-.66.16s0,.14-.06.25,0,.21-.06.34,0,.25,0,.38a4.13,4.13,0,0,1-.48,2,4.26,4.26,0,0,1-1.27,1.45A3,3,0,0,1,380.54,172.88Zm9.79,2.54a3.7,3.7,0,0,1-3.51-2.17,5.58,5.58,0,0,1-.5-2.41,4.42,4.42,0,0,1,.57-2.22,4.68,4.68,0,0,1,1.56-1.6,3.84,3.84,0,0,1,2.11-.61,3.32,3.32,0,0,1,1.54.34,2.56,2.56,0,0,1,1.07.93,2.47,2.47,0,0,1,.38,1.38.57.57,0,0,1-.65.64h-4.62a.55.55,0,0,0-.45.17,1.16,1.16,0,0,0-.11.61,3.69,3.69,0,0,0,1.68,3.16,3.09,3.09,0,0,0,1.7.49,2.79,2.79,0,0,0,1.18-.23,2.67,2.67,0,0,0,1-.71l.14-.12a.14.14,0,0,1,.1,0c.13,0,.19.06.19.2a1.45,1.45,0,0,1-.4.89,3.63,3.63,0,0,1-.8.7,4.1,4.1,0,0,1-1,.44A4.24,4.24,0,0,1,390.33,175.42Zm-2-6.36h2.88a5.36,5.36,0,0,0,.73-.1.19.19,0,0,0,.14-.13,1,1,0,0,0,0-.33,1.25,1.25,0,0,0-.57-1,2.08,2.08,0,0,0-1.32-.44,2,2,0,0,0-1,.29,2.77,2.77,0,0,0-.85.7,1.4,1.4,0,0,0-.32.83C388.05,169,388.14,169.06,388.32,169.06Z"/><path d="M350.89,200.59a1.17,1.17,0,0,1-.45-.08c-.12,0-.17-.11-.17-.19a.31.31,0,0,1,.18-.26,2.32,2.32,0,0,1,.54-.24,3.6,3.6,0,0,0,1.05-.49,2.76,2.76,0,0,0,.84-1.12c.41-.89.78-1.73,1.12-2.52s.67-1.55,1-2.31l.95-2.36c.33-.82.68-1.71,1-2.68a4,4,0,0,0,.2-.58,2.6,2.6,0,0,0,.1-.64l.4-.12a2.09,2.09,0,0,0,.4-.19.61.61,0,0,0,.27-.37.91.91,0,0,1,.15-.34s0,0,0,0a.08.08,0,0,1,.07,0,1.14,1.14,0,0,1,.07.22c0,.08,0,.16.07.25.35,1.06.72,2.15,1.1,3.26s.75,2.17,1.1,3.2l1,2.76c.31.82.55,1.49.73,2a4.64,4.64,0,0,0,.64,1.27,2.35,2.35,0,0,0,.75.59,3.55,3.55,0,0,0,.82.24,1.37,1.37,0,0,1,.55.21.36.36,0,0,1,.18.27q0,.13-.18.18a2,2,0,0,1-.46,0c-.2,0-.48,0-.83,0l-1.13-.07-1.08,0H361l-.8,0h-.64a1.89,1.89,0,0,1-.46,0c-.11-.05-.17-.11-.17-.2s.07-.18.21-.26a1.83,1.83,0,0,1,.5-.15,2,2,0,0,0,1-.34.76.76,0,0,0,.32-.6,3.93,3.93,0,0,0-.15-.9c-.09-.4-.21-.83-.34-1.29s-.26-.86-.37-1.21a.25.25,0,0,0-.17-.2l-.42,0h-4.15a.27.27,0,0,0-.18.07.57.57,0,0,0-.19.3c0,.14-.11.37-.21.67s-.21.62-.32.95-.18.63-.25.91a2.38,2.38,0,0,0-.12.49,1,1,0,0,0,.37.78,2.33,2.33,0,0,0,.9.42c.49.13.73.27.73.42s-.06.15-.17.18a1.47,1.47,0,0,1-.46.06l-.84,0c-.36,0-.75,0-1.16,0s-.95,0-1.41.07A11.13,11.13,0,0,1,350.89,200.59Zm5.14-6h3.4c.2,0,.3,0,.3-.11a.44.44,0,0,0,0-.1.19.19,0,0,0,0-.1L358,189.12c-.1-.26-.17-.38-.2-.38s-.09.11-.19.35l-2,5.16a.64.64,0,0,0-.05.16.14.14,0,0,0,.12.14Zm17.27,6.32a.31.31,0,0,1-.15-.09c-.06,0-.1-.09-.1-.12a4.12,4.12,0,0,1,.06-.6,4.35,4.35,0,0,0,.06-.66v-.13a4,4,0,0,1-1.06,1,3,3,0,0,1-1.81.51,3.72,3.72,0,0,1-2.17-.63,4.5,4.5,0,0,1-1.4-1.63,4.55,4.55,0,0,1-.48-2,4.65,4.65,0,0,1,2.28-4,5.08,5.08,0,0,1,2.64-.67,4.31,4.31,0,0,1,.88.09,3.29,3.29,0,0,1,.7.15,1.41,1.41,0,0,0,.29.07c.1,0,.16-.17.16-.51v-3a1.66,1.66,0,0,0-.29-1.15,1.48,1.48,0,0,0-.81-.4c-.14,0-.2-.11-.2-.26a.27.27,0,0,1,.17-.26,13.41,13.41,0,0,0,1.51-.43l.86-.34a.37.37,0,0,1,.16,0h.12a.15.15,0,0,1,.16.12,3.28,3.28,0,0,1,0,.44c0,.2,0,.5-.07.89s0,.9,0,1.53v9.49a3.3,3.3,0,0,0,.12,1c.07.22.19.33.34.33l.39,0,.55-.05c.27,0,.4.05.4.19a.39.39,0,0,1-.1.27.24.24,0,0,1-.2.11,10,10,0,0,0-1.21.25,10.92,10.92,0,0,0-1.36.46,1.1,1.1,0,0,1-.23.1A.24.24,0,0,1,373.3,200.88Zm-2.22-1.19a2.37,2.37,0,0,0,1.12-.29,3.37,3.37,0,0,0,1-.75l0-3.78a2,2,0,0,0-.35-1.1,2.52,2.52,0,0,0-.94-.89,2.69,2.69,0,0,0-1.41-.36,2.81,2.81,0,0,0-1.16.3,2.55,2.55,0,0,0-1.08,1,4.07,4.07,0,0,0-.46,2.15,4.3,4.3,0,0,0,.37,1.91,3,3,0,0,0,.9,1.11,3.15,3.15,0,0,0,1.1.52A4.3,4.3,0,0,0,371.08,199.69Zm10.18,1.23c-.05,0-.13-.11-.23-.33s-.14-.37-.17-.47-.2-.48-.28-.73-.17-.51-.26-.74c-.32-.87-.67-1.72-1-2.55s-.73-1.68-1.09-2.52a1.8,1.8,0,0,0-.48-.69,1.34,1.34,0,0,0-.64-.39,1.32,1.32,0,0,1-.29-.13.21.21,0,0,1-.1-.2c0-.08.05-.13.16-.15a1,1,0,0,1,.27,0,5.28,5.28,0,0,1,.64,0,2.63,2.63,0,0,1,.39.06,4.2,4.2,0,0,0,.58,0,4.37,4.37,0,0,0,.59,0,2.7,2.7,0,0,1,.41-.06,5.65,5.65,0,0,1,.64,0,.92.92,0,0,1,.26,0c.11,0,.17.07.17.15a.26.26,0,0,1-.16.23,1.59,1.59,0,0,1-.34.14.65.65,0,0,0-.33.34,1.24,1.24,0,0,0-.11.52c0,.1,0,.2,0,.3a1.07,1.07,0,0,0,.09.27l1.73,4.4,0,0,0,0,1.67-4.08a2.13,2.13,0,0,0,.13-.45,1.91,1.91,0,0,0,.06-.41,1,1,0,0,0-.14-.61.87.87,0,0,0-.43-.28,2.12,2.12,0,0,1-.4-.17.21.21,0,0,1-.12-.2q0-.12.15-.15a1,1,0,0,1,.3,0,3.91,3.91,0,0,1,.62.05,6.7,6.7,0,0,0,1,.06,3.17,3.17,0,0,0,.77-.06,2.07,2.07,0,0,1,.53-.05.87.87,0,0,1,.3,0,.14.14,0,0,1,.13.15c0,.15-.17.28-.5.37a1.76,1.76,0,0,0-.73.49,3.41,3.41,0,0,0-.62.91l-1.72,4s-.08.19-.17.41l-.28.72c-.11.26-.2.48-.27.67l-.1.27-.1.21-.2.41a1.52,1.52,0,0,1-.19.33Zm7.15-.14a1.41,1.41,0,0,1-.82-.3,3,3,0,0,1-.67-.71,1.5,1.5,0,0,1-.27-.81,1.45,1.45,0,0,1,.37-1,3.48,3.48,0,0,1,1.19-.69l2.24-.89a1.17,1.17,0,0,0,.5-.29,1.39,1.39,0,0,0,.11-.55l0-1.34a1.36,1.36,0,0,0-.32-.94,1.19,1.19,0,0,0-1-.41,2.17,2.17,0,0,0-.66.11,1.7,1.7,0,0,0-.54.27.39.39,0,0,0-.19.26,1.37,1.37,0,0,0,0,.36,1.34,1.34,0,0,0,0,.19,1.1,1.1,0,0,1,0,.18c0,.07-.1.17-.29.28a3.18,3.18,0,0,1-.61.32,1.57,1.57,0,0,1-.56.14.27.27,0,0,1-.17-.06.16.16,0,0,1-.07-.14,1.47,1.47,0,0,1,.23-.71,3.17,3.17,0,0,1,.65-.74,6.86,6.86,0,0,1,1.09-.76,6,6,0,0,1,1.17-.53,3.21,3.21,0,0,1,1-.2,1.7,1.7,0,0,1,1.3.54,1.8,1.8,0,0,1,.5,1.34l-.11,5a.94.94,0,0,0,.2.72.72.72,0,0,0,.58.28,1.15,1.15,0,0,0,.81-.24c.08-.07.14-.11.18-.11a.24.24,0,0,1,.17.07.22.22,0,0,1,.07.17.65.65,0,0,1-.24.46,3.29,3.29,0,0,1-.76.54,1.76,1.76,0,0,1-.76.2,1.8,1.8,0,0,1-1.6-1.09h-.05a6.28,6.28,0,0,1-1.39.82A3.5,3.5,0,0,1,388.41,200.78Zm1-1a1.82,1.82,0,0,0,.75-.14,1.72,1.72,0,0,0,.55-.37.78.78,0,0,0,.17-.28,1.34,1.34,0,0,0,.1-.58l.06-1a.87.87,0,0,0,0-.35.16.16,0,0,0-.17-.1.5.5,0,0,0-.15,0,1.43,1.43,0,0,0-.29.08,4.59,4.59,0,0,0-1.61.84,1.15,1.15,0,0,0-.45.78,1,1,0,0,0,.33.83A1.15,1.15,0,0,0,389.43,199.77Zm6.12.78a.73.73,0,0,1-.32-.06.17.17,0,0,1-.12-.17c0-.12.05-.2.13-.22l.37-.13a2.8,2.8,0,0,0,.63-.23.56.56,0,0,0,.31-.56v-4.51a3.38,3.38,0,0,0-.12-1,.86.86,0,0,0-.69-.55l-.16-.09a.3.3,0,0,1-.05-.18c0-.16.06-.24.2-.25a5.14,5.14,0,0,0,1.24-.46,10.87,10.87,0,0,0,.94-.62l.13-.07.11,0a.08.08,0,0,1,.07,0,.12.12,0,0,1,0,.09,5.71,5.71,0,0,1-.06.6,6.14,6.14,0,0,0-.06.76.77.77,0,0,0,0,.15.51.51,0,0,1,0,.09,5.89,5.89,0,0,1,1.65-1.05,4.89,4.89,0,0,1,1.89-.36,2.2,2.2,0,0,1,1.77.85,3.12,3.12,0,0,1,.7,2.08v4.47a.55.55,0,0,0,.3.55c.21.09.43.17.64.24l.35.14a.26.26,0,0,1,.17.25c0,.08-.05.13-.16.15a1.57,1.57,0,0,1-.28,0,5.55,5.55,0,0,1-.69,0l-.46,0a4.6,4.6,0,0,0-.61,0,5,5,0,0,0-.61,0l-.5,0a5.55,5.55,0,0,1-.69,0,1.86,1.86,0,0,1-.28,0c-.11,0-.16-.07-.16-.15a.25.25,0,0,1,.16-.25l.35-.14a5.87,5.87,0,0,0,.63-.24.55.55,0,0,0,.32-.55v-4.42a1.9,1.9,0,0,0-.55-1.43,2,2,0,0,0-1.42-.53,3.73,3.73,0,0,0-1.4.24,4.2,4.2,0,0,0-1,.59.48.48,0,0,0-.13.22.86.86,0,0,0-.05.27v5.06a.57.57,0,0,0,.3.56,3.15,3.15,0,0,0,.65.23c.33.09.5.2.5.35a.17.17,0,0,1-.12.17.64.64,0,0,1-.33.06,5.77,5.77,0,0,1-.68,0l-.47,0a4.78,4.78,0,0,0-.62,0,5,5,0,0,0-.6,0l-.48,0A5.82,5.82,0,0,1,395.55,200.55Zm15.27.24a3.72,3.72,0,0,1-2-.53,3.78,3.78,0,0,1-1.4-1.46,4.34,4.34,0,0,1-.51-2.09,5,5,0,0,1,.61-2.48,4.82,4.82,0,0,1,1.69-1.78,4.47,4.47,0,0,1,4.82.07.53.53,0,0,1,.26.4.71.71,0,0,1-.16.38,1.2,1.2,0,0,1-.37.34.78.78,0,0,1-.42.14.4.4,0,0,1-.21-.07l-.24-.16a8.78,8.78,0,0,0-1.09-.67,2.18,2.18,0,0,0-1-.32,2,2,0,0,0-1.75,1,4.32,4.32,0,0,0-.66,2.5,3.62,3.62,0,0,0,.44,1.79,3.51,3.51,0,0,0,1.22,1.26,3.12,3.12,0,0,0,1.67.47,2.75,2.75,0,0,0,1.09-.2,3.36,3.36,0,0,0,1-.71.33.33,0,0,1,.1-.06.25.25,0,0,1,.11,0c.16,0,.25.1.25.31a.71.71,0,0,1-.08.28,1.47,1.47,0,0,1-.25.36,3.7,3.7,0,0,1-.83.74,3.48,3.48,0,0,1-1.07.43A5,5,0,0,1,410.82,200.79Zm8.49,0a3.84,3.84,0,0,1-2.1-.56,3.89,3.89,0,0,1-1.41-1.61,5.38,5.38,0,0,1-.5-2.41,4.36,4.36,0,0,1,.57-2.21,4.57,4.57,0,0,1,1.55-1.6,3.88,3.88,0,0,1,2.11-.62,3.34,3.34,0,0,1,1.55.35,2.48,2.48,0,0,1,1.07.93,2.55,2.55,0,0,1,.38,1.38.57.57,0,0,1-.65.64h-4.63a.51.51,0,0,0-.44.16,1.09,1.09,0,0,0-.12.62,3.7,3.7,0,0,0,1.69,3.16,3.15,3.15,0,0,0,1.7.49,2.72,2.72,0,0,0,2.14-.94.72.72,0,0,1,.14-.13.18.18,0,0,1,.1,0c.12,0,.19.07.19.21a1.54,1.54,0,0,1-.4.89,3.59,3.59,0,0,1-.8.69,4.09,4.09,0,0,1-2.14.6Zm-2-6.35h2l.89,0c.25,0,.5,0,.72-.09a.2.2,0,0,0,.15-.14.92.92,0,0,0,0-.33,1.24,1.24,0,0,0-.57-1,2.09,2.09,0,0,0-1.33-.44,2,2,0,0,0-1,.29,2.82,2.82,0,0,0-.84.69,1.38,1.38,0,0,0-.33.84C417,194.36,417.11,194.44,417.29,194.44Zm6.87,6.11a.79.79,0,0,1-.32-.06.16.16,0,0,1-.12-.17.2.2,0,0,1,.14-.21,2.26,2.26,0,0,1,.36-.14c.21-.07.41-.15.62-.24a.55.55,0,0,0,.32-.55v-4.51a3.68,3.68,0,0,0-.13-1,.77.77,0,0,0-.7-.52.32.32,0,0,1-.14-.08.29.29,0,0,1-.06-.19.23.23,0,0,1,.17-.25,6.19,6.19,0,0,0,.94-.3,4.57,4.57,0,0,0,.63-.35,6,6,0,0,1,.67-.44l.09-.06.11,0c.09,0,.13,0,.13.13a5.71,5.71,0,0,1-.06.6,5.85,5.85,0,0,0-.05.76c0,.13,0,.22,0,.24h.06a7.06,7.06,0,0,1,1.31-.93,4.13,4.13,0,0,1,2.1-.48,2.43,2.43,0,0,1,1.31.33,2.4,2.4,0,0,1,.88,1.12h.06a7,7,0,0,1,1.6-1,4.63,4.63,0,0,1,2-.43,1.76,1.76,0,0,1,1.2.43,2.62,2.62,0,0,1,.73,1.09,4,4,0,0,1,.26,1.41v4.47a.55.55,0,0,0,.3.55c.21.09.42.17.64.24a2.93,2.93,0,0,1,.37.14.22.22,0,0,1,.14.21.17.17,0,0,1-.1.17.68.68,0,0,1-.34.06,5.68,5.68,0,0,1-.69,0l-.45,0a4.37,4.37,0,0,0-.59,0,5.16,5.16,0,0,0-.61,0l-.51,0a6.16,6.16,0,0,1-.7,0,.75.75,0,0,1-.33-.06.17.17,0,0,1-.12-.17.23.23,0,0,1,.15-.24,1.85,1.85,0,0,1,.37-.11,2.71,2.71,0,0,0,.64-.23.57.57,0,0,0,.3-.56v-4.42a2,2,0,0,0-.24-.95,2.22,2.22,0,0,0-.65-.74,1.35,1.35,0,0,0-.87-.3,3.4,3.4,0,0,0-1,.14,2.45,2.45,0,0,0-.89.43,1.76,1.76,0,0,0-.61,1.51v4.33a.56.56,0,0,0,.33.56,3.37,3.37,0,0,0,.65.23,1,1,0,0,1,.37.13.22.22,0,0,1,.15.22.17.17,0,0,1-.12.17.69.69,0,0,1-.33.06,6.16,6.16,0,0,1-.7,0l-.47,0a5,5,0,0,0-.62,0,5.22,5.22,0,0,0-.62,0l-.51,0a5.82,5.82,0,0,1-.69,0,.75.75,0,0,1-.31-.06.17.17,0,0,1-.13-.17.19.19,0,0,1,.16-.22L430,200c.22-.07.43-.15.64-.24a.54.54,0,0,0,.33-.55v-4.42a2,2,0,0,0-.24-.95,2.19,2.19,0,0,0-.64-.74,1.39,1.39,0,0,0-.87-.3,3.38,3.38,0,0,0-1,.14,2.45,2.45,0,0,0-.89.43,1.73,1.73,0,0,0-.58,1.51v4.33a.55.55,0,0,0,.3.55c.21.09.42.17.64.24l.33.13a.2.2,0,0,1,.17.22.17.17,0,0,1-.13.17.66.66,0,0,1-.31.06,5.82,5.82,0,0,1-.69,0l-.47,0a6.12,6.12,0,0,0-1.21,0l-.49,0A5.77,5.77,0,0,1,424.16,200.55Zm20.75.24a3.84,3.84,0,0,1-2.1-.56,3.89,3.89,0,0,1-1.41-1.61,5.38,5.38,0,0,1-.5-2.41,4.36,4.36,0,0,1,.57-2.21,4.57,4.57,0,0,1,1.55-1.6,3.89,3.89,0,0,1,2.12-.62,3.33,3.33,0,0,1,1.54.35,2.48,2.48,0,0,1,1.07.93,2.55,2.55,0,0,1,.38,1.38.57.57,0,0,1-.65.64h-4.63a.53.53,0,0,0-.44.16,1.11,1.11,0,0,0-.11.62,3.8,3.8,0,0,0,.45,1.84A3.9,3.9,0,0,0,444,199a3.15,3.15,0,0,0,1.7.49,3,3,0,0,0,1.18-.23,3,3,0,0,0,1-.71l.14-.13a.18.18,0,0,1,.1,0c.12,0,.19.07.19.21a1.54,1.54,0,0,1-.4.89,3.59,3.59,0,0,1-.8.69,4.09,4.09,0,0,1-2.14.6Zm-2-6.35h2l.89,0c.25,0,.5,0,.73-.09a.2.2,0,0,0,.14-.14.92.92,0,0,0,0-.33,1.24,1.24,0,0,0-.57-1,2.09,2.09,0,0,0-1.33-.44,2,2,0,0,0-1,.29,2.82,2.82,0,0,0-.84.69,1.38,1.38,0,0,0-.33.84C442.62,194.36,442.71,194.44,442.9,194.44Zm6.86,6.11a.81.81,0,0,1-.33-.06.18.18,0,0,1-.11-.17c0-.12,0-.2.13-.22a2.94,2.94,0,0,1,.37-.13,2.72,2.72,0,0,0,.62-.23.57.57,0,0,0,.32-.56v-4.51a3,3,0,0,0-.13-1,.85.85,0,0,0-.68-.55l-.16-.09a.24.24,0,0,1-.06-.18c0-.16.07-.24.2-.25a5,5,0,0,0,1.24-.46,8.48,8.48,0,0,0,.94-.62l.13-.07.12,0a.08.08,0,0,1,.07,0,.11.11,0,0,1,0,.09,5.71,5.71,0,0,1-.06.6c0,.31-.05.56-.05.76a.76.76,0,0,0,0,.15l0,.09a5.71,5.71,0,0,1,1.64-1.05,4.91,4.91,0,0,1,1.9-.36,2.23,2.23,0,0,1,1.77.85,3.17,3.17,0,0,1,.7,2.08v4.47a.55.55,0,0,0,.3.55c.21.09.42.17.64.24l.34.14a.25.25,0,0,1,.17.25q0,.12-.15.15a1.67,1.67,0,0,1-.29,0,5.5,5.5,0,0,1-.68,0l-.46,0a4.71,4.71,0,0,0-.61,0,5.22,5.22,0,0,0-.62,0l-.5,0a5.5,5.5,0,0,1-.68,0,2,2,0,0,1-.29,0q-.15,0-.15-.15a.26.26,0,0,1,.15-.25l.36-.14a5.87,5.87,0,0,0,.63-.24.54.54,0,0,0,.31-.55v-4.42a1.89,1.89,0,0,0-.54-1.43,2,2,0,0,0-1.43-.53,3.77,3.77,0,0,0-1.4.24,4.39,4.39,0,0,0-1,.59.48.48,0,0,0-.13.22.84.84,0,0,0,0,.27v5.06a.57.57,0,0,0,.3.56,3.07,3.07,0,0,0,.64.23c.33.09.5.2.5.35a.18.18,0,0,1-.11.17.69.69,0,0,1-.33.06,6,6,0,0,1-.69,0l-.47,0a4.6,4.6,0,0,0-.61,0,4.75,4.75,0,0,0-.6,0l-.49,0A5.63,5.63,0,0,1,449.76,200.55Zm14.74.23a2.2,2.2,0,0,1-1.67-.63,2.64,2.64,0,0,1-.6-1.87V193.4a.23.23,0,0,0-.14-.23,1.17,1.17,0,0,0-.57-.09h-.13a.23.23,0,0,1-.19-.13.72.72,0,0,1-.07-.28.26.26,0,0,1,.06-.12.59.59,0,0,1,.1-.11c.29-.2.55-.4.78-.59s.47-.39.66-.57.37-.37.5-.52l.19-.18a.27.27,0,0,1,.18-.08.54.54,0,0,1,.22.05.15.15,0,0,1,.07.18l-.1,1a.31.31,0,0,0,.1.32.76.76,0,0,0,.41.09h2.51c.06,0,.11,0,.15.13a.79.79,0,0,1,.07.32,1.21,1.21,0,0,1-.07.37c0,.11-.09.17-.15.17h-2.17a1.75,1.75,0,0,0-.72.1c-.11,0-.16.22-.16.49v4.14a2.14,2.14,0,0,0,.37,1.33,1.27,1.27,0,0,0,1.07.48,3.49,3.49,0,0,0,1-.1,2.24,2.24,0,0,0,.65-.28s.05-.05.08-.05a.13.13,0,0,1,.12.1.46.46,0,0,1,0,.21c0,.06-.12.2-.37.42a4.24,4.24,0,0,1-.94.59A2.91,2.91,0,0,1,464.5,200.78Z"/><path class="cls-5" d="M91.91,120.85c-11.41,0-22.83,35.7-22.83,71.4S80.53,263.66,92,263.66"/><path class="cls-7" d="M91.91,120.85c-11.41,0-22.83,35.7-22.83,71.4a179.07,179.07,0,0,0,2,26.22c.32,2.09.66,4.15,1,6.16l.28,1.46"/><path class="cls-8" d="M61.58,231.26,87.2,254.5l-4-33.58Z"/><path class="cls-5" d="M232.23,120.85c11.42,0,22.82,35.7,22.83,71.4s-11.39,71.41-22.77,71.41"/><path class="cls-7" d="M251.79,158.43l.27,1.44c.38,2,.72,4.07,1,6.16a179.19,179.19,0,0,1,2,26.22c0,35.7-11.39,71.41-22.77,71.41"/><path class="cls-8" d="M262.59,153.28,237,130l4,33.59Z"/><path class="cls-5" d="M232.23,120.85c24.47,0,35.21,14.15,48.94,28.3s30.46,28.3,60.91,28.3"/><path class="cls-9" d="M232.23,120.85c24.47,0,35.21,14.15,48.94,28.3a140.64,140.64,0,0,0,11,10.39c2,1.66,4.06,3.26,6.25,4.78l.82.57.81.54"/><path class="cls-10" d="M296.62,176.51l35.23-2-28.32-20.17Z"/></g></svg>