<?xml version="1.0" encoding="utf-8"?>
<!-- Generator: Adobe Illustrator 23.1.1, SVG Export Plug-In . SVG Version: 6.00 Build 0)  -->
<svg version="1.1" id="Layer_1" xmlns="http://www.w3.org/2000/svg" xmlns:xlink="http://www.w3.org/1999/xlink" x="0px" y="0px"
	 viewBox="0 0 565 352" style="enable-background:new 0 0 565 352;" xml:space="preserve">
<style type="text/css">
	.st0{clip-path:url(#SVGID_2_);}
	.st1{fill-rule:evenodd;clip-rule:evenodd;fill-opacity:0;}
	.st2{fill-rule:evenodd;clip-rule:evenodd;fill:#FF9900;}
	.st3{fill-rule:evenodd;clip-rule:evenodd;fill:#CB7A00;}
	.st4{fill:none;stroke:#233A44;stroke-width:4;stroke-linejoin:round;stroke-miterlimit:10;}
	.st5{fill:none;stroke:#00FF00;stroke-width:8;stroke-linejoin:round;stroke-miterlimit:10;}
	.st6{fill-rule:evenodd;clip-rule:evenodd;fill:#00FF00;stroke:#00FF00;stroke-width:8;stroke-miterlimit:10;}
	.st7{fill:none;stroke:#9900FF;stroke-width:8;stroke-linejoin:round;stroke-miterlimit:10;}
	.st8{fill-rule:evenodd;clip-rule:evenodd;fill:#9900FF;stroke:#9900FF;stroke-width:8;stroke-miterlimit:10;}
</style>
<g>
	<defs>
		<rect id="SVGID_1_" x="-111" y="-120" width="1280" height="960"/>
	</defs>
	<clipPath id="SVGID_2_">
		<use xlink:href="#SVGID_1_"  style="overflow:visible;"/>
	</clipPath>
	<g class="st0">
		<path class="st1" d="M-111-120h1280v960H-111V-120z"/>
		<path class="st2" d="M218.8,40.4L218.8,40.4c0,4.4-3.5,7.9-7.9,7.9v-7.9l0,0c0,2.2-1.8,4-4,4c-2.2,0-4-1.8-4-4v7.9H73.1l0,0
			c-4.4,0-7.9,3.5-7.9,7.9v94.9c0,4.4,3.5,7.9,7.9,7.9s7.9-3.5,7.9-7.9v-7.9h129.9c4.4,0,7.9-3.5,7.9-7.9V40.4z M73.1,64.2
			c4.4,0,7.9-3.5,7.9-7.9c0-2.2-1.8-4-4-4s-4,1.8-4,4V64.2z"/>
		<path class="st3" d="M73.1,64.2c4.4,0,7.9-3.5,7.9-7.9c0-2.2-1.8-4-4-4s-4,1.8-4,4V64.2z M210.9,48.4c4.4,0,7.9-3.5,7.9-7.9
			s-3.5-7.9-7.9-7.9s-7.9,3.5-7.9,7.9c0,2.2,1.8,4,4,4c2.2,0,4-1.8,4-4V48.4z"/>
		<path class="st1" d="M65.2,56.3c0-4.4,3.5-7.9,7.9-7.9H203v-7.9l0,0c0-4.4,3.5-7.9,7.9-7.9s7.9,3.5,7.9,7.9v94.9
			c0,4.4-3.5,7.9-7.9,7.9H81v7.9c0,4.4-3.5,7.9-7.9,7.9s-7.9-3.5-7.9-7.9V56.3z M203,48.4h7.9c4.4,0,7.9-3.5,7.9-7.9 M210.9,48.4
			v-7.9l0,0c0,2.2-1.8,4-4,4c-2.2,0-4-1.8-4-4 M73.1,64.2v-7.9l0,0c0-2.2,1.8-4,4-4s4,1.8,4,4C81,60.6,77.5,64.2,73.1,64.2
			s-7.9-3.5-7.9-7.9 M81,56.3v87"/>
		<path class="st4" d="M65.2,56.3c0-4.4,3.5-7.9,7.9-7.9H203v-7.9l0,0c0-4.4,3.5-7.9,7.9-7.9s7.9,3.5,7.9,7.9v94.9
			c0,4.4-3.5,7.9-7.9,7.9H81v7.9c0,4.4-3.5,7.9-7.9,7.9s-7.9-3.5-7.9-7.9V56.3z M203,48.4h7.9c4.4,0,7.9-3.5,7.9-7.9 M210.9,48.4
			v-7.9l0,0c0,2.2-1.8,4-4,4c-2.2,0-4-1.8-4-4 M73.1,64.2v-7.9l0,0c0-2.2,1.8-4,4-4s4,1.8,4,4C81,60.6,77.5,64.2,73.1,64.2
			s-7.9-3.5-7.9-7.9 M81,56.3v87"/>
		<path d="M91.3,90c-0.2,0-0.4,0-0.5-0.1c-0.1,0-0.2-0.1-0.2-0.2c0-0.2,0.3-0.3,0.8-0.4c0.6-0.1,1-0.3,1.3-0.5
			c0.3-0.3,0.4-0.7,0.4-1.3V77.3c0-0.7-0.1-1.3-0.3-1.7c-0.2-0.4-0.6-0.6-1.2-0.7c-0.3-0.1-0.5-0.1-0.6-0.2
			c-0.1-0.1-0.2-0.2-0.2-0.3c0-0.1,0.1-0.2,0.2-0.2c0.1,0,0.3-0.1,0.5-0.1c0.4,0,0.7,0,1,0c0.2,0,0.4,0,0.6,0c0.2,0,0.5,0,0.8,0
			c0.3,0,0.6,0,1,0c0.3,0,0.6-0.1,0.9-0.1c0.3,0,0.6,0,0.8,0c1.8,0,3.3,0.4,4.4,1.1c1.1,0.8,1.7,1.8,1.7,3.1c0,1-0.2,1.9-0.6,2.7
			c-0.4,0.8-1,1.5-1.8,2c-0.8,0.5-1.8,0.7-3,0.7c-0.3,0-0.6-0.1-0.8-0.2c-0.2-0.1-0.3-0.2-0.3-0.3c0-0.1,0-0.1,0.1-0.2
			c0.1-0.1,0.2-0.1,0.3-0.1c0.1,0,0.2,0,0.4,0c0.2,0,0.4,0,0.7,0c1,0,1.7-0.4,2.2-1.2c0.5-0.8,0.7-1.9,0.7-3.3
			c0-1.3-0.4-2.2-1.1-2.8c-0.8-0.6-1.7-0.9-2.9-0.9c-0.4,0-0.8,0.1-1.1,0.2c-0.3,0.2-0.4,0.4-0.4,0.8v11.5c0,0.6,0.1,1,0.4,1.4
			c0.2,0.3,0.7,0.6,1.2,0.7c0.3,0.1,0.5,0.1,0.6,0.2c0.1,0.1,0.2,0.2,0.2,0.3c0,0.1-0.1,0.2-0.2,0.2C97.1,90,97,90,96.8,90
			c-0.4,0-0.8,0-1,0c-0.2,0-0.4-0.1-0.6-0.1c-0.2,0-0.4,0-0.7,0c-0.4,0-0.8,0-1.1,0c-0.3,0-0.6,0-0.9,0.1C92.1,90,91.7,90,91.3,90z
			 M104.4,89.9c-0.2,0-0.3,0-0.4-0.1c-0.1,0-0.1-0.1-0.1-0.2c0-0.1,0-0.2,0.1-0.2c0.1,0,0.2-0.1,0.4-0.1c0.3-0.1,0.5-0.2,0.7-0.3
			c0.2-0.2,0.2-0.3,0.2-0.6v-5.2c0-0.4-0.1-0.8-0.2-1.1c-0.1-0.3-0.4-0.5-0.8-0.6c-0.1,0-0.1-0.1-0.2-0.1c0-0.1-0.1-0.1-0.1-0.2
			c0-0.2,0.1-0.2,0.2-0.3c0.4-0.1,0.8-0.3,1.3-0.6c0.5-0.2,0.8-0.5,1.1-0.6c0.1-0.1,0.2-0.1,0.2-0.1c0.1,0,0.1,0,0.1,0
			c0.1,0,0.1,0.1,0.1,0.2c0,0.1,0,0.2,0,0.4c0,0.2,0,0.4,0,0.7c0,0.2,0,0.5,0,0.8c0,0,0,0.1,0,0.1c0.3-0.3,0.5-0.6,0.8-0.8
			c0.3-0.2,0.6-0.4,1-0.6c0.3-0.1,0.7-0.2,1-0.2c0.3,0,0.6,0.1,0.8,0.2c0.2,0.1,0.3,0.3,0.3,0.5c0,0.2,0,0.3-0.1,0.5
			c-0.1,0.2-0.2,0.4-0.3,0.5c-0.1,0.1-0.3,0.2-0.5,0.2c-0.1,0-0.2,0-0.3-0.1c-0.1,0-0.2-0.1-0.4-0.2c-0.1,0-0.2-0.1-0.4-0.1
			c-0.1-0.1-0.3-0.1-0.4-0.1c-0.4,0-0.8,0.1-1.1,0.4c-0.4,0.3-0.5,0.8-0.5,1.6v4.9c0,0.2,0.1,0.4,0.3,0.5c0.2,0.1,0.5,0.3,1,0.4
			c0.2,0.1,0.3,0.1,0.4,0.2c0.1,0,0.1,0.1,0.1,0.2c0,0.2-0.2,0.3-0.5,0.3c-0.5,0-0.8,0-1.1-0.1c-0.2,0-0.6-0.1-1-0.1
			c-0.3,0-0.5,0-0.7,0c-0.2,0-0.3,0-0.5,0C105,89.9,104.8,89.9,104.4,89.9z M116.4,90.2c-0.9,0-1.6-0.2-2.3-0.6
			c-0.7-0.4-1.2-1.1-1.5-1.8c-0.4-0.8-0.5-1.7-0.5-2.8c0-0.9,0.2-1.8,0.6-2.5c0.4-0.8,1-1.4,1.7-1.8c0.7-0.5,1.5-0.7,2.3-0.7
			c0.6,0,1.2,0.1,1.7,0.4c0.5,0.2,0.9,0.6,1.2,1.1c0.3,0.5,0.4,1,0.4,1.6c0,0.5-0.2,0.7-0.7,0.7h-5.1c-0.2,0-0.4,0.1-0.5,0.2
			c-0.1,0.1-0.1,0.3-0.1,0.7c0,0.8,0.2,1.5,0.5,2.1c0.3,0.6,0.8,1.1,1.3,1.5c0.6,0.4,1.2,0.6,1.9,0.6c0.5,0,0.9-0.1,1.3-0.3
			c0.4-0.2,0.7-0.5,1-0.8c0.1-0.1,0.1-0.1,0.2-0.1c0,0,0.1,0,0.1,0c0.1,0,0.2,0.1,0.2,0.2c0,0.3-0.1,0.6-0.4,1
			c-0.2,0.3-0.5,0.6-0.9,0.8c-0.3,0.2-0.7,0.4-1.1,0.5C117.2,90.2,116.8,90.2,116.4,90.2z M114.2,83h2.2c0.4,0,0.7,0,1,0
			c0.3,0,0.5-0.1,0.8-0.1c0.1,0,0.1-0.1,0.2-0.2c0-0.1,0-0.2,0-0.4c0-0.5-0.2-0.8-0.6-1.2c-0.4-0.3-0.9-0.5-1.5-0.5
			c-0.4,0-0.7,0.1-1.1,0.3c-0.4,0.2-0.7,0.5-0.9,0.8c-0.2,0.3-0.4,0.6-0.4,1C113.9,82.9,114,83,114.2,83z M124.1,90.2
			c-0.5,0-1-0.1-1.4-0.2c-0.4-0.2-0.8-0.4-1.1-0.6c-0.1-0.2-0.1-0.5-0.2-0.9c0-0.4-0.1-0.8-0.1-1c0-0.1,0.1-0.2,0.3-0.2
			c0.1,0,0.1,0,0.2,0c0.1,0,0.1,0.1,0.1,0.1c0.2,0.8,0.5,1.4,1,1.7c0.5,0.3,0.9,0.5,1.4,0.5c0.5,0,0.9-0.2,1.2-0.5
			c0.3-0.3,0.5-0.7,0.5-1.2c0-0.4-0.1-0.8-0.4-1.1c-0.3-0.3-0.8-0.7-1.5-1.1c-0.5-0.3-1-0.7-1.3-1c-0.3-0.3-0.6-0.6-0.7-0.9
			c-0.1-0.3-0.2-0.7-0.2-1.1c0-0.5,0.1-1,0.4-1.4c0.2-0.4,0.6-0.8,1.1-1c0.5-0.2,1.1-0.4,1.8-0.4c0.5,0,0.9,0.1,1.2,0.2
			c0.3,0.1,0.6,0.2,0.7,0.3c0.1,0.2,0.2,0.5,0.3,0.8c0.1,0.4,0.1,0.7,0.1,1.1c0,0.1-0.1,0.2-0.2,0.2c-0.1,0-0.2,0-0.3,0
			c-0.1,0-0.1-0.1-0.2-0.2c-0.2-0.5-0.5-0.9-0.8-1.2c-0.3-0.3-0.7-0.4-1.2-0.4c-0.4,0-0.8,0.1-1.1,0.4c-0.3,0.2-0.5,0.6-0.5,1.1
			c0,0.4,0.1,0.7,0.3,1c0.2,0.3,0.7,0.6,1.3,1c0.9,0.5,1.6,1,2.1,1.5c0.5,0.5,0.7,1.1,0.7,1.8c0,0.9-0.3,1.6-1,2.1
			C126,89.9,125.1,90.2,124.1,90.2z M133.5,90.2c-0.9,0-1.6-0.2-2.3-0.6c-0.7-0.4-1.2-1.1-1.5-1.8c-0.4-0.8-0.5-1.7-0.5-2.8
			c0-0.9,0.2-1.8,0.6-2.5c0.4-0.8,1-1.4,1.7-1.8c0.7-0.5,1.5-0.7,2.3-0.7c0.6,0,1.2,0.1,1.7,0.4c0.5,0.2,0.9,0.6,1.2,1.1
			c0.3,0.5,0.4,1,0.4,1.6c0,0.5-0.2,0.7-0.7,0.7h-5.1c-0.2,0-0.4,0.1-0.5,0.2c-0.1,0.1-0.1,0.3-0.1,0.7c0,0.8,0.2,1.5,0.5,2.1
			c0.3,0.6,0.8,1.1,1.3,1.5c0.6,0.4,1.2,0.6,1.9,0.6c0.5,0,0.9-0.1,1.3-0.3c0.4-0.2,0.7-0.5,1-0.8c0.1-0.1,0.1-0.1,0.2-0.1
			c0,0,0.1,0,0.1,0c0.1,0,0.2,0.1,0.2,0.2c0,0.3-0.1,0.6-0.4,1c-0.2,0.3-0.5,0.6-0.9,0.8c-0.3,0.2-0.7,0.4-1.1,0.5
			C134.4,90.2,133.9,90.2,133.5,90.2z M131.3,83h2.2c0.4,0,0.7,0,1,0c0.3,0,0.5-0.1,0.8-0.1c0.1,0,0.1-0.1,0.2-0.2
			c0-0.1,0-0.2,0-0.4c0-0.5-0.2-0.8-0.6-1.2c-0.4-0.3-0.9-0.5-1.5-0.5c-0.4,0-0.7,0.1-1.1,0.3c-0.4,0.2-0.7,0.5-0.9,0.8
			c-0.2,0.3-0.4,0.6-0.4,1C131,82.9,131.1,83,131.3,83z M138.8,89.9c-0.1,0-0.3,0-0.4-0.1c-0.1,0-0.1-0.1-0.1-0.2
			c0-0.1,0-0.2,0.1-0.2c0.1,0,0.2-0.1,0.4-0.1c0.2-0.1,0.5-0.2,0.7-0.3c0.2-0.1,0.3-0.3,0.3-0.6v-5.2c0-0.4,0-0.8-0.1-1.1
			c-0.1-0.3-0.3-0.5-0.8-0.6c-0.1,0-0.1-0.1-0.2-0.1c0,0-0.1-0.1-0.1-0.2c0-0.2,0.1-0.3,0.2-0.3c0.6-0.1,1-0.3,1.4-0.5
			c0.4-0.2,0.7-0.4,1-0.7c0.1,0,0.1-0.1,0.1-0.1c0,0,0.1,0,0.1,0c0,0,0.1,0,0.1,0c0,0,0,0.1,0,0.1c0,0.1,0,0.3-0.1,0.7
			c0,0.3-0.1,0.6-0.1,0.9c0,0.1,0,0.1,0,0.2c0,0.1,0,0.1,0,0.1c0.6-0.5,1.2-0.9,1.8-1.2c0.6-0.3,1.3-0.4,2.1-0.4
			c0.8,0,1.4,0.3,1.9,1c0.5,0.6,0.8,1.4,0.8,2.4v5.1c0,0.3,0.1,0.5,0.3,0.6c0.2,0.1,0.5,0.2,0.7,0.3c0.1,0.1,0.3,0.1,0.4,0.2
			c0.1,0.1,0.2,0.1,0.2,0.3c0,0.1-0.1,0.2-0.2,0.2c-0.1,0-0.2,0-0.3,0c-0.3,0-0.6,0-0.8,0c-0.2,0-0.3,0-0.5,0c-0.2,0-0.4,0-0.7,0
			c-0.3,0-0.5,0-0.7,0c-0.2,0-0.4,0-0.5,0c-0.2,0-0.4,0-0.8,0c-0.1,0-0.2,0-0.3,0c-0.1,0-0.2-0.1-0.2-0.2c0-0.1,0.1-0.2,0.2-0.3
			c0.1-0.1,0.3-0.1,0.4-0.2c0.2-0.1,0.5-0.2,0.7-0.3c0.2-0.1,0.3-0.3,0.3-0.6v-5c0-0.7-0.2-1.2-0.6-1.6c-0.4-0.4-0.9-0.6-1.6-0.6
			c-0.6,0-1.1,0.1-1.5,0.3c-0.4,0.2-0.8,0.4-1.1,0.7c-0.1,0.1-0.1,0.1-0.1,0.2c0,0.1,0,0.2,0,0.3v5.8c0,0.3,0.1,0.5,0.3,0.6
			c0.2,0.1,0.5,0.2,0.7,0.3c0.4,0.1,0.5,0.2,0.5,0.4c0,0.1,0,0.2-0.1,0.2c-0.1,0-0.2,0.1-0.4,0.1c-0.3,0-0.6,0-0.8,0
			c-0.2,0-0.4,0-0.5,0c-0.2,0-0.4,0-0.7,0c-0.3,0-0.5,0-0.7,0c-0.2,0-0.3,0-0.5,0C139.4,89.9,139.1,89.9,138.8,89.9z M155,90.2
			c-0.8,0-1.4-0.2-1.8-0.7c-0.4-0.5-0.7-1.2-0.7-2.1v-5.6c0-0.1-0.1-0.2-0.2-0.3c-0.1-0.1-0.3-0.1-0.6-0.1h-0.1
			c-0.1,0-0.1-0.1-0.2-0.2c-0.1-0.1-0.1-0.2-0.1-0.3c0,0,0-0.1,0.1-0.1c0.1-0.1,0.1-0.1,0.1-0.1c0.3-0.2,0.6-0.5,0.9-0.7
			c0.3-0.2,0.5-0.4,0.7-0.7c0.2-0.2,0.4-0.4,0.5-0.6c0.1-0.1,0.2-0.2,0.2-0.2c0.1-0.1,0.1-0.1,0.2-0.1c0.1,0,0.2,0,0.2,0.1
			c0.1,0,0.1,0.1,0.1,0.2l-0.1,1.1c0,0.2,0,0.3,0.1,0.4c0.1,0.1,0.3,0.1,0.5,0.1h2.8c0.1,0,0.1,0.1,0.2,0.2c0.1,0.1,0.1,0.2,0.1,0.4
			c0,0.1,0,0.3-0.1,0.4c0,0.1-0.1,0.2-0.2,0.2h-2.4c-0.4,0-0.7,0-0.8,0.1c-0.1,0.1-0.2,0.2-0.2,0.6v4.7c0,0.6,0.1,1.1,0.4,1.5
			c0.3,0.4,0.7,0.5,1.2,0.5c0.5,0,0.8,0,1.1-0.1c0.3-0.1,0.5-0.2,0.7-0.3c0,0,0.1,0,0.1,0c0.1,0,0.1,0,0.1,0.1c0,0.1,0,0.2,0,0.2
			c0,0.1-0.1,0.2-0.4,0.5c-0.3,0.2-0.6,0.5-1,0.7C155.9,90.1,155.5,90.2,155,90.2z"/>
		<path d="M95.1,119.2c-0.8,0-1.5-0.2-2.2-0.6c-0.6-0.4-1.2-1-1.5-1.7c-0.4-0.7-0.6-1.5-0.6-2.4c0-1,0.2-2,0.7-2.8
			c0.5-0.9,1.1-1.5,1.8-2c0.8-0.5,1.6-0.8,2.5-0.8c1,0,2,0.3,2.7,0.8c0.2,0.1,0.3,0.3,0.3,0.5c0,0.1-0.1,0.3-0.2,0.4
			c-0.1,0.2-0.2,0.3-0.4,0.4c-0.2,0.1-0.3,0.2-0.5,0.2c-0.1,0-0.2,0-0.2-0.1c-0.1-0.1-0.2-0.1-0.3-0.2c-0.4-0.3-0.8-0.5-1.2-0.8
			c-0.4-0.2-0.8-0.4-1.1-0.4c-0.8,0-1.4,0.4-1.9,1.1c-0.5,0.7-0.7,1.7-0.7,2.9c0,0.8,0.2,1.4,0.5,2c0.3,0.6,0.8,1.1,1.3,1.4
			c0.6,0.4,1.2,0.5,1.8,0.5c0.5,0,0.9-0.1,1.2-0.2c0.3-0.2,0.7-0.4,1.1-0.8c0,0,0.1-0.1,0.1-0.1c0.1,0,0.1,0,0.1,0
			c0.2,0,0.3,0.1,0.3,0.3c0,0.1,0,0.2-0.1,0.3c-0.1,0.1-0.1,0.2-0.3,0.4c-0.3,0.3-0.6,0.6-0.9,0.8c-0.4,0.2-0.7,0.4-1.2,0.5
			C96.1,119.2,95.6,119.2,95.1,119.2z M104.9,119.2c-0.9,0-1.7-0.2-2.4-0.6c-0.7-0.4-1.3-1-1.7-1.7c-0.4-0.7-0.6-1.6-0.6-2.5
			c0-0.7,0.1-1.3,0.4-2c0.3-0.6,0.6-1.2,1.1-1.8c0.5-0.5,1.1-1,1.7-1.3c0.6-0.3,1.3-0.5,2.1-0.5c0.9,0,1.8,0.2,2.5,0.7
			c0.8,0.4,1.3,1,1.8,1.8c0.4,0.7,0.7,1.5,0.7,2.4c0,0.9-0.2,1.8-0.6,2.6c-0.4,0.8-1,1.5-1.8,2C107.1,118.9,106.1,119.2,104.9,119.2
			z M105.4,118.5c0.5,0,1-0.1,1.5-0.3c0.4-0.2,0.8-0.5,1-1c0.2-0.4,0.3-0.8,0.4-1.3c0.1-0.5,0.1-1,0.1-1.5c0-0.8-0.1-1.5-0.4-2.2
			c-0.3-0.7-0.7-1.3-1.2-1.8c-0.5-0.5-1.1-0.7-1.8-0.7c-0.4,0-0.8,0.1-1.2,0.2c-0.3,0.1-0.7,0.4-1,0.8c-0.3,0.4-0.5,0.9-0.6,1.5
			c-0.1,0.6-0.1,1.1-0.1,1.7c0,0.8,0.1,1.5,0.4,2.2c0.3,0.7,0.7,1.3,1.2,1.7C104.2,118.2,104.8,118.5,105.4,118.5z M112.2,118.9
			c-0.1,0-0.3,0-0.4-0.1c-0.1,0-0.1-0.1-0.1-0.2c0-0.1,0-0.2,0.1-0.2c0.1,0,0.2-0.1,0.4-0.1c0.2-0.1,0.5-0.2,0.7-0.3
			c0.2-0.1,0.3-0.3,0.3-0.6v-5.2c0-0.4,0-0.8-0.1-1.1c-0.1-0.3-0.3-0.5-0.8-0.6c-0.1,0-0.1-0.1-0.2-0.1c0,0-0.1-0.1-0.1-0.2
			c0-0.2,0.1-0.3,0.2-0.3c0.6-0.1,1-0.3,1.4-0.5c0.4-0.2,0.7-0.4,1-0.7c0.1,0,0.1-0.1,0.1-0.1c0,0,0.1,0,0.1,0c0,0,0.1,0,0.1,0
			c0,0,0,0.1,0,0.1c0,0.1,0,0.3-0.1,0.7s-0.1,0.6-0.1,0.9c0,0.1,0,0.1,0,0.2c0,0.1,0,0.1,0,0.1c0.6-0.5,1.2-0.9,1.8-1.2
			c0.6-0.3,1.3-0.4,2.1-0.4c0.8,0,1.4,0.3,1.9,1c0.5,0.6,0.8,1.4,0.8,2.4v5.1c0,0.3,0.1,0.5,0.3,0.6c0.2,0.1,0.5,0.2,0.7,0.3
			c0.1,0.1,0.3,0.1,0.4,0.2c0.1,0.1,0.2,0.1,0.2,0.3c0,0.1-0.1,0.2-0.2,0.2c-0.1,0-0.2,0-0.3,0c-0.3,0-0.6,0-0.8,0
			c-0.2,0-0.3,0-0.5,0c-0.2,0-0.4,0-0.7,0c-0.3,0-0.5,0-0.7,0c-0.2,0-0.4,0-0.5,0c-0.2,0-0.4,0-0.8,0c-0.1,0-0.2,0-0.3,0
			c-0.1,0-0.2-0.1-0.2-0.2c0-0.1,0.1-0.2,0.2-0.3c0.1-0.1,0.3-0.1,0.4-0.2c0.2-0.1,0.5-0.2,0.7-0.3c0.2-0.1,0.3-0.3,0.3-0.6v-5
			c0-0.7-0.2-1.2-0.6-1.6c-0.4-0.4-0.9-0.6-1.6-0.6c-0.6,0-1.1,0.1-1.5,0.3c-0.4,0.2-0.8,0.4-1.1,0.7c-0.1,0.1-0.1,0.1-0.1,0.2
			c0,0.1,0,0.2,0,0.3v5.8c0,0.3,0.1,0.5,0.3,0.6c0.2,0.1,0.5,0.2,0.7,0.3c0.4,0.1,0.5,0.2,0.5,0.4c0,0.1,0,0.2-0.1,0.2
			c-0.1,0-0.2,0.1-0.4,0.1c-0.3,0-0.6,0-0.8,0c-0.2,0-0.4,0-0.5,0c-0.2,0-0.4,0-0.7,0c-0.3,0-0.5,0-0.7,0c-0.2,0-0.3,0-0.5,0
			C112.8,118.9,112.6,118.9,112.2,118.9z M127.3,119.2c-0.5,0-1-0.1-1.4-0.2c-0.4-0.2-0.8-0.4-1.1-0.6c-0.1-0.2-0.1-0.5-0.2-0.9
			c0-0.4-0.1-0.8-0.1-1c0-0.1,0.1-0.2,0.3-0.2c0.1,0,0.1,0,0.2,0c0.1,0,0.1,0.1,0.1,0.1c0.2,0.8,0.5,1.4,1,1.7
			c0.5,0.3,0.9,0.5,1.4,0.5c0.5,0,0.9-0.2,1.2-0.5c0.3-0.3,0.5-0.7,0.5-1.2c0-0.4-0.1-0.8-0.4-1.1c-0.3-0.3-0.8-0.7-1.5-1.1
			c-0.5-0.3-1-0.7-1.3-1c-0.3-0.3-0.6-0.6-0.7-0.9c-0.1-0.3-0.2-0.7-0.2-1.1c0-0.5,0.1-1,0.4-1.4c0.2-0.4,0.6-0.8,1.1-1
			c0.5-0.2,1.1-0.4,1.8-0.4c0.5,0,0.9,0.1,1.2,0.2c0.3,0.1,0.6,0.2,0.7,0.3c0.1,0.2,0.2,0.5,0.3,0.8c0.1,0.4,0.1,0.7,0.1,1.1
			c0,0.1-0.1,0.2-0.2,0.2c-0.1,0-0.2,0-0.3,0c-0.1,0-0.1-0.1-0.2-0.2c-0.2-0.5-0.5-0.9-0.8-1.2c-0.3-0.3-0.7-0.4-1.2-0.4
			c-0.4,0-0.8,0.1-1.1,0.4c-0.3,0.2-0.5,0.6-0.5,1.1c0,0.4,0.1,0.7,0.3,1c0.2,0.3,0.7,0.6,1.3,1c0.9,0.5,1.6,1,2.1,1.5
			c0.5,0.5,0.7,1.1,0.7,1.8c0,0.9-0.3,1.6-1,2.1C129.2,118.9,128.4,119.2,127.3,119.2z M136.1,119.2c-0.8,0-1.4-0.2-1.8-0.7
			c-0.4-0.5-0.7-1.2-0.7-2.1v-5.6c0-0.1-0.1-0.2-0.2-0.3c-0.1-0.1-0.3-0.1-0.6-0.1h-0.1c-0.1,0-0.1-0.1-0.2-0.2
			c-0.1-0.1-0.1-0.2-0.1-0.3c0,0,0-0.1,0.1-0.1c0.1-0.1,0.1-0.1,0.1-0.1c0.3-0.2,0.6-0.5,0.9-0.7c0.3-0.2,0.5-0.4,0.7-0.7
			c0.2-0.2,0.4-0.4,0.5-0.6c0.1-0.1,0.2-0.2,0.2-0.2c0.1-0.1,0.1-0.1,0.2-0.1c0.1,0,0.2,0,0.2,0.1c0.1,0,0.1,0.1,0.1,0.2l-0.1,1.1
			c0,0.2,0,0.3,0.1,0.4c0.1,0.1,0.3,0.1,0.5,0.1h2.8c0.1,0,0.1,0.1,0.2,0.2c0.1,0.1,0.1,0.2,0.1,0.4c0,0.1,0,0.3-0.1,0.4
			c0,0.1-0.1,0.2-0.2,0.2h-2.4c-0.4,0-0.7,0-0.8,0.1c-0.1,0.1-0.2,0.2-0.2,0.6v4.7c0,0.6,0.1,1.1,0.4,1.5c0.3,0.4,0.7,0.5,1.2,0.5
			c0.5,0,0.8,0,1.1-0.1c0.3-0.1,0.5-0.2,0.7-0.3c0,0,0.1,0,0.1,0c0.1,0,0.1,0,0.1,0.1c0,0.1,0,0.2,0,0.2c0,0.1-0.1,0.2-0.4,0.5
			c-0.3,0.2-0.6,0.5-1,0.7C137.1,119.1,136.6,119.2,136.1,119.2z M140.3,118.9c-0.2,0-0.3,0-0.4-0.1c-0.1,0-0.1-0.1-0.1-0.2
			c0-0.1,0-0.2,0.1-0.2c0.1,0,0.2-0.1,0.4-0.1c0.3-0.1,0.5-0.2,0.7-0.3c0.2-0.2,0.2-0.3,0.2-0.6v-5.2c0-0.4-0.1-0.8-0.2-1.1
			c-0.1-0.3-0.4-0.5-0.8-0.6c-0.1,0-0.1-0.1-0.2-0.1c0-0.1-0.1-0.1-0.1-0.2c0-0.2,0.1-0.2,0.2-0.3c0.4-0.1,0.8-0.3,1.3-0.6
			c0.5-0.2,0.8-0.5,1.1-0.6c0.1-0.1,0.2-0.1,0.2-0.1c0.1,0,0.1,0,0.1,0c0.1,0,0.1,0.1,0.1,0.2c0,0.1,0,0.2,0,0.4c0,0.2,0,0.4,0,0.7
			c0,0.2,0,0.5,0,0.8c0,0,0,0.1,0,0.1c0.3-0.3,0.5-0.6,0.8-0.8c0.3-0.2,0.6-0.4,1-0.6c0.3-0.1,0.7-0.2,1-0.2c0.3,0,0.6,0.1,0.8,0.2
			c0.2,0.1,0.3,0.3,0.3,0.5c0,0.2,0,0.3-0.1,0.5c-0.1,0.2-0.2,0.4-0.3,0.5c-0.1,0.1-0.3,0.2-0.5,0.2c-0.1,0-0.2,0-0.3-0.1
			c-0.1,0-0.2-0.1-0.4-0.2c-0.1,0-0.2-0.1-0.4-0.1c-0.1-0.1-0.3-0.1-0.4-0.1c-0.4,0-0.8,0.1-1.1,0.4c-0.4,0.3-0.5,0.8-0.5,1.6v4.9
			c0,0.2,0.1,0.4,0.3,0.5c0.2,0.1,0.5,0.3,1,0.4c0.2,0.1,0.3,0.1,0.4,0.2c0.1,0,0.1,0.1,0.1,0.2c0,0.2-0.2,0.3-0.5,0.3
			c-0.5,0-0.8,0-1.1-0.1c-0.2,0-0.6-0.1-1-0.1c-0.3,0-0.5,0-0.7,0c-0.2,0-0.3,0-0.5,0C140.9,118.9,140.6,118.9,140.3,118.9z
			 M150,119.2c-0.3,0-0.6-0.1-0.9-0.3c-0.3-0.2-0.5-0.5-0.7-0.8c-0.2-0.3-0.3-0.6-0.3-0.9c0-0.5,0.1-0.9,0.4-1.2
			c0.3-0.3,0.7-0.6,1.3-0.8l2.5-1c0.3-0.1,0.5-0.2,0.5-0.3c0.1-0.1,0.1-0.3,0.1-0.6l0-1.5c0-0.4-0.1-0.8-0.4-1.1
			c-0.2-0.3-0.6-0.5-1.1-0.5c-0.2,0-0.5,0-0.7,0.1c-0.2,0.1-0.4,0.2-0.6,0.3c-0.1,0.1-0.2,0.2-0.2,0.3c0,0.1,0,0.3,0,0.4
			c0,0.1,0,0.1,0,0.2c0,0.1,0,0.1,0,0.2c0,0.1-0.1,0.2-0.3,0.3c-0.2,0.1-0.4,0.3-0.7,0.4c-0.2,0.1-0.4,0.2-0.6,0.2
			c-0.1,0-0.1,0-0.2-0.1c-0.1,0-0.1-0.1-0.1-0.2c0-0.2,0.1-0.5,0.2-0.8c0.2-0.3,0.4-0.6,0.7-0.8c0.4-0.3,0.8-0.6,1.2-0.9
			c0.4-0.3,0.9-0.5,1.3-0.6c0.4-0.1,0.8-0.2,1.1-0.2c0.6,0,1,0.2,1.4,0.6s0.6,0.9,0.5,1.5l-0.1,5.8c0,0.3,0.1,0.6,0.2,0.8
			c0.2,0.2,0.4,0.3,0.6,0.3c0.4,0,0.7-0.1,0.9-0.3c0.1-0.1,0.1-0.1,0.2-0.1c0.1,0,0.1,0,0.2,0.1c0.1,0,0.1,0.1,0.1,0.2
			c0,0.2-0.1,0.4-0.3,0.5c-0.2,0.2-0.5,0.5-0.8,0.6c-0.3,0.2-0.6,0.2-0.8,0.2c-0.7,0-1.3-0.4-1.8-1.2H153c-0.5,0.4-1,0.7-1.5,0.9
			C151,119.1,150.5,119.2,150,119.2z M151.1,118.1c0.3,0,0.6-0.1,0.8-0.2c0.2-0.1,0.4-0.2,0.6-0.4c0.1-0.1,0.1-0.2,0.2-0.3
			c0.1-0.1,0.1-0.4,0.1-0.7l0.1-1.2c0-0.2,0-0.3,0-0.4c0-0.1-0.1-0.1-0.2-0.1c0,0-0.1,0-0.2,0c-0.1,0-0.2,0-0.3,0.1
			c-0.8,0.3-1.4,0.6-1.8,1c-0.3,0.3-0.5,0.6-0.5,0.9c0,0.4,0.1,0.7,0.4,1C150.5,117.9,150.8,118.1,151.1,118.1z M157.8,118.9
			c-0.1,0-0.3,0-0.4-0.1c-0.1,0-0.1-0.1-0.1-0.2c0-0.1,0.1-0.2,0.2-0.3c0.1-0.1,0.2-0.1,0.4-0.1c0.3-0.1,0.6-0.2,0.8-0.3
			c0.2-0.1,0.3-0.3,0.3-0.6v-5.2c0-0.4-0.1-0.8-0.2-1.1c-0.1-0.3-0.4-0.5-0.8-0.6c-0.1,0-0.1,0-0.2-0.1c0-0.1,0-0.1,0-0.2
			c0-0.2,0.1-0.3,0.2-0.3c0.6-0.1,1.2-0.3,1.6-0.6s0.7-0.5,0.9-0.6c0.1-0.1,0.3-0.2,0.3-0.2c0.1,0,0.2,0,0.2,0.1
			c0,0.1,0,0.4-0.1,0.8c0,0.4-0.1,0.8-0.1,1.2c0,0.4,0,0.9,0,1.2v5.6c0,0.3,0.1,0.5,0.3,0.6c0.2,0.1,0.4,0.2,0.8,0.3
			c0.1,0,0.2,0.1,0.4,0.1c0.1,0,0.2,0.1,0.2,0.3c0,0.2-0.2,0.3-0.5,0.3c-0.3,0-0.5,0-0.7,0c-0.2,0-0.3,0-0.5,0c-0.2,0-0.4,0-0.7,0
			c-0.3,0-0.5,0-0.7,0c-0.2,0-0.4,0-0.5,0C158.4,118.9,158.1,118.9,157.8,118.9z M160.1,106.5c-0.3,0-0.6-0.1-0.9-0.3
			c-0.2-0.2-0.3-0.5-0.3-0.8c0-0.4,0.1-0.6,0.3-0.9c0.2-0.2,0.5-0.4,0.9-0.4s0.6,0.1,0.9,0.4c0.2,0.2,0.4,0.5,0.4,0.9
			c0,0.3-0.1,0.6-0.4,0.8C160.8,106.4,160.5,106.5,160.1,106.5z M163.7,118.9c-0.1,0-0.3,0-0.4-0.1c-0.1,0-0.1-0.1-0.1-0.2
			c0-0.1,0-0.2,0.1-0.2c0.1,0,0.2-0.1,0.4-0.1c0.2-0.1,0.5-0.2,0.7-0.3c0.2-0.1,0.3-0.3,0.3-0.6v-5.2c0-0.4,0-0.8-0.1-1.1
			c-0.1-0.3-0.3-0.5-0.8-0.6c-0.1,0-0.1-0.1-0.2-0.1c0,0-0.1-0.1-0.1-0.2c0-0.2,0.1-0.3,0.2-0.3c0.6-0.1,1-0.3,1.4-0.5
			c0.4-0.2,0.7-0.4,1-0.7c0.1,0,0.1-0.1,0.1-0.1c0,0,0.1,0,0.1,0c0,0,0.1,0,0.1,0c0,0,0,0.1,0,0.1c0,0.1,0,0.3-0.1,0.7
			s-0.1,0.6-0.1,0.9c0,0.1,0,0.1,0,0.2c0,0.1,0,0.1,0,0.1c0.6-0.5,1.2-0.9,1.8-1.2c0.6-0.3,1.3-0.4,2.1-0.4c0.8,0,1.4,0.3,1.9,1
			c0.5,0.6,0.8,1.4,0.8,2.4v5.1c0,0.3,0.1,0.5,0.3,0.6c0.2,0.1,0.5,0.2,0.7,0.3c0.1,0.1,0.3,0.1,0.4,0.2c0.1,0.1,0.2,0.1,0.2,0.3
			c0,0.1-0.1,0.2-0.2,0.2c-0.1,0-0.2,0-0.3,0c-0.3,0-0.6,0-0.8,0c-0.2,0-0.3,0-0.5,0c-0.2,0-0.4,0-0.7,0c-0.3,0-0.5,0-0.7,0
			c-0.2,0-0.4,0-0.5,0c-0.2,0-0.4,0-0.8,0c-0.1,0-0.2,0-0.3,0c-0.1,0-0.2-0.1-0.2-0.2c0-0.1,0.1-0.2,0.2-0.3
			c0.1-0.1,0.3-0.1,0.4-0.2c0.2-0.1,0.5-0.2,0.7-0.3c0.2-0.1,0.3-0.3,0.3-0.6v-5c0-0.7-0.2-1.2-0.6-1.6c-0.4-0.4-0.9-0.6-1.6-0.6
			c-0.6,0-1.1,0.1-1.5,0.3c-0.4,0.2-0.8,0.4-1.1,0.7c-0.1,0.1-0.1,0.1-0.1,0.2c0,0.1,0,0.2,0,0.3v5.8c0,0.3,0.1,0.5,0.3,0.6
			c0.2,0.1,0.5,0.2,0.7,0.3c0.4,0.1,0.5,0.2,0.5,0.4c0,0.1,0,0.2-0.1,0.2c-0.1,0-0.2,0.1-0.4,0.1c-0.3,0-0.6,0-0.8,0
			c-0.2,0-0.4,0-0.5,0c-0.2,0-0.4,0-0.7,0c-0.3,0-0.5,0-0.7,0c-0.2,0-0.3,0-0.5,0C164.2,118.9,164,118.9,163.7,118.9z M179.8,119.2
			c-0.8,0-1.4-0.2-1.8-0.7c-0.4-0.5-0.7-1.2-0.7-2.1v-5.6c0-0.1-0.1-0.2-0.2-0.3c-0.1-0.1-0.3-0.1-0.6-0.1h-0.1
			c-0.1,0-0.1-0.1-0.2-0.2c-0.1-0.1-0.1-0.2-0.1-0.3c0,0,0-0.1,0.1-0.1c0.1-0.1,0.1-0.1,0.1-0.1c0.3-0.2,0.6-0.5,0.9-0.7
			c0.3-0.2,0.5-0.4,0.7-0.7c0.2-0.2,0.4-0.4,0.5-0.6c0.1-0.1,0.2-0.2,0.2-0.2c0.1-0.1,0.1-0.1,0.2-0.1c0.1,0,0.2,0,0.2,0.1
			c0.1,0,0.1,0.1,0.1,0.2l-0.1,1.1c0,0.2,0,0.3,0.1,0.4c0.1,0.1,0.3,0.1,0.5,0.1h2.8c0.1,0,0.1,0.1,0.2,0.2c0.1,0.1,0.1,0.2,0.1,0.4
			c0,0.1,0,0.3-0.1,0.4c0,0.1-0.1,0.2-0.2,0.2H180c-0.4,0-0.7,0-0.8,0.1c-0.1,0.1-0.2,0.2-0.2,0.6v4.7c0,0.6,0.1,1.1,0.4,1.5
			c0.3,0.4,0.7,0.5,1.2,0.5c0.5,0,0.8,0,1.1-0.1c0.3-0.1,0.5-0.2,0.7-0.3c0,0,0.1,0,0.1,0c0.1,0,0.1,0,0.1,0.1c0,0.1,0,0.2,0,0.2
			c0,0.1-0.1,0.2-0.4,0.5c-0.3,0.2-0.6,0.5-1,0.7C180.8,119.1,180.3,119.2,179.8,119.2z M186.3,119.2c-0.5,0-1-0.1-1.4-0.2
			c-0.4-0.2-0.8-0.4-1.1-0.6c-0.1-0.2-0.1-0.5-0.2-0.9c0-0.4-0.1-0.8-0.1-1c0-0.1,0.1-0.2,0.3-0.2c0.1,0,0.1,0,0.2,0
			c0.1,0,0.1,0.1,0.1,0.1c0.2,0.8,0.5,1.4,1,1.7c0.5,0.3,0.9,0.5,1.4,0.5s0.9-0.2,1.2-0.5c0.3-0.3,0.5-0.7,0.5-1.2
			c0-0.4-0.1-0.8-0.4-1.1s-0.8-0.7-1.5-1.1c-0.5-0.3-1-0.7-1.3-1c-0.3-0.3-0.6-0.6-0.7-0.9c-0.1-0.3-0.2-0.7-0.2-1.1
			c0-0.5,0.1-1,0.4-1.4c0.2-0.4,0.6-0.8,1.1-1s1.1-0.4,1.8-0.4c0.5,0,0.9,0.1,1.2,0.2c0.3,0.1,0.6,0.2,0.7,0.3
			c0.1,0.2,0.2,0.5,0.3,0.8c0.1,0.4,0.1,0.7,0.1,1.1c0,0.1-0.1,0.2-0.2,0.2c-0.1,0-0.2,0-0.3,0c-0.1,0-0.1-0.1-0.2-0.2
			c-0.2-0.5-0.5-0.9-0.8-1.2s-0.7-0.4-1.2-0.4c-0.4,0-0.8,0.1-1.1,0.4c-0.3,0.2-0.5,0.6-0.5,1.1c0,0.4,0.1,0.7,0.3,1
			c0.2,0.3,0.7,0.6,1.3,1c0.9,0.5,1.6,1,2.1,1.5c0.5,0.5,0.7,1.1,0.7,1.8c0,0.9-0.3,1.6-1,2.1C188.2,118.9,187.3,119.2,186.3,119.2z
			"/>
		<path class="st2" d="M218.8,202.8L218.8,202.8c0,4.4-3.6,8-8,8v-8l0,0c0,2.2-1.8,4-4,4c-2.2,0-4-1.8-4-4v8H73.2l0,0
			c-4.4,0-8,3.6-8,8v96.4c0,4.4,3.6,8,8,8s8-3.6,8-8v-8h129.5c4.4,0,8-3.6,8-8V202.8z M73.2,226.9c4.4,0,8-3.6,8-8c0-2.2-1.8-4-4-4
			s-4,1.8-4,4V226.9z"/>
		<path class="st3" d="M73.2,226.9c4.4,0,8-3.6,8-8c0-2.2-1.8-4-4-4s-4,1.8-4,4V226.9z M210.8,210.8c4.4,0,8-3.6,8-8s-3.6-8-8-8
			s-8,3.6-8,8c0,2.2,1.8,4,4,4c2.2,0,4-1.8,4-4V210.8z"/>
		<path class="st1" d="M65.2,218.8c0-4.4,3.6-8,8-8h129.5v-8l0,0c0-4.4,3.6-8,8-8s8,3.6,8,8v96.4c0,4.4-3.6,8-8,8H81.3v8
			c0,4.4-3.6,8-8,8s-8-3.6-8-8V218.8z M202.8,210.8h8c4.4,0,8-3.6,8-8 M210.8,210.8v-8l0,0c0,2.2-1.8,4-4,4c-2.2,0-4-1.8-4-4
			 M73.2,226.9v-8l0,0c0-2.2,1.8-4,4-4s4,1.8,4,4C81.3,223.3,77.7,226.9,73.2,226.9s-8-3.6-8-8 M81.3,218.8v88.4"/>
		<path class="st4" d="M65.2,218.8c0-4.4,3.6-8,8-8h129.5v-8l0,0c0-4.4,3.6-8,8-8s8,3.6,8,8v96.4c0,4.4-3.6,8-8,8H81.3v8
			c0,4.4-3.6,8-8,8s-8-3.6-8-8V218.8z M202.8,210.8h8c4.4,0,8-3.6,8-8 M210.8,210.8v-8l0,0c0,2.2-1.8,4-4,4c-2.2,0-4-1.8-4-4
			 M73.2,226.9v-8l0,0c0-2.2,1.8-4,4-4s4,1.8,4,4C81.3,223.3,77.7,226.9,73.2,226.9s-8-3.6-8-8 M81.3,218.8v88.4"/>
		<path d="M105.6,253.6c-0.4,0-0.9,0-1.3-0.1c-0.4-0.1-0.8-0.2-1.1-0.4c-0.3-0.2-0.6-0.5-0.9-0.8c-0.4-0.5-0.7-0.9-1.1-1.4
			c-0.4-0.4-0.7-0.9-1.1-1.5c-0.4-0.6-0.9-1.3-1.4-2.2c-0.2-0.4-0.6-0.7-1-0.9c-0.4-0.2-0.7-0.3-1-0.4c-0.3-0.1-0.6-0.1-0.8-0.1
			c-0.1,0-0.2,0-0.3,0.1c-0.1,0.1-0.1,0.2-0.1,0.4v4.2c0,0.5,0.1,1,0.4,1.3c0.2,0.4,0.7,0.6,1.2,0.7c0.3,0.1,0.5,0.1,0.6,0.2
			s0.2,0.2,0.2,0.3c0,0.1-0.1,0.2-0.2,0.2c-0.1,0-0.3,0.1-0.5,0.1c-0.4,0-0.8,0-1,0c-0.2,0-0.4-0.1-0.6-0.1c-0.2,0-0.4,0-0.7,0
			c-0.4,0-0.8,0-1.1,0c-0.3,0-0.6,0-0.9,0.1s-0.7,0-1.1,0c-0.2,0-0.4,0-0.5-0.1c-0.1,0-0.2-0.1-0.2-0.2c0-0.2,0.3-0.3,0.8-0.4
			c0.6-0.1,1-0.3,1.3-0.5c0.3-0.3,0.4-0.7,0.4-1.3v-10.2c0-0.6,0-1.1-0.1-1.4c-0.1-0.3-0.2-0.5-0.4-0.7c-0.2-0.1-0.5-0.2-1-0.3
			c-0.3,0-0.5-0.1-0.6-0.2c-0.1-0.1-0.2-0.2-0.2-0.3c0-0.1,0.1-0.2,0.2-0.2c0.1,0,0.3-0.1,0.5-0.1c0.4,0,0.8,0,1,0s0.4,0,0.6,0
			c0.2,0,0.5,0,0.8,0s0.6,0,0.8,0c0.2,0,0.5-0.1,0.8-0.1c0.3,0,0.7,0,1.1,0c1.8,0,3.1,0.3,4,1c0.9,0.7,1.4,1.6,1.4,3
			c0,0.7-0.1,1.3-0.4,1.9c-0.3,0.5-0.7,1-1.1,1.3c-0.4,0.3-0.9,0.6-1.3,0.9c-0.1,0-0.1,0-0.1,0.1c0,0.1,0,0.1,0.1,0.2
			c0.5,0.8,1,1.5,1.4,2.1c0.5,0.7,1,1.3,1.5,2c0.5,0.6,1.2,1.3,1.9,2c0.4,0.4,0.8,0.6,1.3,0.7c0.4,0.1,0.9,0.1,1.5,0.1
			c0.2,0,0.4,0.1,0.4,0.2c0,0.2-0.1,0.4-0.4,0.5c-0.2,0.1-0.5,0.2-0.8,0.2C106,253.6,105.8,253.6,105.6,253.6z M96.6,245.2
			c0.7,0,1.4-0.2,1.9-0.5c0.5-0.3,1-0.8,1.2-1.3c0.3-0.5,0.4-1.1,0.4-1.7c0-0.7-0.1-1.3-0.2-1.8c-0.2-0.5-0.5-1-1-1.3
			c-0.5-0.3-1.2-0.5-2.2-0.5c-0.5,0-0.9,0.2-1,0.5c-0.2,0.3-0.2,0.9-0.3,1.7c0,0.4,0,0.9,0,1.6c0,0.7,0,1.5,0,2.5
			c0,0.4,0.1,0.6,0.3,0.7C95.9,245.1,96.2,245.2,96.6,245.2z M112.5,253.4c-0.9,0-1.6-0.2-2.3-0.6c-0.7-0.4-1.2-1.1-1.5-1.8
			c-0.4-0.8-0.5-1.7-0.5-2.8c0-0.9,0.2-1.8,0.6-2.5c0.4-0.8,1-1.4,1.7-1.8c0.7-0.5,1.5-0.7,2.3-0.7c0.6,0,1.2,0.1,1.7,0.4
			c0.5,0.2,0.9,0.6,1.2,1.1c0.3,0.5,0.4,1,0.4,1.6c0,0.5-0.2,0.7-0.7,0.7h-5.1c-0.2,0-0.4,0.1-0.5,0.2c-0.1,0.1-0.1,0.3-0.1,0.7
			c0,0.8,0.2,1.5,0.5,2.1c0.3,0.6,0.8,1.1,1.3,1.5c0.6,0.4,1.2,0.6,1.9,0.6c0.5,0,0.9-0.1,1.3-0.3c0.4-0.2,0.7-0.5,1-0.8
			c0.1-0.1,0.1-0.1,0.2-0.1c0,0,0.1,0,0.1,0c0.1,0,0.2,0.1,0.2,0.2c0,0.3-0.1,0.6-0.4,1c-0.2,0.3-0.5,0.6-0.9,0.8
			c-0.3,0.2-0.7,0.4-1.1,0.5C113.3,253.4,112.9,253.4,112.5,253.4z M110.3,246.2h2.2c0.4,0,0.7,0,1,0c0.3,0,0.5-0.1,0.8-0.1
			c0.1,0,0.1-0.1,0.2-0.2c0-0.1,0-0.2,0-0.4c0-0.5-0.2-0.8-0.6-1.2c-0.4-0.3-0.9-0.5-1.5-0.5c-0.4,0-0.7,0.1-1.1,0.3
			c-0.4,0.2-0.7,0.5-0.9,0.8c-0.2,0.3-0.4,0.6-0.4,1C110,246.1,110.1,246.2,110.3,246.2z M120.2,253.4c-0.5,0-1-0.1-1.4-0.2
			c-0.4-0.2-0.8-0.4-1.1-0.6c-0.1-0.2-0.1-0.5-0.2-0.9c0-0.4-0.1-0.8-0.1-1c0-0.1,0.1-0.2,0.3-0.2c0.1,0,0.1,0,0.2,0
			c0.1,0,0.1,0.1,0.1,0.1c0.2,0.8,0.5,1.4,1,1.7c0.5,0.3,0.9,0.5,1.4,0.5s0.9-0.2,1.2-0.5c0.3-0.3,0.5-0.7,0.5-1.2
			c0-0.4-0.1-0.8-0.4-1.1c-0.3-0.3-0.8-0.7-1.5-1.1c-0.5-0.3-1-0.7-1.3-1c-0.3-0.3-0.6-0.6-0.7-0.9c-0.1-0.3-0.2-0.7-0.2-1.1
			c0-0.5,0.1-1,0.4-1.4c0.2-0.4,0.6-0.8,1.1-1c0.5-0.2,1.1-0.4,1.8-0.4c0.5,0,0.9,0.1,1.2,0.2c0.3,0.1,0.6,0.2,0.7,0.3
			c0.1,0.2,0.2,0.5,0.3,0.8c0.1,0.4,0.1,0.7,0.1,1.1c0,0.1-0.1,0.2-0.2,0.2c-0.1,0-0.2,0-0.3,0c-0.1,0-0.1-0.1-0.2-0.2
			c-0.2-0.5-0.5-0.9-0.8-1.2s-0.7-0.4-1.2-0.4c-0.4,0-0.8,0.1-1.1,0.4c-0.3,0.2-0.5,0.6-0.5,1.1c0,0.4,0.1,0.7,0.3,1
			c0.2,0.3,0.7,0.6,1.3,1c0.9,0.5,1.6,1,2.1,1.5c0.5,0.5,0.7,1.1,0.7,1.8c0,0.9-0.3,1.6-1,2.1C122.1,253.1,121.2,253.4,120.2,253.4z
			 M130.1,253.4c-0.9,0-1.7-0.2-2.4-0.6c-0.7-0.4-1.3-1-1.7-1.7c-0.4-0.7-0.6-1.6-0.6-2.5c0-0.7,0.1-1.3,0.4-2
			c0.3-0.6,0.6-1.2,1.1-1.8c0.5-0.5,1.1-1,1.7-1.3c0.6-0.3,1.3-0.5,2.1-0.5c0.9,0,1.8,0.2,2.5,0.7c0.8,0.4,1.3,1,1.8,1.8
			c0.4,0.7,0.7,1.5,0.7,2.4c0,0.9-0.2,1.8-0.6,2.6c-0.4,0.8-1,1.5-1.8,2C132.3,253.2,131.3,253.4,130.1,253.4z M130.6,252.7
			c0.5,0,1-0.1,1.5-0.3c0.4-0.2,0.8-0.5,1-1c0.2-0.4,0.3-0.8,0.4-1.3c0.1-0.5,0.1-1,0.1-1.5c0-0.8-0.1-1.5-0.4-2.2
			c-0.3-0.7-0.7-1.3-1.2-1.8c-0.5-0.5-1.1-0.7-1.8-0.7c-0.4,0-0.8,0.1-1.2,0.2c-0.3,0.1-0.7,0.4-1,0.8c-0.3,0.4-0.5,0.9-0.6,1.5
			c-0.1,0.6-0.1,1.1-0.1,1.7c0,0.8,0.1,1.5,0.4,2.2c0.3,0.7,0.7,1.3,1.2,1.7C129.4,252.5,130,252.7,130.6,252.7z M137,253.2
			c-0.1,0-0.2,0-0.3,0c-0.1,0-0.2-0.1-0.2-0.2c0-0.1,0.1-0.2,0.2-0.3c0.1-0.1,0.3-0.1,0.4-0.2c0.2-0.1,0.5-0.2,0.7-0.3
			c0.2-0.1,0.3-0.3,0.3-0.6v-12.1c0-0.5-0.1-0.9-0.3-1.2c-0.2-0.3-0.4-0.5-0.8-0.6c-0.1,0-0.2-0.1-0.2-0.3c0-0.2,0.1-0.3,0.2-0.3
			c0.4-0.1,0.8-0.2,1.1-0.3c0.3-0.1,0.6-0.2,0.9-0.3c0.3-0.1,0.5-0.2,0.8-0.3c0.1,0,0.1,0,0.1,0s0.1,0,0.1,0.1c0,0,0,0.1,0,0.1
			c0,0.1,0,0.5-0.1,0.9c-0.1,0.5-0.1,1.2-0.1,2.3v12c0,0.3,0.1,0.5,0.3,0.6c0.2,0.1,0.5,0.2,0.7,0.3c0.1,0.1,0.2,0.1,0.4,0.2
			c0.1,0.1,0.2,0.1,0.2,0.3c0,0.1-0.1,0.2-0.2,0.2c-0.1,0-0.2,0-0.3,0c-0.3,0-0.5,0-0.7,0c-0.2,0-0.4,0-0.5,0c-0.2,0-0.4,0-0.7,0
			c-0.3,0-0.5,0-0.7,0c-0.2,0-0.4,0-0.5,0C137.5,253.1,137.3,253.2,137,253.2z M146.9,253.6c-0.1,0-0.1-0.1-0.2-0.4
			c-0.1-0.2-0.2-0.4-0.2-0.5c-0.1-0.3-0.2-0.6-0.3-0.8c-0.1-0.3-0.2-0.6-0.3-0.8c-0.4-1-0.7-2-1.1-2.9c-0.4-1-0.8-1.9-1.2-2.9
			c-0.1-0.3-0.3-0.6-0.5-0.8c-0.2-0.2-0.5-0.4-0.7-0.5c-0.1,0-0.2-0.1-0.3-0.1c-0.1-0.1-0.1-0.1-0.1-0.2c0-0.1,0.1-0.2,0.2-0.2
			c0.1,0,0.2,0,0.3,0c0.3,0,0.6,0,0.7,0c0.1,0,0.3,0,0.4,0.1c0.1,0,0.4,0,0.6,0s0.5,0,0.6,0c0.1,0,0.3-0.1,0.5-0.1
			c0.2,0,0.4,0,0.7,0c0.1,0,0.2,0,0.3,0c0.1,0,0.2,0.1,0.2,0.2c0,0.1-0.1,0.2-0.2,0.3c-0.1,0.1-0.2,0.1-0.4,0.2
			c-0.2,0.1-0.3,0.2-0.4,0.4c-0.1,0.2-0.1,0.4-0.1,0.6c0,0.1,0,0.2,0,0.3c0,0.1,0.1,0.2,0.1,0.3l1.9,5c0,0,0,0,0,0s0,0,0,0l1.8-4.7
			c0.1-0.2,0.1-0.3,0.1-0.5c0-0.2,0.1-0.3,0.1-0.5c0-0.3-0.1-0.6-0.2-0.7c-0.1-0.1-0.2-0.2-0.5-0.3c-0.2-0.1-0.4-0.1-0.4-0.2
			c-0.1-0.1-0.1-0.1-0.1-0.2c0-0.1,0.1-0.2,0.2-0.2c0.1,0,0.2,0,0.3,0c0.2,0,0.4,0,0.7,0.1c0.3,0,0.6,0.1,1.1,0.1s0.7,0,0.8-0.1
			c0.2,0,0.3-0.1,0.6-0.1c0.1,0,0.2,0,0.3,0c0.1,0,0.1,0.1,0.1,0.2c0,0.2-0.2,0.3-0.5,0.4c-0.2,0.1-0.5,0.3-0.8,0.6
			c-0.3,0.3-0.5,0.7-0.7,1l-1.9,4.5c0,0.1-0.1,0.2-0.2,0.5s-0.2,0.5-0.3,0.8c-0.1,0.3-0.2,0.5-0.3,0.8c-0.1,0.2-0.1,0.3-0.1,0.3
			s0,0.1-0.1,0.2c-0.1,0.1-0.1,0.3-0.2,0.5c-0.1,0.2-0.1,0.3-0.2,0.4H146.9z M156.8,253.4c-0.9,0-1.6-0.2-2.3-0.6
			c-0.7-0.4-1.2-1.1-1.5-1.8c-0.4-0.8-0.5-1.7-0.5-2.8c0-0.9,0.2-1.8,0.6-2.5c0.4-0.8,1-1.4,1.7-1.8c0.7-0.5,1.5-0.7,2.3-0.7
			c0.6,0,1.2,0.1,1.7,0.4c0.5,0.2,0.9,0.6,1.2,1.1c0.3,0.5,0.4,1,0.4,1.6c0,0.5-0.2,0.7-0.7,0.7h-5.1c-0.2,0-0.4,0.1-0.5,0.2
			c-0.1,0.1-0.1,0.3-0.1,0.7c0,0.8,0.2,1.5,0.5,2.1c0.3,0.6,0.8,1.1,1.3,1.5c0.6,0.4,1.2,0.6,1.9,0.6c0.5,0,0.9-0.1,1.3-0.3
			c0.4-0.2,0.7-0.5,1-0.8c0.1-0.1,0.1-0.1,0.2-0.1c0,0,0.1,0,0.1,0c0.1,0,0.2,0.1,0.2,0.2c0,0.3-0.1,0.6-0.4,1
			c-0.2,0.3-0.5,0.6-0.9,0.8c-0.3,0.2-0.7,0.4-1.1,0.5C157.6,253.4,157.2,253.4,156.8,253.4z M154.6,246.2h2.2c0.4,0,0.7,0,1,0
			c0.3,0,0.5-0.1,0.8-0.1c0.1,0,0.1-0.1,0.2-0.2c0-0.1,0-0.2,0-0.4c0-0.5-0.2-0.8-0.6-1.2c-0.4-0.3-0.9-0.5-1.5-0.5
			c-0.4,0-0.7,0.1-1.1,0.3c-0.4,0.2-0.7,0.5-0.9,0.8c-0.2,0.3-0.4,0.6-0.4,1C154.3,246.1,154.4,246.2,154.6,246.2z"/>
		<path d="M95.4,282.4c-0.8,0-1.5-0.2-2.2-0.6c-0.6-0.4-1.2-1-1.5-1.7c-0.4-0.7-0.6-1.5-0.6-2.4c0-1,0.2-2,0.7-2.8
			c0.5-0.9,1.1-1.5,1.8-2c0.8-0.5,1.6-0.8,2.5-0.8c1,0,2,0.3,2.7,0.8c0.2,0.1,0.3,0.3,0.3,0.5c0,0.1-0.1,0.3-0.2,0.4
			c-0.1,0.2-0.2,0.3-0.4,0.4c-0.2,0.1-0.3,0.2-0.5,0.2c-0.1,0-0.2,0-0.2-0.1c-0.1-0.1-0.2-0.1-0.3-0.2c-0.4-0.3-0.8-0.5-1.2-0.8
			c-0.4-0.2-0.8-0.4-1.1-0.4c-0.8,0-1.4,0.4-1.9,1.1c-0.5,0.7-0.7,1.7-0.7,2.9c0,0.8,0.2,1.4,0.5,2c0.3,0.6,0.8,1.1,1.3,1.4
			c0.6,0.4,1.2,0.5,1.8,0.5c0.5,0,0.9-0.1,1.2-0.2c0.3-0.2,0.7-0.4,1.1-0.8c0,0,0.1-0.1,0.1-0.1c0.1,0,0.1,0,0.1,0
			c0.2,0,0.3,0.1,0.3,0.3c0,0.1,0,0.2-0.1,0.3c-0.1,0.1-0.1,0.2-0.3,0.4c-0.2,0.3-0.6,0.6-0.9,0.8c-0.4,0.2-0.7,0.4-1.2,0.5
			C96.3,282.4,95.9,282.4,95.4,282.4z M105.2,282.4c-0.9,0-1.7-0.2-2.4-0.6c-0.7-0.4-1.3-1-1.7-1.7c-0.4-0.7-0.6-1.6-0.6-2.5
			c0-0.7,0.1-1.3,0.4-2c0.3-0.6,0.6-1.2,1.1-1.8c0.5-0.5,1.1-1,1.7-1.3s1.3-0.5,2.1-0.5c0.9,0,1.8,0.2,2.5,0.7
			c0.8,0.4,1.3,1,1.8,1.8c0.4,0.7,0.7,1.5,0.7,2.4c0,0.9-0.2,1.8-0.6,2.6c-0.4,0.8-1,1.5-1.8,2C107.4,282.2,106.4,282.4,105.2,282.4
			z M105.7,281.7c0.5,0,1-0.1,1.5-0.3c0.4-0.2,0.8-0.5,1-1c0.2-0.4,0.3-0.8,0.4-1.3c0.1-0.5,0.1-1,0.1-1.5c0-0.8-0.1-1.5-0.4-2.2
			c-0.3-0.7-0.7-1.3-1.2-1.8c-0.5-0.5-1.1-0.7-1.8-0.7c-0.4,0-0.8,0.1-1.2,0.2c-0.3,0.1-0.7,0.4-1,0.8c-0.3,0.4-0.5,0.9-0.6,1.5
			c-0.1,0.6-0.1,1.1-0.1,1.7c0,0.8,0.1,1.5,0.4,2.2c0.3,0.7,0.7,1.3,1.2,1.7C104.5,281.5,105,281.7,105.7,281.7z M112.5,282.2
			c-0.1,0-0.3,0-0.4-0.1c-0.1,0-0.1-0.1-0.1-0.2c0-0.1,0-0.2,0.1-0.2c0.1,0,0.2-0.1,0.4-0.1c0.2-0.1,0.5-0.2,0.7-0.3
			c0.2-0.1,0.3-0.3,0.3-0.6v-5.2c0-0.4,0-0.8-0.1-1.1c-0.1-0.3-0.3-0.5-0.8-0.6c-0.1,0-0.1-0.1-0.2-0.1c0,0-0.1-0.1-0.1-0.2
			c0-0.2,0.1-0.3,0.2-0.3c0.6-0.1,1-0.3,1.4-0.5c0.4-0.2,0.7-0.4,1-0.7c0.1,0,0.1-0.1,0.1-0.1c0,0,0.1,0,0.1,0c0,0,0.1,0,0.1,0
			c0,0,0,0.1,0,0.1c0,0.1,0,0.3-0.1,0.7c0,0.3-0.1,0.6-0.1,0.9c0,0.1,0,0.1,0,0.2c0,0.1,0,0.1,0,0.1c0.6-0.5,1.2-0.9,1.8-1.2
			c0.6-0.3,1.3-0.4,2.1-0.4c0.8,0,1.4,0.3,1.9,1c0.5,0.6,0.8,1.4,0.8,2.4v5.1c0,0.3,0.1,0.5,0.3,0.6c0.2,0.1,0.5,0.2,0.7,0.3
			c0.1,0.1,0.3,0.1,0.4,0.2c0.1,0.1,0.2,0.1,0.2,0.3c0,0.1-0.1,0.2-0.2,0.2c-0.1,0-0.2,0-0.3,0c-0.3,0-0.6,0-0.8,0
			c-0.2,0-0.3,0-0.5,0c-0.2,0-0.4,0-0.7,0c-0.3,0-0.5,0-0.7,0c-0.2,0-0.4,0-0.5,0c-0.2,0-0.4,0-0.8,0c-0.1,0-0.2,0-0.3,0
			c-0.1,0-0.2-0.1-0.2-0.2c0-0.1,0.1-0.2,0.2-0.3c0.1-0.1,0.3-0.1,0.4-0.2c0.2-0.1,0.5-0.2,0.7-0.3c0.2-0.1,0.3-0.3,0.3-0.6v-5
			c0-0.7-0.2-1.2-0.6-1.6c-0.4-0.4-0.9-0.6-1.6-0.6c-0.6,0-1.1,0.1-1.5,0.3c-0.4,0.2-0.8,0.4-1.1,0.7c-0.1,0.1-0.1,0.1-0.1,0.2
			c0,0.1,0,0.2,0,0.3v5.8c0,0.3,0.1,0.5,0.3,0.6c0.2,0.1,0.5,0.2,0.7,0.3c0.4,0.1,0.5,0.2,0.5,0.4c0,0.1,0,0.2-0.1,0.2
			c-0.1,0-0.2,0.1-0.4,0.1c-0.3,0-0.6,0-0.8,0c-0.2,0-0.4,0-0.5,0c-0.2,0-0.4,0-0.7,0c-0.3,0-0.5,0-0.7,0c-0.2,0-0.3,0-0.5,0
			C113.1,282.1,112.8,282.2,112.5,282.2z M127.6,282.4c-0.5,0-1-0.1-1.4-0.2c-0.4-0.2-0.8-0.4-1.1-0.6c-0.1-0.2-0.1-0.5-0.2-0.9
			c0-0.4-0.1-0.8-0.1-1c0-0.1,0.1-0.2,0.3-0.2c0.1,0,0.1,0,0.2,0c0.1,0,0.1,0.1,0.1,0.1c0.2,0.8,0.5,1.4,1,1.7
			c0.5,0.3,0.9,0.5,1.4,0.5s0.9-0.2,1.2-0.5c0.3-0.3,0.5-0.7,0.5-1.2c0-0.4-0.1-0.8-0.4-1.1c-0.3-0.3-0.8-0.7-1.5-1.1
			c-0.5-0.3-1-0.7-1.3-1c-0.3-0.3-0.6-0.6-0.7-0.9c-0.1-0.3-0.2-0.7-0.2-1.1c0-0.5,0.1-1,0.4-1.4c0.2-0.4,0.6-0.8,1.1-1
			c0.5-0.2,1.1-0.4,1.8-0.4c0.5,0,0.9,0.1,1.2,0.2c0.3,0.1,0.6,0.2,0.7,0.3c0.1,0.2,0.2,0.5,0.3,0.8c0.1,0.4,0.1,0.7,0.1,1.1
			c0,0.1-0.1,0.2-0.2,0.2c-0.1,0-0.2,0-0.3,0c-0.1,0-0.1-0.1-0.2-0.2c-0.2-0.5-0.5-0.9-0.8-1.2s-0.7-0.4-1.2-0.4
			c-0.4,0-0.8,0.1-1.1,0.4c-0.3,0.2-0.5,0.6-0.5,1.1c0,0.4,0.1,0.7,0.3,1c0.2,0.3,0.7,0.6,1.3,1c0.9,0.5,1.6,1,2.1,1.5
			c0.5,0.5,0.7,1.1,0.7,1.8c0,0.9-0.3,1.6-1,2.1C129.5,282.1,128.6,282.4,127.6,282.4z M136.4,282.4c-0.8,0-1.4-0.2-1.8-0.7
			c-0.4-0.5-0.7-1.2-0.7-2.1V274c0-0.1-0.1-0.2-0.2-0.3c-0.1-0.1-0.3-0.1-0.6-0.1H133c-0.1,0-0.1-0.1-0.2-0.2
			c-0.1-0.1-0.1-0.2-0.1-0.3c0,0,0-0.1,0.1-0.1c0.1-0.1,0.1-0.1,0.1-0.1c0.3-0.2,0.6-0.5,0.9-0.7c0.3-0.2,0.5-0.4,0.7-0.7
			c0.2-0.2,0.4-0.4,0.5-0.6c0.1-0.1,0.2-0.2,0.2-0.2c0.1-0.1,0.1-0.1,0.2-0.1c0.1,0,0.2,0,0.2,0.1c0.1,0,0.1,0.1,0.1,0.2l-0.1,1.1
			c0,0.2,0,0.3,0.1,0.4c0.1,0.1,0.3,0.1,0.5,0.1h2.8c0.1,0,0.1,0.1,0.2,0.2c0.1,0.1,0.1,0.2,0.1,0.4c0,0.1,0,0.3-0.1,0.4
			c0,0.1-0.1,0.2-0.2,0.2h-2.4c-0.4,0-0.7,0-0.8,0.1c-0.1,0.1-0.2,0.2-0.2,0.6v4.7c0,0.6,0.1,1.1,0.4,1.5c0.3,0.4,0.7,0.5,1.2,0.5
			c0.5,0,0.8,0,1.1-0.1c0.3-0.1,0.5-0.2,0.7-0.3c0,0,0.1,0,0.1,0c0.1,0,0.1,0,0.1,0.1c0,0.1,0,0.2,0,0.2c0,0.1-0.1,0.2-0.4,0.5
			c-0.3,0.2-0.6,0.5-1,0.7C137.4,282.3,136.9,282.4,136.4,282.4z M140.6,282.2c-0.2,0-0.3,0-0.4-0.1c-0.1,0-0.1-0.1-0.1-0.2
			c0-0.1,0-0.2,0.1-0.2c0.1,0,0.2-0.1,0.4-0.1c0.3-0.1,0.5-0.2,0.7-0.3c0.2-0.2,0.2-0.3,0.2-0.6v-5.2c0-0.4-0.1-0.8-0.2-1.1
			c-0.1-0.3-0.4-0.5-0.8-0.6c-0.1,0-0.1-0.1-0.2-0.1c0-0.1-0.1-0.1-0.1-0.2c0-0.2,0.1-0.2,0.2-0.3c0.4-0.1,0.8-0.3,1.3-0.6
			c0.5-0.2,0.8-0.5,1.1-0.6c0.1-0.1,0.2-0.1,0.2-0.1c0.1,0,0.1,0,0.1,0c0.1,0,0.1,0.1,0.1,0.2c0,0.1,0,0.2,0,0.4c0,0.2,0,0.4,0,0.7
			c0,0.2,0,0.5,0,0.8c0,0,0,0.1,0,0.1c0.3-0.3,0.5-0.6,0.8-0.8c0.3-0.2,0.6-0.4,1-0.6c0.3-0.1,0.7-0.2,1-0.2c0.3,0,0.6,0.1,0.8,0.2
			c0.2,0.1,0.3,0.3,0.3,0.5c0,0.2,0,0.3-0.1,0.5c-0.1,0.2-0.2,0.4-0.3,0.5c-0.1,0.1-0.3,0.2-0.5,0.2c-0.1,0-0.2,0-0.3-0.1
			c-0.1,0-0.2-0.1-0.4-0.2c-0.1,0-0.2-0.1-0.4-0.1c-0.1-0.1-0.3-0.1-0.4-0.1c-0.4,0-0.8,0.1-1.1,0.4c-0.4,0.3-0.5,0.8-0.5,1.6v4.9
			c0,0.2,0.1,0.4,0.3,0.5c0.2,0.1,0.5,0.3,1,0.4c0.2,0.1,0.3,0.1,0.4,0.2c0.1,0,0.1,0.1,0.1,0.2c0,0.2-0.2,0.3-0.5,0.3
			c-0.5,0-0.8,0-1.1-0.1c-0.2,0-0.6-0.1-1-0.1c-0.3,0-0.5,0-0.7,0c-0.2,0-0.3,0-0.5,0C141.1,282.1,140.9,282.2,140.6,282.2z
			 M150.2,282.4c-0.3,0-0.6-0.1-0.9-0.3c-0.3-0.2-0.5-0.5-0.7-0.8c-0.2-0.3-0.3-0.6-0.3-0.9c0-0.5,0.1-0.9,0.4-1.2
			c0.3-0.3,0.7-0.6,1.3-0.8l2.5-1c0.3-0.1,0.5-0.2,0.5-0.3c0.1-0.1,0.1-0.3,0.1-0.6l0-1.5c0-0.4-0.1-0.8-0.4-1.1
			c-0.2-0.3-0.6-0.5-1.1-0.5c-0.2,0-0.5,0-0.7,0.1c-0.2,0.1-0.4,0.2-0.6,0.3c-0.1,0.1-0.2,0.2-0.2,0.3c0,0.1,0,0.3,0,0.4
			c0,0.1,0,0.1,0,0.2c0,0.1,0,0.1,0,0.2c0,0.1-0.1,0.2-0.3,0.3c-0.2,0.1-0.4,0.3-0.7,0.4c-0.2,0.1-0.4,0.2-0.6,0.2
			c-0.1,0-0.1,0-0.2-0.1c-0.1,0-0.1-0.1-0.1-0.2c0-0.2,0.1-0.5,0.2-0.8c0.2-0.3,0.4-0.6,0.7-0.8c0.4-0.3,0.8-0.6,1.2-0.9
			c0.4-0.3,0.9-0.5,1.3-0.6c0.4-0.1,0.8-0.2,1.1-0.2c0.6,0,1,0.2,1.4,0.6s0.6,0.9,0.5,1.5l-0.1,5.8c0,0.3,0.1,0.6,0.2,0.8
			c0.2,0.2,0.4,0.3,0.6,0.3c0.4,0,0.7-0.1,0.9-0.3c0.1-0.1,0.1-0.1,0.2-0.1c0.1,0,0.1,0,0.2,0.1c0.1,0,0.1,0.1,0.1,0.2
			c0,0.2-0.1,0.4-0.3,0.5c-0.2,0.2-0.5,0.5-0.8,0.6c-0.3,0.2-0.6,0.2-0.8,0.2c-0.7,0-1.3-0.4-1.8-1.2h-0.1c-0.5,0.4-1,0.7-1.5,0.9
			C151.2,282.3,150.7,282.4,150.2,282.4z M151.4,281.3c0.3,0,0.6-0.1,0.8-0.2c0.2-0.1,0.4-0.2,0.6-0.4c0.1-0.1,0.1-0.2,0.2-0.3
			c0.1-0.1,0.1-0.4,0.1-0.7l0.1-1.2c0-0.2,0-0.3,0-0.4c0-0.1-0.1-0.1-0.2-0.1c0,0-0.1,0-0.2,0c-0.1,0-0.2,0-0.3,0.1
			c-0.8,0.3-1.4,0.6-1.8,1c-0.3,0.3-0.5,0.6-0.5,0.9c0,0.4,0.1,0.7,0.4,1C150.8,281.2,151.1,281.3,151.4,281.3z M158.1,282.2
			c-0.1,0-0.3,0-0.4-0.1c-0.1,0-0.1-0.1-0.1-0.2c0-0.1,0.1-0.2,0.2-0.3c0.1-0.1,0.2-0.1,0.4-0.1c0.3-0.1,0.6-0.2,0.8-0.3
			c0.2-0.1,0.3-0.3,0.3-0.6v-5.2c0-0.4-0.1-0.8-0.2-1.1c-0.1-0.3-0.4-0.5-0.8-0.6c-0.1,0-0.1,0-0.2-0.1c0-0.1,0-0.1,0-0.2
			c0-0.2,0.1-0.3,0.2-0.3c0.6-0.1,1.2-0.3,1.6-0.6c0.4-0.2,0.7-0.5,0.9-0.6c0.1-0.1,0.3-0.2,0.3-0.2c0.1,0,0.2,0,0.2,0.1
			c0,0.1,0,0.4-0.1,0.8c0,0.4-0.1,0.8-0.1,1.2c0,0.4,0,0.9,0,1.2v5.6c0,0.3,0.1,0.5,0.3,0.6c0.2,0.1,0.4,0.2,0.8,0.3
			c0.1,0,0.2,0.1,0.4,0.1c0.1,0,0.2,0.1,0.2,0.3c0,0.2-0.2,0.3-0.5,0.3c-0.3,0-0.5,0-0.7,0c-0.2,0-0.3,0-0.5,0c-0.2,0-0.4,0-0.7,0
			c-0.3,0-0.5,0-0.7,0c-0.2,0-0.4,0-0.5,0C158.6,282.1,158.4,282.2,158.1,282.2z M160.4,269.7c-0.3,0-0.6-0.1-0.9-0.3
			c-0.2-0.2-0.3-0.5-0.3-0.8c0-0.4,0.1-0.6,0.3-0.9c0.2-0.2,0.5-0.4,0.9-0.4s0.6,0.1,0.9,0.4c0.2,0.2,0.4,0.5,0.4,0.9
			c0,0.3-0.1,0.6-0.4,0.8C161,269.6,160.7,269.7,160.4,269.7z M163.9,282.2c-0.1,0-0.3,0-0.4-0.1c-0.1,0-0.1-0.1-0.1-0.2
			c0-0.1,0-0.2,0.1-0.2c0.1,0,0.2-0.1,0.4-0.1c0.2-0.1,0.5-0.2,0.7-0.3c0.2-0.1,0.3-0.3,0.3-0.6v-5.2c0-0.4,0-0.8-0.1-1.1
			c-0.1-0.3-0.3-0.5-0.8-0.6c-0.1,0-0.1-0.1-0.2-0.1c0,0-0.1-0.1-0.1-0.2c0-0.2,0.1-0.3,0.2-0.3c0.6-0.1,1-0.3,1.4-0.5
			c0.4-0.2,0.7-0.4,1-0.7c0.1,0,0.1-0.1,0.1-0.1c0,0,0.1,0,0.1,0c0,0,0.1,0,0.1,0c0,0,0,0.1,0,0.1c0,0.1,0,0.3-0.1,0.7
			s-0.1,0.6-0.1,0.9c0,0.1,0,0.1,0,0.2c0,0.1,0,0.1,0,0.1c0.6-0.5,1.2-0.9,1.8-1.2c0.6-0.3,1.3-0.4,2.1-0.4c0.8,0,1.4,0.3,1.9,1
			c0.5,0.6,0.8,1.4,0.8,2.4v5.1c0,0.3,0.1,0.5,0.3,0.6c0.2,0.1,0.5,0.2,0.7,0.3c0.1,0.1,0.3,0.1,0.4,0.2c0.1,0.1,0.2,0.1,0.2,0.3
			c0,0.1-0.1,0.2-0.2,0.2c-0.1,0-0.2,0-0.3,0c-0.3,0-0.6,0-0.8,0c-0.2,0-0.3,0-0.5,0c-0.2,0-0.4,0-0.7,0c-0.3,0-0.5,0-0.7,0
			c-0.2,0-0.4,0-0.5,0c-0.2,0-0.4,0-0.8,0c-0.1,0-0.2,0-0.3,0c-0.1,0-0.2-0.1-0.2-0.2c0-0.1,0.1-0.2,0.2-0.3
			c0.1-0.1,0.3-0.1,0.4-0.2c0.2-0.1,0.5-0.2,0.7-0.3c0.2-0.1,0.3-0.3,0.3-0.6v-5c0-0.7-0.2-1.2-0.6-1.6c-0.4-0.4-0.9-0.6-1.6-0.6
			c-0.6,0-1.1,0.1-1.5,0.3c-0.4,0.2-0.8,0.4-1.1,0.7c-0.1,0.1-0.1,0.1-0.1,0.2c0,0.1,0,0.2,0,0.3v5.8c0,0.3,0.1,0.5,0.3,0.6
			c0.2,0.1,0.5,0.2,0.7,0.3c0.4,0.1,0.5,0.2,0.5,0.4c0,0.1,0,0.2-0.1,0.2c-0.1,0-0.2,0.1-0.4,0.1c-0.3,0-0.6,0-0.8,0
			c-0.2,0-0.4,0-0.5,0c-0.2,0-0.4,0-0.7,0c-0.3,0-0.5,0-0.7,0c-0.2,0-0.3,0-0.5,0C164.5,282.1,164.2,282.2,163.9,282.2z
			 M180.1,282.4c-0.8,0-1.4-0.2-1.8-0.7c-0.4-0.5-0.7-1.2-0.7-2.1V274c0-0.1-0.1-0.2-0.2-0.3c-0.1-0.1-0.3-0.1-0.6-0.1h-0.1
			c-0.1,0-0.1-0.1-0.2-0.2c-0.1-0.1-0.1-0.2-0.1-0.3c0,0,0-0.1,0.1-0.1c0.1-0.1,0.1-0.1,0.1-0.1c0.3-0.2,0.6-0.5,0.9-0.7
			c0.3-0.2,0.5-0.4,0.7-0.7c0.2-0.2,0.4-0.4,0.5-0.6c0.1-0.1,0.2-0.2,0.2-0.2c0.1-0.1,0.1-0.1,0.2-0.1c0.1,0,0.2,0,0.2,0.1
			c0.1,0,0.1,0.1,0.1,0.2l-0.1,1.1c0,0.2,0,0.3,0.1,0.4c0.1,0.1,0.3,0.1,0.5,0.1h2.8c0.1,0,0.1,0.1,0.2,0.2c0.1,0.1,0.1,0.2,0.1,0.4
			c0,0.1,0,0.3-0.1,0.4c0,0.1-0.1,0.2-0.2,0.2h-2.4c-0.4,0-0.7,0-0.8,0.1c-0.1,0.1-0.2,0.2-0.2,0.6v4.7c0,0.6,0.1,1.1,0.4,1.5
			c0.3,0.4,0.7,0.5,1.2,0.5c0.5,0,0.8,0,1.1-0.1c0.3-0.1,0.5-0.2,0.7-0.3c0,0,0.1,0,0.1,0c0.1,0,0.1,0,0.1,0.1c0,0.1,0,0.2,0,0.2
			c0,0.1-0.1,0.2-0.4,0.5c-0.3,0.2-0.6,0.5-1,0.7C181,282.3,180.6,282.4,180.1,282.4z M186.5,282.4c-0.5,0-1-0.1-1.4-0.2
			c-0.4-0.2-0.8-0.4-1.1-0.6c-0.1-0.2-0.1-0.5-0.2-0.9c0-0.4-0.1-0.8-0.1-1c0-0.1,0.1-0.2,0.3-0.2c0.1,0,0.1,0,0.2,0
			c0.1,0,0.1,0.1,0.1,0.1c0.2,0.8,0.5,1.4,1,1.7c0.5,0.3,0.9,0.5,1.4,0.5s0.9-0.2,1.2-0.5c0.3-0.3,0.5-0.7,0.5-1.2
			c0-0.4-0.1-0.8-0.4-1.1s-0.8-0.7-1.5-1.1c-0.5-0.3-1-0.7-1.3-1c-0.3-0.3-0.6-0.6-0.7-0.9c-0.1-0.3-0.2-0.7-0.2-1.1
			c0-0.5,0.1-1,0.4-1.4c0.2-0.4,0.6-0.8,1.1-1s1.1-0.4,1.8-0.4c0.5,0,0.9,0.1,1.2,0.2c0.3,0.1,0.6,0.2,0.7,0.3
			c0.1,0.2,0.2,0.5,0.3,0.8c0.1,0.4,0.1,0.7,0.1,1.1c0,0.1-0.1,0.2-0.2,0.2c-0.1,0-0.2,0-0.3,0c-0.1,0-0.1-0.1-0.2-0.2
			c-0.2-0.5-0.5-0.9-0.8-1.2s-0.7-0.4-1.2-0.4c-0.4,0-0.8,0.1-1.1,0.4c-0.3,0.2-0.5,0.6-0.5,1.1c0,0.4,0.1,0.7,0.3,1
			c0.2,0.3,0.7,0.6,1.3,1c0.9,0.5,1.6,1,2.1,1.5c0.5,0.5,0.7,1.1,0.7,1.8c0,0.9-0.3,1.6-1,2.1C188.4,282.1,187.6,282.4,186.5,282.4z
			"/>
		<path class="st2" d="M332.6,213L332.6,213c3.6,0,6.6-2.9,6.6-6.6h-6.6l0,0c1.8,0,3.3-1.5,3.3-3.3c0-1.8-1.5-3.3-3.3-3.3h6.6v-85.3
			l0,0c0-3.6,2.9-6.6,6.6-6.6h182.9c3.6,0,6.6,2.9,6.6,6.6s-2.9,6.6-6.6,6.6H522v85.3c0,3.6-2.9,6.6-6.6,6.6H332.6z M352.2,114.6
			L352.2,114.6c0,3.6-2.9,6.6-6.6,6.6c-1.8,0-3.3-1.5-3.3-3.3c0-1.8,1.5-3.3,3.3-3.3H352.2z"/>
		<path class="st3" d="M352.2,114.6L352.2,114.6c0,3.6-2.9,6.6-6.6,6.6c-1.8,0-3.3-1.5-3.3-3.3c0-1.8,1.5-3.3,3.3-3.3H352.2z
			 M339.1,206.4c0,3.6-2.9,6.6-6.6,6.6s-6.6-2.9-6.6-6.6s2.9-6.6,6.6-6.6l0,0c1.8,0,3.3,1.5,3.3,3.3c0,1.8-1.5,3.3-3.3,3.3H339.1z"
			/>
		<path class="st1" d="M339.1,199.9v-85.3l0,0c0-3.6,2.9-6.6,6.6-6.6h182.9c3.6,0,6.6,2.9,6.6,6.6s-2.9,6.6-6.6,6.6H522v85.3
			c0,3.6-2.9,6.6-6.6,6.6H332.6l0,0c-3.6,0-6.6-2.9-6.6-6.6s2.9-6.6,6.6-6.6H339.1z M345.7,108L345.7,108c3.6,0,6.6,2.9,6.6,6.6
			s-2.9,6.6-6.6,6.6c-1.8,0-3.3-1.5-3.3-3.3c0-1.8,1.5-3.3,3.3-3.3h6.6 M522,121.2H345.7 M332.6,199.9L332.6,199.9
			c1.8,0,3.3,1.5,3.3,3.3c0,1.8-1.5,3.3-3.3,3.3h6.6 M332.6,213L332.6,213c3.6,0,6.6-2.9,6.6-6.6v-6.6"/>
		<path class="st4" d="M339.1,199.9v-85.3l0,0c0-3.6,2.9-6.6,6.6-6.6h182.9c3.6,0,6.6,2.9,6.6,6.6s-2.9,6.6-6.6,6.6H522v85.3
			c0,3.6-2.9,6.6-6.6,6.6H332.6l0,0c-3.6,0-6.6-2.9-6.6-6.6s2.9-6.6,6.6-6.6H339.1z M345.7,108L345.7,108c3.6,0,6.6,2.9,6.6,6.6
			s-2.9,6.6-6.6,6.6c-1.8,0-3.3-1.5-3.3-3.3c0-1.8,1.5-3.3,3.3-3.3h6.6 M522,121.2H345.7 M332.6,199.9L332.6,199.9
			c1.8,0,3.3,1.5,3.3,3.3c0,1.8-1.5,3.3-3.3,3.3h6.6 M332.6,213L332.6,213c3.6,0,6.6-2.9,6.6-6.6v-6.6"/>
		<path d="M353,158.2c-0.7,0-1.3-0.1-1.9-0.3c-0.6-0.2-1.1-0.5-1.5-0.8c-0.1-0.1-0.1-0.1-0.2-0.2c-0.1-0.1-0.1-0.2-0.1-0.3
			c-0.1-0.3-0.1-0.7-0.2-1.2c0-0.5-0.1-0.9-0.1-1.3c0-0.1,0-0.2,0.1-0.2c0.1-0.1,0.2-0.1,0.3-0.1c0.1,0,0.2,0,0.2,0.1
			c0.1,0,0.1,0.1,0.2,0.2c0.3,1.2,0.8,2.1,1.4,2.7c0.6,0.5,1.3,0.8,2,0.8c0.6,0,1.1-0.1,1.5-0.4c0.4-0.2,0.8-0.6,1-1
			c0.3-0.4,0.4-1,0.4-1.6c0-0.6-0.1-1.2-0.3-1.6c-0.2-0.4-0.5-0.8-0.9-1.1c-0.4-0.3-0.9-0.6-1.5-1c-0.6-0.4-1.2-0.8-1.9-1.2
			c-0.6-0.4-1.1-0.9-1.5-1.4c-0.4-0.5-0.6-1.2-0.6-2c0-0.8,0.2-1.6,0.5-2.2c0.4-0.7,0.9-1.2,1.7-1.6c0.8-0.4,1.7-0.6,2.8-0.6
			c0.6,0,1.1,0.1,1.5,0.2c0.4,0.1,0.8,0.2,1,0.3c0.1,0,0.2,0.1,0.3,0.2c0.1,0.1,0.2,0.2,0.2,0.4c0.1,0.3,0.2,0.7,0.3,1.2
			c0.1,0.4,0.2,0.8,0.2,1.2c0,0.2-0.1,0.3-0.4,0.3c-0.1,0-0.3,0-0.4-0.1c-0.1-0.1-0.2-0.1-0.2-0.2c-0.3-0.9-0.7-1.5-1.2-2
			c-0.4-0.4-1-0.7-1.7-0.7c-0.5,0-0.9,0.1-1.3,0.3c-0.4,0.2-0.8,0.5-1,0.9c-0.3,0.4-0.4,0.9-0.4,1.6c0,0.5,0.2,0.9,0.5,1.3
			c0.3,0.4,0.7,0.8,1.2,1.1c0.5,0.3,1.1,0.7,1.7,1.1c0.6,0.3,1.1,0.7,1.6,1.1c0.5,0.4,1,0.9,1.3,1.4c0.3,0.6,0.5,1.2,0.5,2
			c0,0.9-0.2,1.8-0.7,2.5c-0.4,0.7-1,1.3-1.8,1.6C355,158,354.1,158.2,353,158.2z M363.8,158.2c-0.8,0-1.4-0.2-1.8-0.7
			c-0.4-0.5-0.7-1.2-0.7-2.1v-5.6c0-0.1-0.1-0.2-0.2-0.3c-0.1-0.1-0.3-0.1-0.6-0.1h-0.1c-0.1,0-0.1-0.1-0.2-0.2
			c-0.1-0.1-0.1-0.2-0.1-0.3c0,0,0-0.1,0.1-0.1c0.1-0.1,0.1-0.1,0.1-0.1c0.3-0.2,0.6-0.5,0.9-0.7c0.3-0.2,0.5-0.4,0.7-0.7
			c0.2-0.2,0.4-0.4,0.5-0.6c0.1-0.1,0.2-0.2,0.2-0.2c0.1-0.1,0.1-0.1,0.2-0.1c0.1,0,0.2,0,0.2,0.1c0.1,0,0.1,0.1,0.1,0.2l-0.1,1.1
			c0,0.2,0,0.3,0.1,0.4c0.1,0.1,0.3,0.1,0.5,0.1h2.8c0.1,0,0.1,0.1,0.2,0.2c0.1,0.1,0.1,0.2,0.1,0.4c0,0.1,0,0.3-0.1,0.4
			c0,0.1-0.1,0.2-0.2,0.2H364c-0.4,0-0.7,0-0.8,0.1c-0.1,0.1-0.2,0.2-0.2,0.6v4.7c0,0.6,0.1,1.1,0.4,1.5c0.3,0.4,0.7,0.5,1.2,0.5
			c0.5,0,0.8,0,1.1-0.1c0.3-0.1,0.5-0.2,0.7-0.3c0,0,0.1,0,0.1,0c0.1,0,0.1,0,0.1,0.1c0,0.1,0,0.2,0,0.2c0,0.1-0.1,0.2-0.4,0.5
			c-0.3,0.2-0.6,0.5-1,0.7C364.8,158.1,364.3,158.2,363.8,158.2z M369.6,158.2c-0.3,0-0.6-0.1-0.9-0.3c-0.3-0.2-0.5-0.5-0.7-0.8
			c-0.2-0.3-0.3-0.6-0.3-0.9c0-0.5,0.1-0.9,0.4-1.2c0.3-0.3,0.7-0.6,1.3-0.8l2.5-1c0.3-0.1,0.5-0.2,0.5-0.3c0.1-0.1,0.1-0.3,0.1-0.6
			l0-1.5c0-0.4-0.1-0.8-0.4-1.1c-0.2-0.3-0.6-0.5-1.1-0.5c-0.2,0-0.5,0-0.7,0.1c-0.2,0.1-0.4,0.2-0.6,0.3c-0.1,0.1-0.2,0.2-0.2,0.3
			c0,0.1,0,0.3,0,0.4c0,0.1,0,0.1,0,0.2c0,0.1,0,0.1,0,0.2c0,0.1-0.1,0.2-0.3,0.3c-0.2,0.1-0.4,0.3-0.7,0.4
			c-0.2,0.1-0.4,0.2-0.6,0.2c-0.1,0-0.1,0-0.2-0.1c-0.1,0-0.1-0.1-0.1-0.2c0-0.2,0.1-0.5,0.2-0.8c0.2-0.3,0.4-0.6,0.7-0.8
			c0.4-0.3,0.8-0.6,1.2-0.9c0.4-0.3,0.9-0.5,1.3-0.6c0.4-0.1,0.8-0.2,1.1-0.2c0.6,0,1,0.2,1.4,0.6s0.6,0.9,0.5,1.5l-0.1,5.8
			c0,0.3,0.1,0.6,0.2,0.8c0.2,0.2,0.4,0.3,0.6,0.3c0.4,0,0.7-0.1,0.9-0.3c0.1-0.1,0.1-0.1,0.2-0.1c0.1,0,0.1,0,0.2,0.1
			c0.1,0,0.1,0.1,0.1,0.2c0,0.2-0.1,0.4-0.3,0.5c-0.2,0.2-0.5,0.5-0.8,0.6c-0.3,0.2-0.6,0.2-0.8,0.2c-0.7,0-1.3-0.4-1.8-1.2h-0.1
			c-0.5,0.4-1,0.7-1.5,0.9C370.6,158.1,370.1,158.2,369.6,158.2z M370.8,157c0.3,0,0.6-0.1,0.8-0.2c0.2-0.1,0.4-0.2,0.6-0.4
			c0.1-0.1,0.1-0.2,0.2-0.3c0.1-0.1,0.1-0.4,0.1-0.7l0.1-1.2c0-0.2,0-0.3,0-0.4c0-0.1-0.1-0.1-0.2-0.1c0,0-0.1,0-0.2,0
			c-0.1,0-0.2,0-0.3,0.1c-0.8,0.3-1.4,0.6-1.8,1c-0.3,0.3-0.5,0.6-0.5,0.9c0,0.4,0.1,0.7,0.4,1C370.2,156.9,370.5,157,370.8,157z
			 M381.1,164.8c-1.4,0-2.4-0.3-3.2-0.8c-0.8-0.5-1.2-1.2-1.2-2.1c0-0.4,0.1-0.8,0.2-1.1c0.1-0.3,0.3-0.5,0.6-0.7
			c0.2-0.2,0.5-0.4,0.9-0.7c0.4-0.3,0.8-0.6,1.2-0.9l1,0c-0.8,0.5-1.3,1-1.6,1.4c-0.3,0.4-0.5,1-0.5,1.6c0,0.6,0.3,1.2,0.8,1.6
			c0.6,0.4,1.3,0.7,2.1,0.7c0.9,0,1.7-0.2,2.3-0.6c0.4-0.3,0.7-0.7,0.9-1.2c0.2-0.5,0.3-1,0.3-1.5c0-0.3-0.1-0.6-0.4-0.9
			c-0.2-0.2-0.6-0.4-1.2-0.6c-0.5-0.1-1.2-0.2-2.1-0.3c-1.5-0.1-2.5-0.3-3.1-0.6c-0.6-0.3-0.9-0.7-0.9-1.3c0-0.2,0-0.3,0.1-0.4
			c0.1-0.1,0.2-0.3,0.4-0.4c0.4-0.3,0.6-0.5,0.8-0.6c0.2-0.1,0.3-0.2,0.4-0.3c0.1-0.1,0.2-0.2,0.2-0.4l0.8,0.4
			c-0.4,0.1-0.7,0.3-0.9,0.5c-0.2,0.2-0.4,0.4-0.4,0.6c0,0.2,0.1,0.4,0.4,0.6c0.2,0.2,0.6,0.3,1,0.4c0.5,0.1,1,0.2,1.7,0.2
			c1.5,0.1,2.6,0.3,3.3,0.7c0.7,0.4,1.1,1,1.1,1.7c0,0.6-0.2,1.2-0.5,1.8c-0.3,0.6-0.7,1.2-1.2,1.7c-0.5,0.5-1.1,0.9-1.7,1.2
			C382.4,164.6,381.7,164.8,381.1,164.8z M381.4,154.4c0.6,0,1.1-0.3,1.5-0.9c0.4-0.6,0.6-1.4,0.6-2.3c0-0.5-0.1-0.9-0.3-1.3
			c-0.2-0.4-0.5-0.7-0.8-1s-0.7-0.4-1.1-0.4c-0.4,0-0.7,0.1-1,0.4c-0.3,0.3-0.6,0.6-0.8,1c-0.2,0.4-0.3,0.9-0.3,1.4
			c0,0.6,0.1,1.1,0.3,1.6c0.2,0.5,0.5,0.8,0.8,1.1C380.6,154.3,380.9,154.4,381.4,154.4z M381.2,155.3c-0.7,0-1.3-0.2-1.9-0.5
			c-0.6-0.3-1.1-0.8-1.5-1.3c-0.4-0.6-0.6-1.2-0.6-1.8c0-0.8,0.2-1.4,0.6-2c0.4-0.6,0.9-1,1.5-1.3c0.6-0.3,1.3-0.5,2-0.5
			c0.5,0,0.9,0.1,1.2,0.2c0.3,0.1,0.7,0.2,1,0.3c0.4,0.1,0.7,0.2,0.9,0.2c0.2,0,0.5,0,0.7,0c0.2,0,0.4,0,0.7,0c0.3,0,0.5,0,0.6,0
			c0.2,0,0.3,0.1,0.3,0.4c0,0.1-0.1,0.3-0.2,0.5c-0.1,0.1-0.1,0.1-0.2,0.1h-0.7c-0.4,0-0.7,0.1-0.7,0.2c0,0.1,0,0.2-0.1,0.3
			c0,0.1,0,0.2-0.1,0.4c0,0.1,0,0.3,0,0.4c0,0.8-0.2,1.6-0.5,2.2c-0.4,0.7-0.8,1.2-1.4,1.7C382.5,155.1,381.9,155.3,381.2,155.3z
			 M391.9,158.2c-0.9,0-1.6-0.2-2.3-0.6c-0.7-0.4-1.2-1.1-1.5-1.8c-0.4-0.8-0.5-1.7-0.5-2.8c0-0.9,0.2-1.8,0.6-2.5
			c0.4-0.8,1-1.4,1.7-1.8c0.7-0.5,1.5-0.7,2.3-0.7c0.6,0,1.2,0.1,1.7,0.4c0.5,0.2,0.9,0.6,1.2,1.1c0.3,0.5,0.4,1,0.4,1.6
			c0,0.5-0.2,0.7-0.7,0.7h-5.1c-0.2,0-0.4,0.1-0.5,0.2c-0.1,0.1-0.1,0.3-0.1,0.7c0,0.8,0.2,1.5,0.5,2.1c0.3,0.6,0.8,1.1,1.3,1.5
			c0.6,0.4,1.2,0.6,1.9,0.6c0.5,0,0.9-0.1,1.3-0.3c0.4-0.2,0.7-0.5,1-0.8c0.1-0.1,0.1-0.1,0.2-0.1c0,0,0.1,0,0.1,0
			c0.1,0,0.2,0.1,0.2,0.2c0,0.3-0.1,0.6-0.4,1c-0.2,0.3-0.5,0.6-0.9,0.8c-0.3,0.2-0.7,0.4-1.1,0.5
			C392.8,158.1,392.4,158.2,391.9,158.2z M389.7,150.9h2.2c0.4,0,0.7,0,1,0c0.3,0,0.5-0.1,0.8-0.1c0.1,0,0.1-0.1,0.2-0.2
			c0-0.1,0-0.2,0-0.4c0-0.5-0.2-0.8-0.6-1.2c-0.4-0.3-0.9-0.5-1.5-0.5c-0.4,0-0.7,0.1-1.1,0.3c-0.4,0.2-0.7,0.5-0.9,0.8
			c-0.2,0.3-0.4,0.6-0.4,1C389.4,150.8,389.5,150.9,389.7,150.9z"/>
		<path d="M348.8,187c-0.2,0-0.4,0-0.5-0.1c-0.1-0.1-0.2-0.1-0.2-0.2c0-0.1,0.1-0.2,0.2-0.3c0.1-0.1,0.3-0.2,0.6-0.3
			c0.4-0.1,0.8-0.3,1.1-0.6c0.4-0.3,0.7-0.7,0.9-1.3c0.4-1,0.9-2,1.2-2.9c0.4-0.9,0.7-1.8,1.1-2.6c0.3-0.9,0.7-1.8,1-2.7
			c0.4-0.9,0.7-2,1.1-3.1c0.1-0.2,0.2-0.4,0.2-0.7c0.1-0.2,0.1-0.5,0.1-0.7c0.1-0.1,0.3-0.1,0.4-0.1c0.1-0.1,0.3-0.1,0.4-0.2
			c0.1-0.1,0.2-0.2,0.3-0.4c0.1-0.2,0.1-0.3,0.2-0.4c0,0,0,0,0,0c0,0,0.1,0,0.1,0c0,0.1,0.1,0.2,0.1,0.2c0,0.1,0,0.2,0.1,0.3
			c0.4,1.2,0.8,2.5,1.2,3.7c0.4,1.3,0.8,2.5,1.2,3.7c0.4,1.2,0.8,2.2,1.1,3.2c0.3,0.9,0.6,1.7,0.8,2.3c0.2,0.6,0.5,1.1,0.7,1.5
			c0.3,0.3,0.5,0.5,0.8,0.7c0.3,0.1,0.6,0.2,0.9,0.3c0.3,0.1,0.5,0.1,0.6,0.2c0.1,0.1,0.2,0.2,0.2,0.3c0,0.1-0.1,0.2-0.2,0.2
			c-0.1,0-0.3,0-0.5,0c-0.2,0-0.5,0-0.9,0c-0.4,0-0.8,0-1.2-0.1c-0.4,0-0.8,0-1.2,0c-0.3,0-0.6,0-1,0c-0.3,0-0.6,0-0.9,0
			c-0.3,0-0.5,0-0.7,0c-0.2,0-0.4,0-0.5-0.1c-0.1-0.1-0.2-0.1-0.2-0.2c0-0.1,0.1-0.2,0.2-0.3c0.2-0.1,0.3-0.1,0.5-0.2
			c0.5-0.1,0.9-0.2,1.1-0.4c0.2-0.2,0.3-0.4,0.3-0.7c0-0.2-0.1-0.6-0.2-1c-0.1-0.5-0.2-0.9-0.4-1.5c-0.1-0.5-0.3-1-0.4-1.4
			c0-0.1-0.1-0.2-0.2-0.2c-0.1,0-0.2,0-0.5,0h-4.5c-0.1,0-0.1,0-0.2,0.1c-0.1,0.1-0.1,0.2-0.2,0.3c0,0.2-0.1,0.4-0.2,0.8
			c-0.1,0.3-0.2,0.7-0.3,1.1c-0.1,0.4-0.2,0.7-0.3,1c-0.1,0.3-0.1,0.5-0.1,0.6c0,0.4,0.1,0.7,0.4,0.9c0.3,0.2,0.6,0.4,1,0.5
			c0.5,0.1,0.8,0.3,0.8,0.5c0,0.1-0.1,0.2-0.2,0.2c-0.1,0-0.3,0.1-0.5,0.1c-0.2,0-0.5,0-0.9,0c-0.4,0-0.8,0-1.3,0
			c-0.5,0-1,0-1.5,0.1C349.6,186.9,349.2,187,348.8,187z M354.4,180.1h3.7c0.2,0,0.3,0,0.3-0.1c0,0,0-0.1,0-0.1c0,0,0-0.1,0-0.1
			l-1.9-5.9c-0.1-0.3-0.2-0.4-0.2-0.4c0,0-0.1,0.1-0.2,0.4l-2.2,5.9c0,0.1,0,0.2,0,0.2c0,0.1,0,0.1,0.1,0.2
			C354.1,180.1,354.2,180.1,354.4,180.1z M373.3,187.3c0,0-0.1,0-0.2-0.1s-0.1-0.1-0.1-0.1c0-0.2,0-0.4,0.1-0.7
			c0-0.3,0.1-0.5,0.1-0.8v-0.2c-0.2,0.4-0.6,0.8-1.2,1.1c-0.5,0.4-1.2,0.6-2,0.6c-0.9,0-1.7-0.2-2.4-0.7c-0.7-0.5-1.2-1.1-1.5-1.9
			c-0.4-0.8-0.5-1.5-0.5-2.3c0-0.9,0.2-1.8,0.6-2.6c0.4-0.8,1.1-1.5,1.9-2c0.8-0.5,1.8-0.8,2.9-0.8c0.3,0,0.6,0,1,0.1
			c0.3,0.1,0.6,0.1,0.8,0.2c0.1,0.1,0.2,0.1,0.3,0.1c0.1,0,0.2-0.2,0.2-0.6v-3.4c0-0.7-0.1-1.1-0.3-1.3c-0.2-0.2-0.5-0.4-0.9-0.5
			c-0.1,0-0.2-0.1-0.2-0.3c0-0.1,0.1-0.2,0.2-0.3c0.7-0.2,1.3-0.3,1.7-0.5c0.4-0.2,0.7-0.3,0.9-0.4c0.1,0,0.1,0,0.2,0
			c0.1,0,0.1,0,0.1,0c0.1,0,0.2,0,0.2,0.1c0,0.1,0,0.3,0,0.5c0,0.2,0,0.6-0.1,1c0,0.4,0,1,0,1.8v10.8c0,0.5,0,0.9,0.1,1.2
			s0.2,0.4,0.4,0.4c0.1,0,0.2,0,0.4,0c0.2,0,0.4,0,0.6-0.1c0.3,0,0.4,0.1,0.4,0.2c0,0.1,0,0.2-0.1,0.3c-0.1,0.1-0.1,0.1-0.2,0.1
			c-0.4,0.1-0.9,0.2-1.3,0.3c-0.4,0.1-0.9,0.3-1.5,0.5c-0.1,0.1-0.2,0.1-0.2,0.1C373.4,187.3,373.3,187.3,373.3,187.3z M370.9,185.9
			c0.4,0,0.8-0.1,1.2-0.3c0.4-0.2,0.8-0.5,1.1-0.9l0-4.3c0-0.4-0.1-0.9-0.4-1.3c-0.2-0.4-0.6-0.8-1-1c-0.4-0.3-1-0.4-1.5-0.4
			c-0.4,0-0.8,0.1-1.3,0.3c-0.5,0.2-0.9,0.6-1.2,1.2c-0.3,0.6-0.5,1.4-0.5,2.5c0,0.9,0.1,1.6,0.4,2.2c0.3,0.6,0.6,1,1,1.3
			c0.4,0.3,0.8,0.5,1.2,0.6C370.3,185.9,370.6,185.9,370.9,185.9z M382,187.3c-0.1,0-0.1-0.1-0.2-0.4c-0.1-0.2-0.2-0.4-0.2-0.5
			c-0.1-0.3-0.2-0.6-0.3-0.8c-0.1-0.3-0.2-0.6-0.3-0.8c-0.4-1-0.7-2-1.1-2.9c-0.4-1-0.8-1.9-1.2-2.9c-0.1-0.3-0.3-0.6-0.5-0.8
			c-0.2-0.2-0.5-0.4-0.7-0.5c-0.1,0-0.2-0.1-0.3-0.1c-0.1-0.1-0.1-0.1-0.1-0.2c0-0.1,0.1-0.2,0.2-0.2c0.1,0,0.2,0,0.3,0
			c0.3,0,0.6,0,0.7,0c0.1,0,0.3,0,0.4,0.1c0.1,0,0.4,0,0.6,0s0.5,0,0.6,0c0.1,0,0.3-0.1,0.5-0.1c0.2,0,0.4,0,0.7,0
			c0.1,0,0.2,0,0.3,0c0.1,0,0.2,0.1,0.2,0.2c0,0.1-0.1,0.2-0.2,0.3c-0.1,0.1-0.2,0.1-0.4,0.2c-0.2,0.1-0.3,0.2-0.4,0.4
			c-0.1,0.2-0.1,0.4-0.1,0.6c0,0.1,0,0.2,0,0.3c0,0.1,0.1,0.2,0.1,0.3l1.9,5c0,0,0,0,0,0c0,0,0,0,0,0l1.8-4.7
			c0.1-0.2,0.1-0.3,0.1-0.5c0-0.2,0.1-0.3,0.1-0.5c0-0.3-0.1-0.6-0.2-0.7c-0.1-0.1-0.2-0.2-0.5-0.3c-0.2-0.1-0.4-0.1-0.4-0.2
			c-0.1-0.1-0.1-0.1-0.1-0.2c0-0.1,0.1-0.2,0.2-0.2c0.1,0,0.2,0,0.3,0c0.2,0,0.4,0,0.7,0.1c0.3,0,0.6,0.1,1.1,0.1
			c0.4,0,0.7,0,0.8-0.1c0.2,0,0.3-0.1,0.6-0.1c0.1,0,0.2,0,0.3,0c0.1,0,0.1,0.1,0.1,0.2c0,0.2-0.2,0.3-0.5,0.4
			c-0.2,0.1-0.5,0.3-0.8,0.6c-0.3,0.3-0.5,0.7-0.7,1l-1.9,4.5c0,0.1-0.1,0.2-0.2,0.5s-0.2,0.5-0.3,0.8c-0.1,0.3-0.2,0.5-0.3,0.8
			c-0.1,0.2-0.1,0.3-0.1,0.3s0,0.1-0.1,0.2c-0.1,0.1-0.1,0.3-0.2,0.5c-0.1,0.2-0.1,0.3-0.2,0.4H382z M389.8,187.2
			c-0.3,0-0.6-0.1-0.9-0.3c-0.3-0.2-0.5-0.5-0.7-0.8c-0.2-0.3-0.3-0.6-0.3-0.9c0-0.5,0.1-0.9,0.4-1.2c0.3-0.3,0.7-0.6,1.3-0.8l2.5-1
			c0.3-0.1,0.5-0.2,0.5-0.3c0.1-0.1,0.1-0.3,0.1-0.6l0-1.5c0-0.4-0.1-0.8-0.4-1.1c-0.2-0.3-0.6-0.5-1.1-0.5c-0.2,0-0.5,0-0.7,0.1
			c-0.2,0.1-0.4,0.2-0.6,0.3c-0.1,0.1-0.2,0.2-0.2,0.3c0,0.1,0,0.3,0,0.4c0,0.1,0,0.1,0,0.2c0,0.1,0,0.1,0,0.2
			c0,0.1-0.1,0.2-0.3,0.3c-0.2,0.1-0.4,0.3-0.7,0.4c-0.2,0.1-0.4,0.2-0.6,0.2c-0.1,0-0.1,0-0.2-0.1c-0.1,0-0.1-0.1-0.1-0.2
			c0-0.2,0.1-0.5,0.2-0.8c0.2-0.3,0.4-0.6,0.7-0.8c0.4-0.3,0.8-0.6,1.2-0.9c0.4-0.3,0.9-0.5,1.3-0.6c0.4-0.1,0.8-0.2,1.1-0.2
			c0.6,0,1,0.2,1.4,0.6s0.6,0.9,0.5,1.5l-0.1,5.8c0,0.3,0.1,0.6,0.2,0.8c0.2,0.2,0.4,0.3,0.6,0.3c0.4,0,0.7-0.1,0.9-0.3
			c0.1-0.1,0.1-0.1,0.2-0.1c0.1,0,0.1,0,0.2,0.1c0.1,0,0.1,0.1,0.1,0.2c0,0.2-0.1,0.4-0.3,0.5c-0.2,0.2-0.5,0.5-0.8,0.6
			c-0.3,0.2-0.6,0.2-0.8,0.2c-0.7,0-1.3-0.4-1.8-1.2h-0.1c-0.5,0.4-1,0.7-1.5,0.9C390.8,187.1,390.4,187.2,389.8,187.2z M391,186
			c0.3,0,0.6-0.1,0.8-0.2c0.2-0.1,0.4-0.2,0.6-0.4c0.1-0.1,0.1-0.2,0.2-0.3c0.1-0.1,0.1-0.4,0.1-0.7l0.1-1.2c0-0.2,0-0.3,0-0.4
			c0-0.1-0.1-0.1-0.2-0.1c0,0-0.1,0-0.2,0c-0.1,0-0.2,0-0.3,0.1c-0.8,0.3-1.4,0.6-1.8,1c-0.3,0.3-0.5,0.6-0.5,0.9
			c0,0.4,0.1,0.7,0.4,1C390.4,185.9,390.7,186,391,186z M397.7,186.9c-0.1,0-0.3,0-0.4-0.1c-0.1,0-0.1-0.1-0.1-0.2
			c0-0.1,0-0.2,0.1-0.2c0.1,0,0.2-0.1,0.4-0.1c0.2-0.1,0.5-0.2,0.7-0.3c0.2-0.1,0.3-0.3,0.3-0.6v-5.2c0-0.4,0-0.8-0.1-1.1
			c-0.1-0.3-0.3-0.5-0.8-0.6c-0.1,0-0.1-0.1-0.2-0.1c0,0-0.1-0.1-0.1-0.2c0-0.2,0.1-0.3,0.2-0.3c0.6-0.1,1-0.3,1.4-0.5
			c0.4-0.2,0.7-0.4,1-0.7c0.1,0,0.1-0.1,0.1-0.1c0,0,0.1,0,0.1,0c0,0,0.1,0,0.1,0c0,0,0,0.1,0,0.1c0,0.1,0,0.3-0.1,0.7
			c0,0.3-0.1,0.6-0.1,0.9c0,0.1,0,0.1,0,0.2c0,0.1,0,0.1,0,0.1c0.6-0.5,1.2-0.9,1.8-1.2c0.6-0.3,1.3-0.4,2.1-0.4
			c0.8,0,1.4,0.3,1.9,1c0.5,0.6,0.8,1.4,0.8,2.4v5.1c0,0.3,0.1,0.5,0.3,0.6c0.2,0.1,0.5,0.2,0.7,0.3c0.1,0.1,0.3,0.1,0.4,0.2
			c0.1,0.1,0.2,0.1,0.2,0.3c0,0.1-0.1,0.2-0.2,0.2c-0.1,0-0.2,0-0.3,0c-0.3,0-0.6,0-0.8,0c-0.2,0-0.3,0-0.5,0c-0.2,0-0.4,0-0.7,0
			c-0.3,0-0.5,0-0.7,0c-0.2,0-0.4,0-0.5,0c-0.2,0-0.4,0-0.8,0c-0.1,0-0.2,0-0.3,0c-0.1,0-0.2-0.1-0.2-0.2c0-0.1,0.1-0.2,0.2-0.3
			c0.1-0.1,0.3-0.1,0.4-0.2c0.2-0.1,0.5-0.2,0.7-0.3c0.2-0.1,0.3-0.3,0.3-0.6v-5c0-0.7-0.2-1.2-0.6-1.6c-0.4-0.4-0.9-0.6-1.6-0.6
			c-0.6,0-1.1,0.1-1.5,0.3c-0.4,0.2-0.8,0.4-1.1,0.7c-0.1,0.1-0.1,0.1-0.1,0.2c0,0.1,0,0.2,0,0.3v5.8c0,0.3,0.1,0.5,0.3,0.6
			c0.2,0.1,0.5,0.2,0.7,0.3c0.4,0.1,0.5,0.2,0.5,0.4c0,0.1,0,0.2-0.1,0.2c-0.1,0-0.2,0.1-0.4,0.1c-0.3,0-0.6,0-0.8,0
			c-0.2,0-0.4,0-0.5,0c-0.2,0-0.4,0-0.7,0c-0.3,0-0.5,0-0.7,0c-0.2,0-0.3,0-0.5,0C398.2,186.9,398,186.9,397.7,186.9z M414.4,187.2
			c-0.8,0-1.5-0.2-2.2-0.6c-0.6-0.4-1.2-1-1.5-1.7c-0.4-0.7-0.6-1.5-0.6-2.4c0-1,0.2-2,0.7-2.8c0.5-0.9,1.1-1.5,1.8-2
			c0.8-0.5,1.6-0.8,2.5-0.8c1,0,2,0.3,2.7,0.8c0.2,0.1,0.3,0.3,0.3,0.5c0,0.1-0.1,0.3-0.2,0.4c-0.1,0.2-0.2,0.3-0.4,0.4
			c-0.2,0.1-0.3,0.2-0.5,0.2c-0.1,0-0.2,0-0.2-0.1c-0.1-0.1-0.2-0.1-0.3-0.2c-0.4-0.3-0.8-0.5-1.2-0.8c-0.4-0.2-0.8-0.4-1.1-0.4
			c-0.8,0-1.4,0.4-1.9,1.1c-0.5,0.7-0.7,1.7-0.7,2.9c0,0.8,0.2,1.4,0.5,2c0.3,0.6,0.8,1.1,1.3,1.4c0.6,0.4,1.2,0.5,1.8,0.5
			c0.5,0,0.9-0.1,1.2-0.2c0.3-0.2,0.7-0.4,1.1-0.8c0,0,0.1-0.1,0.1-0.1c0.1,0,0.1,0,0.1,0c0.2,0,0.3,0.1,0.3,0.3
			c0,0.1,0,0.2-0.1,0.3c-0.1,0.1-0.1,0.2-0.3,0.4c-0.2,0.3-0.6,0.6-0.9,0.8c-0.4,0.2-0.7,0.4-1.2,0.5
			C415.3,187.1,414.9,187.2,414.4,187.2z M423.7,187.2c-0.9,0-1.6-0.2-2.3-0.6c-0.7-0.4-1.2-1.1-1.5-1.8c-0.4-0.8-0.5-1.7-0.5-2.8
			c0-0.9,0.2-1.8,0.6-2.5c0.4-0.8,1-1.4,1.7-1.8c0.7-0.5,1.5-0.7,2.3-0.7c0.6,0,1.2,0.1,1.7,0.4c0.5,0.2,0.9,0.6,1.2,1.1
			c0.3,0.5,0.4,1,0.4,1.6c0,0.5-0.2,0.7-0.7,0.7h-5.1c-0.2,0-0.4,0.1-0.5,0.2c-0.1,0.1-0.1,0.3-0.1,0.7c0,0.8,0.2,1.5,0.5,2.1
			c0.3,0.6,0.8,1.1,1.3,1.5c0.6,0.4,1.2,0.6,1.9,0.6c0.5,0,0.9-0.1,1.3-0.3c0.4-0.2,0.7-0.5,1-0.8c0.1-0.1,0.1-0.1,0.2-0.1
			c0,0,0.1,0,0.1,0c0.1,0,0.2,0.1,0.2,0.2c0,0.3-0.1,0.6-0.4,1c-0.2,0.3-0.5,0.6-0.9,0.8c-0.3,0.2-0.7,0.4-1.1,0.5
			C424.5,187.1,424.1,187.2,423.7,187.2z M421.5,179.9h2.2c0.4,0,0.7,0,1,0c0.3,0,0.5-0.1,0.8-0.1c0.1,0,0.1-0.1,0.2-0.2
			c0-0.1,0-0.2,0-0.4c0-0.5-0.2-0.8-0.6-1.2c-0.4-0.3-0.9-0.5-1.5-0.5c-0.4,0-0.7,0.1-1.1,0.3c-0.4,0.2-0.7,0.5-0.9,0.8
			c-0.2,0.3-0.4,0.6-0.4,1C421.2,179.8,421.3,179.9,421.5,179.9z M429,186.9c-0.1,0-0.2,0-0.3-0.1c-0.1,0-0.1-0.1-0.1-0.2
			c0-0.1,0.1-0.2,0.2-0.2c0.1-0.1,0.2-0.1,0.4-0.2c0.2-0.1,0.5-0.2,0.7-0.3c0.2-0.1,0.3-0.3,0.3-0.6v-5.2c0-0.4,0-0.8-0.1-1.1
			c-0.1-0.3-0.3-0.5-0.8-0.6c-0.1,0-0.1-0.1-0.2-0.1c0-0.1-0.1-0.1-0.1-0.2c0-0.2,0.1-0.2,0.2-0.3c0.4-0.1,0.8-0.2,1-0.3
			c0.3-0.1,0.5-0.3,0.7-0.4c0.2-0.2,0.4-0.3,0.7-0.5c0,0,0.1,0,0.1-0.1c0,0,0.1,0,0.1,0c0.1,0,0.1,0.1,0.1,0.2c0,0.1,0,0.3-0.1,0.7
			c0,0.3-0.1,0.6-0.1,0.9c0,0.2,0,0.2,0,0.3h0.1c0.4-0.4,0.8-0.7,1.4-1.1c0.6-0.4,1.4-0.5,2.3-0.5c0.6,0,1.1,0.1,1.4,0.4
			c0.4,0.2,0.7,0.7,1,1.3h0.1c0.5-0.5,1.1-0.8,1.8-1.2c0.7-0.3,1.4-0.5,2.2-0.5c0.5,0,1,0.2,1.3,0.5c0.4,0.3,0.6,0.7,0.8,1.2
			c0.2,0.5,0.3,1,0.3,1.6v5.1c0,0.3,0.1,0.5,0.3,0.6c0.2,0.1,0.5,0.2,0.7,0.3c0.2,0.1,0.3,0.1,0.4,0.2c0.1,0,0.2,0.1,0.2,0.2
			c0,0.1,0,0.2-0.1,0.2c-0.1,0-0.2,0.1-0.4,0.1c-0.3,0-0.6,0-0.8,0c-0.2,0-0.3,0-0.5,0c-0.1,0-0.4,0-0.6,0c-0.3,0-0.5,0-0.7,0
			c-0.2,0-0.4,0-0.6,0c-0.2,0-0.4,0-0.8,0c-0.1,0-0.3,0-0.4-0.1c-0.1,0-0.1-0.1-0.1-0.2c0-0.1,0.1-0.2,0.2-0.3
			c0.1-0.1,0.2-0.1,0.4-0.1c0.2-0.1,0.5-0.2,0.7-0.3c0.2-0.1,0.3-0.3,0.3-0.6v-5c0-0.4-0.1-0.8-0.3-1.1c-0.2-0.3-0.4-0.6-0.7-0.8
			c-0.3-0.2-0.6-0.3-1-0.3c-0.4,0-0.8,0.1-1.1,0.2c-0.3,0.1-0.7,0.3-1,0.5c-0.4,0.4-0.7,0.9-0.7,1.7v5c0,0.3,0.1,0.5,0.4,0.6
			c0.2,0.1,0.5,0.2,0.7,0.3c0.2,0,0.3,0.1,0.4,0.1c0.1,0.1,0.2,0.1,0.2,0.2c0,0.1,0,0.2-0.1,0.2c-0.1,0-0.2,0.1-0.4,0.1
			c-0.3,0-0.6,0-0.8,0c-0.2,0-0.3,0-0.5,0c-0.2,0-0.4,0-0.7,0c-0.3,0-0.5,0-0.7,0c-0.2,0-0.4,0-0.6,0c-0.2,0-0.4,0-0.8,0
			c-0.1,0-0.2,0-0.3-0.1c-0.1,0-0.1-0.1-0.1-0.2c0-0.1,0.1-0.2,0.2-0.2c0.1,0,0.2-0.1,0.4-0.1c0.2-0.1,0.5-0.2,0.7-0.3
			c0.2-0.1,0.4-0.3,0.4-0.6v-5c0-0.4-0.1-0.8-0.3-1.1c-0.2-0.3-0.4-0.6-0.7-0.8c-0.3-0.2-0.6-0.3-1-0.3c-0.4,0-0.8,0.1-1.1,0.2
			c-0.3,0.1-0.7,0.3-1,0.5c-0.4,0.3-0.6,0.9-0.6,1.7v5c0,0.3,0.1,0.5,0.3,0.6c0.2,0.1,0.5,0.2,0.7,0.3c0.1,0.1,0.2,0.1,0.4,0.1
			c0.1,0,0.2,0.1,0.2,0.2c0,0.1,0,0.2-0.1,0.2c-0.1,0-0.2,0.1-0.3,0.1c-0.3,0-0.6,0-0.8,0c-0.2,0-0.4,0-0.5,0c-0.2,0-0.4,0-0.7,0
			c-0.3,0-0.5,0-0.7,0c-0.2,0-0.3,0-0.5,0C429.5,186.9,429.3,186.9,429,186.9z M451.7,187.2c-0.9,0-1.6-0.2-2.3-0.6
			c-0.7-0.4-1.2-1.1-1.5-1.8c-0.4-0.8-0.5-1.7-0.5-2.8c0-0.9,0.2-1.8,0.6-2.5c0.4-0.8,1-1.4,1.7-1.8c0.7-0.5,1.5-0.7,2.3-0.7
			c0.6,0,1.2,0.1,1.7,0.4c0.5,0.2,0.9,0.6,1.2,1.1c0.3,0.5,0.4,1,0.4,1.6c0,0.5-0.2,0.7-0.7,0.7h-5.1c-0.2,0-0.4,0.1-0.5,0.2
			c-0.1,0.1-0.1,0.3-0.1,0.7c0,0.8,0.2,1.5,0.5,2.1c0.3,0.6,0.8,1.1,1.3,1.5c0.6,0.4,1.2,0.6,1.9,0.6c0.5,0,0.9-0.1,1.3-0.3
			c0.4-0.2,0.7-0.5,1-0.8c0.1-0.1,0.1-0.1,0.2-0.1c0,0,0.1,0,0.1,0c0.1,0,0.2,0.1,0.2,0.2c0,0.3-0.1,0.6-0.4,1
			c-0.2,0.3-0.5,0.6-0.9,0.8c-0.3,0.2-0.7,0.4-1.1,0.5C452.6,187.1,452.1,187.2,451.7,187.2z M449.5,179.9h2.2c0.4,0,0.7,0,1,0
			c0.3,0,0.5-0.1,0.8-0.1c0.1,0,0.1-0.1,0.2-0.2c0-0.1,0-0.2,0-0.4c0-0.5-0.2-0.8-0.6-1.2c-0.4-0.3-0.9-0.5-1.5-0.5
			c-0.4,0-0.7,0.1-1.1,0.3c-0.4,0.2-0.7,0.5-0.9,0.8c-0.2,0.3-0.4,0.6-0.4,1C449.2,179.8,449.3,179.9,449.5,179.9z M457,186.9
			c-0.1,0-0.3,0-0.4-0.1c-0.1,0-0.1-0.1-0.1-0.2c0-0.1,0-0.2,0.1-0.2c0.1,0,0.2-0.1,0.4-0.1c0.2-0.1,0.5-0.2,0.7-0.3
			c0.2-0.1,0.3-0.3,0.3-0.6v-5.2c0-0.4,0-0.8-0.1-1.1c-0.1-0.3-0.3-0.5-0.8-0.6c-0.1,0-0.1-0.1-0.2-0.1c0,0-0.1-0.1-0.1-0.2
			c0-0.2,0.1-0.3,0.2-0.3c0.6-0.1,1-0.3,1.4-0.5c0.4-0.2,0.7-0.4,1-0.7c0.1,0,0.1-0.1,0.1-0.1c0,0,0.1,0,0.1,0c0,0,0.1,0,0.1,0
			c0,0,0,0.1,0,0.1c0,0.1,0,0.3-0.1,0.7s-0.1,0.6-0.1,0.9c0,0.1,0,0.1,0,0.2c0,0.1,0,0.1,0,0.1c0.6-0.5,1.2-0.9,1.8-1.2
			c0.6-0.3,1.3-0.4,2.1-0.4c0.8,0,1.4,0.3,1.9,1c0.5,0.6,0.8,1.4,0.8,2.4v5.1c0,0.3,0.1,0.5,0.3,0.6c0.2,0.1,0.5,0.2,0.7,0.3
			c0.1,0.1,0.3,0.1,0.4,0.2c0.1,0.1,0.2,0.1,0.2,0.3c0,0.1-0.1,0.2-0.2,0.2c-0.1,0-0.2,0-0.3,0c-0.3,0-0.6,0-0.8,0
			c-0.2,0-0.3,0-0.5,0c-0.2,0-0.4,0-0.7,0c-0.3,0-0.5,0-0.7,0c-0.2,0-0.4,0-0.5,0c-0.2,0-0.4,0-0.8,0c-0.1,0-0.2,0-0.3,0
			c-0.1,0-0.2-0.1-0.2-0.2c0-0.1,0.1-0.2,0.2-0.3c0.1-0.1,0.3-0.1,0.4-0.2c0.2-0.1,0.5-0.2,0.7-0.3c0.2-0.1,0.3-0.3,0.3-0.6v-5
			c0-0.7-0.2-1.2-0.6-1.6c-0.4-0.4-0.9-0.6-1.6-0.6c-0.6,0-1.1,0.1-1.5,0.3c-0.4,0.2-0.8,0.4-1.1,0.7c-0.1,0.1-0.1,0.1-0.1,0.2
			c0,0.1,0,0.2,0,0.3v5.8c0,0.3,0.1,0.5,0.3,0.6c0.2,0.1,0.5,0.2,0.7,0.3c0.4,0.1,0.5,0.2,0.5,0.4c0,0.1,0,0.2-0.1,0.2
			c-0.1,0-0.2,0.1-0.4,0.1c-0.3,0-0.6,0-0.8,0c-0.2,0-0.4,0-0.5,0c-0.2,0-0.4,0-0.7,0c-0.3,0-0.5,0-0.7,0c-0.2,0-0.3,0-0.5,0
			C457.6,186.9,457.3,186.9,457,186.9z M473.2,187.2c-0.8,0-1.4-0.2-1.8-0.7c-0.4-0.5-0.7-1.2-0.7-2.1v-5.6c0-0.1-0.1-0.2-0.2-0.3
			c-0.1-0.1-0.3-0.1-0.6-0.1h-0.1c-0.1,0-0.1-0.1-0.2-0.2c-0.1-0.1-0.1-0.2-0.1-0.3c0,0,0-0.1,0.1-0.1c0.1-0.1,0.1-0.1,0.1-0.1
			c0.3-0.2,0.6-0.5,0.9-0.7c0.3-0.2,0.5-0.4,0.7-0.7c0.2-0.2,0.4-0.4,0.5-0.6c0.1-0.1,0.2-0.2,0.2-0.2c0.1-0.1,0.1-0.1,0.2-0.1
			c0.1,0,0.2,0,0.2,0.1c0.1,0,0.1,0.1,0.1,0.2l-0.1,1.1c0,0.2,0,0.3,0.1,0.4c0.1,0.1,0.3,0.1,0.5,0.1h2.8c0.1,0,0.1,0.1,0.2,0.2
			c0.1,0.1,0.1,0.2,0.1,0.4c0,0.1,0,0.3-0.1,0.4c0,0.1-0.1,0.2-0.2,0.2h-2.4c-0.4,0-0.7,0-0.8,0.1c-0.1,0.1-0.2,0.2-0.2,0.6v4.7
			c0,0.6,0.1,1.1,0.4,1.5c0.3,0.4,0.7,0.5,1.2,0.5c0.5,0,0.8,0,1.1-0.1c0.3-0.1,0.5-0.2,0.7-0.3c0,0,0.1,0,0.1,0
			c0.1,0,0.1,0,0.1,0.1c0,0.1,0,0.2,0,0.2c0,0.1-0.1,0.2-0.4,0.5c-0.3,0.2-0.6,0.5-1,0.7C474.1,187.1,473.7,187.2,473.2,187.2z"/>
		<path class="st1" d="M65.2,95.8c-12.5,0-25,40.8-25,81.6S52.7,259,65.3,259"/>
		<path class="st5" d="M65.2,95.8c-12.5,0-25,40.8-25,81.6c0,10.2,0.8,20.4,2.2,30c0.3,2.4,0.7,4.7,1.1,7l0.3,1.7"/>
		<path class="st6" d="M32,222L60,248.6l-4.4-38.4L32,222z"/>
		<path class="st1" d="M218.8,95.8c12.5,0,25,40.8,25,81.6S231.4,259,218.9,259"/>
		<path class="st5" d="M240.2,138.8l0.3,1.6c0.4,2.3,0.8,4.7,1.1,7c1.4,9.6,2.1,19.8,2.2,30c0,40.8-12.5,81.6-24.9,81.6"/>
		<path class="st6" d="M252.1,132.9l-28-26.6l4.4,38.4L252.1,132.9z"/>
		<path class="st1" d="M218.8,95.8c26.8,0,38.6,16.2,53.6,32.3s33.3,32.3,66.7,32.3"/>
		<path class="st7" d="M218.8,95.8c26.8,0,38.6,16.2,53.6,32.3c3.8,4,7.7,8.1,12.1,11.9c2.2,1.9,4.4,3.7,6.8,5.5
			c0.3,0.2,0.6,0.4,0.9,0.6l0.9,0.6"/>
		<path class="st8" d="M289.3,159.4l38.6-2.3l-31-23.1L289.3,159.4z"/>
	</g>
</g>
</svg>
