<svg version="1.1" viewBox="0.0 0.0 1280.0 960.0" fill="none" stroke="none" stroke-linecap="square" stroke-miterlimit="10" xmlns:xlink="http://www.w3.org/1999/xlink" xmlns="http://www.w3.org/2000/svg"><clipPath id="p.0"><path d="m0 0l1280.0 0l0 960.0l-1280.0 0l0 -960.0z" clip-rule="nonzero"/></clipPath><g clip-path="url(#p.0)"><path fill="#000000" fill-opacity="0.0" d="m0 0l1280.0 0l0 960.0l-1280.0 0z" fill-rule="evenodd"/><path fill="#ff9900" d="m329.83203 160.44423l0 0c0 4.3693542 -3.5420837 7.9114075 -7.911438 7.9114075l0 -7.9114075l0 0c0 2.1846771 -1.7710266 3.9557037 -3.9556885 3.9557037c-2.1846924 0 -3.955719 -1.7710266 -3.955719 -3.9557037l0 7.9114075l-129.90355 0l0 0c-4.3693542 0 -7.9114075 3.5420685 -7.9114075 7.9114227l0 94.93701c0 4.3693542 3.5420532 7.9114075 7.9114075 7.9114075c4.3693542 0 7.9114227 -3.5420532 7.9114227 -7.9114075l0 -7.9114075l129.90353 0c4.3693542 0 7.911438 -3.5420837 7.911438 -7.9114227zm-145.7264 23.734253c4.3693542 0 7.9114227 -3.5420685 7.9114227 -7.9114227c0 -2.1846771 -1.7710266 -3.9557037 -3.9557037 -3.9557037c-2.1846771 0 -3.955719 1.7710266 -3.955719 3.9557037z" fill-rule="evenodd"/><path fill="#cb7a00" d="m184.10564 184.17848c4.3693542 0 7.9114227 -3.5420685 7.9114227 -7.9114227c0 -2.1846771 -1.7710266 -3.9557037 -3.9557037 -3.9557037c-2.1846771 0 -3.955719 1.7710266 -3.955719 3.9557037zm137.81496 -15.822845c4.3693542 0 7.911438 -3.5420532 7.911438 -7.9114075c0 -4.3693542 -3.5420837 -7.9114227 -7.911438 -7.9114227c-4.3693542 0 -7.9114075 3.5420685 -7.9114075 7.9114227c0 2.1846771 1.7710266 3.9557037 3.955719 3.9557037c2.1846619 0 3.9556885 -1.7710266 3.9556885 -3.9557037z" fill-rule="evenodd"/><path fill="#000000" fill-opacity="0.0" d="m176.19423 176.26706c0 -4.3693542 3.5420532 -7.9114227 7.9114075 -7.9114227l129.90355 0l0 -7.9114075l0 0c0 -4.3693542 3.5420532 -7.9114227 7.9114075 -7.9114227c4.3693542 0 7.911438 3.5420685 7.911438 7.9114227l0 94.93701c0 4.369339 -3.5420837 7.9114227 -7.911438 7.9114227l-129.90353 0l0 7.9114075c0 4.3693542 -3.5420685 7.9114075 -7.9114227 7.9114075c-4.3693542 0 -7.9114075 -3.5420532 -7.9114075 -7.9114075zm137.81496 -7.9114227l7.9114075 0c4.3693542 0 7.911438 -3.5420532 7.911438 -7.9114075m-7.911438 7.9114075l0 -7.9114075l0 0c0 2.1846771 -1.7710266 3.9557037 -3.9556885 3.9557037c-2.1846924 0 -3.955719 -1.7710266 -3.955719 -3.9557037m-129.90355 23.734253l0 -7.9114227l0 0c0 -2.1846771 1.7710419 -3.9557037 3.955719 -3.9557037c2.1846771 0 3.9557037 1.7710266 3.9557037 3.9557037c0 4.3693542 -3.5420685 7.9114227 -7.9114227 7.9114227c-4.3693542 0 -7.9114075 -3.5420685 -7.9114075 -7.9114227m15.82283 0l0 87.025604" fill-rule="evenodd"/><path stroke="#233a44" stroke-width="4.0" stroke-linejoin="round" stroke-linecap="butt" d="m176.19423 176.26706c0 -4.3693542 3.5420532 -7.9114227 7.9114075 -7.9114227l129.90355 0l0 -7.9114075l0 0c0 -4.3693542 3.5420532 -7.9114227 7.9114075 -7.9114227c4.3693542 0 7.911438 3.5420685 7.911438 7.9114227l0 94.93701c0 4.369339 -3.5420837 7.9114227 -7.911438 7.9114227l-129.90353 0l0 7.9114075c0 4.3693542 -3.5420685 7.9114075 -7.9114227 7.9114075c-4.3693542 0 -7.9114075 -3.5420532 -7.9114075 -7.9114075zm137.81496 -7.9114227l7.9114075 0c4.3693542 0 7.911438 -3.5420532 7.911438 -7.9114075m-7.911438 7.9114075l0 -7.9114075l0 0c0 2.1846771 -1.7710266 3.9557037 -3.9556885 3.9557037c-2.1846924 0 -3.955719 -1.7710266 -3.955719 -3.9557037m-129.90355 23.734253l0 -7.9114227l0 0c0 -2.1846771 1.7710419 -3.9557037 3.955719 -3.9557037c2.1846771 0 3.9557037 1.7710266 3.9557037 3.9557037c0 4.3693542 -3.5420685 7.9114227 -7.9114227 7.9114227c-4.3693542 0 -7.9114075 -3.5420685 -7.9114075 -7.9114227m15.82283 0l0 87.025604" fill-rule="evenodd"/><path fill="#000000" d="m202.28268 209.98915q-0.3125 0 -0.5 -0.0625q-0.1875 -0.0625 -0.1875 -0.203125q0 -0.296875 0.796875 -0.4375q0.90625 -0.171875 1.328125 -0.546875q0.421875 -0.390625 0.421875 -1.28125l0 -10.125q0 -1.078125 -0.28125 -1.65625q-0.28125 -0.578125 -1.1875 -0.734375q-0.40625 -0.078125 -0.609375 -0.1875q-0.1875 -0.125 -0.1875 -0.296875q0 -0.140625 0.1875 -0.203125q0.203125 -0.0625 0.515625 -0.0625q0.640625 0 0.96875 0q0.328125 0 0.609375 0.015625q0.296875 0.015625 0.765625 0.015625q0.484375 0 0.96875 -0.03125q0.5 -0.046875 0.921875 -0.078125q0.4375 -0.046875 0.78125 -0.046875q2.734375 0 4.390625 1.140625q1.671875 1.125 1.671875 3.140625q0 1.453125 -0.578125 2.703125q-0.5625 1.234375 -1.75 1.984375q-1.1875 0.734375 -3.046875 0.734375q-0.515625 0 -0.796875 -0.15625q-0.28125 -0.15625 -0.28125 -0.296875q0 -0.09375 0.125 -0.21875q0.140625 -0.125 0.265625 -0.125q0.125 0 0.375 0.03125q0.25 0.015625 0.734375 0.015625q1.4375 0 2.15625 -1.1875q0.734375 -1.203125 0.734375 -3.328125q0 -1.90625 -1.125 -2.828125q-1.125 -0.9375 -2.875 -0.9375q-0.671875 0 -1.109375 0.234375q-0.421875 0.234375 -0.421875 0.78125l0 11.453125q0 0.859375 0.359375 1.390625q0.359375 0.515625 1.234375 0.6875q0.421875 0.078125 0.609375 0.171875q0.1875 0.09375 0.1875 0.265625q0 0.140625 -0.1875 0.203125q-0.1875 0.0625 -0.5 0.0625q-0.65625 0 -1.0 -0.046875q-0.34375 -0.046875 -0.625 -0.078125q-0.28125 -0.046875 -0.734375 -0.046875q-0.59375 0 -1.0625 0.046875q-0.46875 0.03125 -0.9375 0.078125q-0.46875 0.046875 -1.125 0.046875zm13.154205 -0.046875q-0.234375 0 -0.359375 -0.0625q-0.109375 -0.0625 -0.109375 -0.203125q0 -0.203125 0.140625 -0.25q0.140625 -0.0625 0.40625 -0.140625q0.453125 -0.125 0.671875 -0.34375q0.234375 -0.234375 0.234375 -0.5625l0 -5.15625q0 -0.65625 -0.1875 -1.125q-0.1875 -0.484375 -0.796875 -0.609375q-0.09375 -0.03125 -0.171875 -0.125q-0.0625 -0.09375 -0.0625 -0.1875q0 -0.234375 0.21875 -0.28125q0.625 -0.203125 1.296875 -0.5625q0.6875 -0.375 1.078125 -0.625q0.140625 -0.09375 0.21875 -0.125q0.09375 -0.03125 0.140625 -0.03125q0.125 0 0.125 0.15625q0 0.078125 -0.015625 0.375q-0.015625 0.28125 -0.03125 0.671875q-0.015625 0.375 -0.03125 0.75q0 0.0625 0.046875 0.0625q0.390625 -0.484375 0.84375 -0.84375q0.46875 -0.359375 0.953125 -0.578125q0.5 -0.21875 0.96875 -0.21875q0.5 0 0.8125 0.21875q0.328125 0.21875 0.328125 0.546875q0 0.25 -0.140625 0.53125q-0.125 0.28125 -0.34375 0.5q-0.203125 0.21875 -0.453125 0.21875q-0.140625 0 -0.3125 -0.0625q-0.15625 -0.0625 -0.359375 -0.15625q-0.1875 -0.0625 -0.375 -0.140625q-0.1875 -0.078125 -0.390625 -0.078125q-0.578125 0 -1.125 0.421875q-0.53125 0.40625 -0.53125 1.59375l0 4.859375q0 0.3125 0.328125 0.515625q0.34375 0.203125 0.953125 0.390625q0.265625 0.078125 0.40625 0.15625q0.140625 0.0625 0.140625 0.234375q0 0.265625 -0.484375 0.265625q-0.71875 0 -1.09375 -0.0625q-0.359375 -0.0625 -0.984375 -0.0625q-0.40625 0 -0.671875 0.03125q-0.25 0.015625 -0.53125 0.046875q-0.265625 0.046875 -0.75 0.046875zm11.953476 0.28125q-1.3125 0 -2.296875 -0.640625q-0.984375 -0.65625 -1.546875 -1.84375q-0.546875 -1.1875 -0.546875 -2.75q0 -1.390625 0.625 -2.53125q0.640625 -1.140625 1.703125 -1.828125q1.0625 -0.703125 2.3125 -0.703125q0.953125 0 1.6875 0.390625q0.75 0.375 1.171875 1.0625q0.421875 0.6875 0.421875 1.578125q0 0.734375 -0.71875 0.734375l-5.0625 0q-0.34375 0 -0.484375 0.1875q-0.125 0.171875 -0.125 0.703125q0 1.15625 0.5 2.109375q0.515625 0.9375 1.34375 1.5q0.84375 0.5625 1.859375 0.5625q0.71875 0 1.296875 -0.265625q0.59375 -0.28125 1.046875 -0.8125q0.109375 -0.109375 0.15625 -0.140625q0.046875 -0.046875 0.109375 -0.046875q0.203125 0 0.203125 0.234375q0 0.453125 -0.4375 1.015625q-0.359375 0.453125 -0.875 0.796875q-0.5 0.328125 -1.09375 0.5q-0.59375 0.1875 -1.25 0.1875zm-2.203125 -7.265625l2.1875 0q0.5625 0 0.96875 -0.015625q0.421875 -0.03125 0.796875 -0.109375q0.125 -0.03125 0.15625 -0.15625q0.046875 -0.125 0.046875 -0.375q0 -0.6875 -0.625 -1.171875q-0.609375 -0.5 -1.453125 -0.5q-0.546875 0 -1.09375 0.328125q-0.546875 0.3125 -0.921875 0.796875q-0.359375 0.484375 -0.359375 0.953125q0 0.25 0.296875 0.25zm9.906845 7.25q-0.734375 0 -1.390625 -0.234375q-0.640625 -0.234375 -1.109375 -0.640625q-0.109375 -0.265625 -0.171875 -0.890625q-0.0625 -0.625 -0.078125 -1.03125q0 -0.203125 0.3125 -0.203125q0.09375 0 0.171875 0.03125q0.078125 0.03125 0.109375 0.125q0.3125 1.1875 0.984375 1.6875q0.6875 0.5 1.390625 0.5q0.703125 0 1.1875 -0.46875q0.5 -0.46875 0.5 -1.15625q0 -0.65625 -0.4375 -1.125q-0.4375 -0.46875 -1.515625 -1.140625q-0.8125 -0.5 -1.328125 -0.953125q-0.5 -0.453125 -0.734375 -0.9375q-0.21875 -0.484375 -0.21875 -1.078125q0 -0.765625 0.359375 -1.390625q0.359375 -0.625 1.078125 -1.0q0.71875 -0.375 1.8125 -0.375q0.71875 0 1.1875 0.15625q0.484375 0.140625 0.71875 0.296875q0.203125 0.265625 0.328125 0.828125q0.140625 0.5625 0.140625 1.078125q0 0.15625 -0.25 0.15625q-0.140625 0 -0.28125 -0.046875q-0.125 -0.0625 -0.171875 -0.15625q-0.3125 -0.796875 -0.78125 -1.21875q-0.46875 -0.421875 -1.15625 -0.421875q-0.609375 0 -1.078125 0.359375q-0.46875 0.359375 -0.46875 1.0625q0 0.546875 0.34375 0.984375q0.359375 0.421875 1.3125 0.984375q1.390625 0.78125 2.078125 1.46875q0.6875 0.6875 0.6875 1.8125q0 1.296875 -0.984375 2.125q-0.984375 0.8125 -2.546875 0.8125zm9.408234 0.015625q-1.3125 0 -2.296875 -0.640625q-0.984375 -0.65625 -1.546875 -1.84375q-0.546875 -1.1875 -0.546875 -2.75q0 -1.390625 0.625 -2.53125q0.640625 -1.140625 1.703125 -1.828125q1.0625 -0.703125 2.3125 -0.703125q0.953125 0 1.6875 0.390625q0.75 0.375 1.171875 1.0625q0.421875 0.6875 0.421875 1.578125q0 0.734375 -0.71875 0.734375l-5.0625 0q-0.34375 0 -0.484375 0.1875q-0.125 0.171875 -0.125 0.703125q0 1.15625 0.5 2.109375q0.515625 0.9375 1.34375 1.5q0.84375 0.5625 1.859375 0.5625q0.71875 0 1.296875 -0.265625q0.59375 -0.28125 1.046875 -0.8125q0.109375 -0.109375 0.15625 -0.140625q0.046875 -0.046875 0.109375 -0.046875q0.203125 0 0.203125 0.234375q0 0.453125 -0.4375 1.015625q-0.359375 0.453125 -0.875 0.796875q-0.5 0.328125 -1.09375 0.5q-0.59375 0.1875 -1.25 0.1875zm-2.203125 -7.265625l2.1875 0q0.5625 0 0.96875 -0.015625q0.421875 -0.03125 0.796875 -0.109375q0.125 -0.03125 0.15625 -0.15625q0.046875 -0.125 0.046875 -0.375q0 -0.6875 -0.625 -1.171875q-0.609375 -0.5 -1.453125 -0.5q-0.546875 0 -1.09375 0.328125q-0.546875 0.3125 -0.921875 0.796875q-0.359375 0.484375 -0.359375 0.953125q0 0.25 0.296875 0.25zm7.51622 6.984375q-0.21875 0 -0.359375 -0.0625q-0.125 -0.0625 -0.125 -0.203125q0 -0.203125 0.140625 -0.25q0.140625 -0.0625 0.40625 -0.140625q0.359375 -0.09375 0.6875 -0.265625q0.34375 -0.171875 0.34375 -0.640625l0 -5.15625q0 -0.65625 -0.140625 -1.109375q-0.125 -0.453125 -0.75 -0.625q-0.09375 -0.046875 -0.171875 -0.109375q-0.0625 -0.0625 -0.0625 -0.203125q0 -0.265625 0.21875 -0.28125q0.84375 -0.21875 1.359375 -0.53125q0.53125 -0.3125 1.03125 -0.703125q0.078125 -0.046875 0.140625 -0.078125q0.0625 -0.03125 0.125 -0.03125q0.046875 0 0.078125 0.046875q0.046875 0.046875 0.046875 0.109375q0 0.171875 -0.0625 0.6875q-0.0625 0.515625 -0.0625 0.859375q0 0.09375 0.015625 0.171875q0.015625 0.078125 0.03125 0.109375q0.84375 -0.796875 1.796875 -1.203125q0.953125 -0.40625 2.0781403 -0.40625q1.171875 0 1.9375 0.96875q0.765625 0.953125 0.765625 2.375l0 5.109375q0 0.46875 0.328125 0.625q0.34375 0.15625 0.703125 0.28125q0.203125 0.078125 0.375 0.15625q0.1875 0.078125 0.1875 0.28125q0 0.140625 -0.171875 0.171875q-0.171875 0.046875 -0.3125 0.046875q-0.484375 0 -0.75 -0.046875q-0.265625 -0.03125 -0.5 -0.046875q-0.234375 -0.03125 -0.671875 -0.03125q-0.40625 0 -0.671875 0.03125q-0.265625 0.015625 -0.546875 0.046875q-0.265625 0.046875 -0.75 0.046875q-0.125 0 -0.3125 -0.046875q-0.171875 -0.03125 -0.171875 -0.171875q0 -0.203125 0.171875 -0.28125q0.1875 -0.078125 0.390625 -0.15625q0.359375 -0.125 0.6875 -0.28125q0.34375 -0.15625 0.34375 -0.625l0 -5.046875q0 -1.046875 -0.59375 -1.640625q-0.578125 -0.59375 -1.5625153 -0.609375q-0.875 0 -1.53125 0.28125q-0.640625 0.265625 -1.140625 0.671875q-0.09375 0.09375 -0.140625 0.25q-0.046875 0.15625 -0.046875 0.3125l0 5.78125q0 0.46875 0.328125 0.640625q0.34375 0.171875 0.703125 0.265625q0.546875 0.140625 0.546875 0.390625q0 0.140625 -0.125 0.203125q-0.109375 0.0625 -0.359375 0.0625q-0.46875 0 -0.75 -0.046875q-0.28125 -0.03125 -0.515625 -0.046875q-0.234375 -0.03125 -0.671875 -0.03125q-0.40625 0 -0.65625 0.03125q-0.25 0.015625 -0.53125 0.046875q-0.28125 0.046875 -0.75 0.046875zm16.140732 0.265625q-1.171875 0 -1.828125 -0.71875q-0.65625 -0.734375 -0.65625 -2.140625l0 -5.578125q0 -0.1875 -0.15625 -0.265625q-0.140625 -0.09375 -0.625 -0.09375l-0.140625 0q-0.109375 0 -0.203125 -0.15625q-0.078125 -0.15625 -0.078125 -0.3125q0 -0.046875 0.0625 -0.140625q0.078125 -0.109375 0.109375 -0.125q0.46875 -0.34375 0.859375 -0.671875q0.40625 -0.34375 0.71875 -0.65625q0.328125 -0.328125 0.546875 -0.59375q0.125 -0.125 0.203125 -0.203125q0.09375 -0.09375 0.203125 -0.09375q0.125 0 0.234375 0.0625q0.109375 0.046875 0.078125 0.203125l-0.109375 1.078125q-0.03125 0.265625 0.109375 0.375q0.15625 0.09375 0.453125 0.09375l2.75 0q0.09375 0 0.15625 0.15625q0.078125 0.15625 0.078125 0.359375q0 0.21875 -0.078125 0.421875q-0.0625 0.203125 -0.15625 0.203125l-2.375 0q-0.609375 0 -0.796875 0.109375q-0.171875 0.09375 -0.171875 0.5625l0 4.734375q0 0.953125 0.40625 1.515625q0.40625 0.546875 1.171875 0.546875q0.703125 0 1.078125 -0.109375q0.390625 -0.109375 0.703125 -0.328125q0.046875 -0.046875 0.09375 -0.046875q0.09375 0 0.125 0.109375q0.046875 0.109375 0.046875 0.234375q0 0.109375 -0.40625 0.484375q-0.390625 0.359375 -1.03125 0.671875q-0.625 0.3125 -1.375 0.3125z" fill-rule="nonzero"/><path fill="#000000" d="m206.12643 239.22353q-1.203125 0 -2.171875 -0.609375q-0.96875 -0.609375 -1.53125 -1.671875q-0.5625 -1.078125 -0.5625 -2.390625q0 -1.5625 0.671875 -2.828125q0.6875 -1.28125 1.84375 -2.03125q1.15625 -0.765625 2.546875 -0.765625q1.5625 0 2.734375 0.84375q0.28125 0.21875 0.28125 0.453125q0 0.1875 -0.171875 0.4375q-0.15625 0.234375 -0.40625 0.390625q-0.234375 0.15625 -0.453125 0.15625q-0.109375 0 -0.234375 -0.078125q-0.125 -0.09375 -0.265625 -0.1875q-0.53125 -0.40625 -1.1875 -0.765625q-0.640625 -0.359375 -1.0625 -0.359375q-1.1875 0 -1.921875 1.09375q-0.71875 1.09375 -0.71875 2.859375q0 1.140625 0.484375 2.046875q0.5 0.90625 1.328125 1.4375q0.828125 0.53125 1.828125 0.53125q0.703125 0 1.203125 -0.21875q0.5 -0.234375 1.078125 -0.8125q0.046875 -0.046875 0.109375 -0.078125q0.078125 -0.046875 0.125 -0.046875q0.265625 0 0.265625 0.34375q0 0.140625 -0.078125 0.328125q-0.078125 0.171875 -0.28125 0.40625q-0.375 0.484375 -0.90625 0.84375q-0.53125 0.34375 -1.171875 0.5q-0.625 0.171875 -1.375 0.171875zm9.787979 -0.015625q-1.34375 0 -2.421875 -0.625q-1.078125 -0.625 -1.71875 -1.71875q-0.625 -1.09375 -0.625 -2.484375q0 -1.015625 0.390625 -1.96875q0.390625 -0.96875 1.109375 -1.75q0.734375 -0.796875 1.6875 -1.265625q0.953125 -0.46875 2.0625 -0.46875q1.390625 0 2.5 0.671875q1.125 0.671875 1.78125 1.765625q0.671875 1.09375 0.671875 2.390625q0 1.390625 -0.625 2.640625q-0.609375 1.25 -1.8125 2.03125q-1.1875 0.78125 -3.0 0.78125zm0.515625 -0.734375q0.8125 0 1.453125 -0.3125q0.65625 -0.3125 1.015625 -1.0q0.28125 -0.546875 0.375 -1.34375q0.109375 -0.796875 0.109375 -1.484375q0 -1.15625 -0.421875 -2.21875q-0.421875 -1.078125 -1.1875 -1.75q-0.75 -0.6875 -1.78125 -0.6875q-0.640625 0 -1.15625 0.203125q-0.515625 0.203125 -0.953125 0.75q-0.484375 0.609375 -0.625 1.46875q-0.140625 0.859375 -0.140625 1.71875q0 1.1875 0.421875 2.25q0.4375 1.0625 1.171875 1.734375q0.75 0.671875 1.71875 0.671875zm6.817459 0.46875q-0.21875 0 -0.359375 -0.0625q-0.125 -0.0625 -0.125 -0.203125q0 -0.203125 0.140625 -0.25q0.140625 -0.0625 0.40625 -0.140625q0.359375 -0.09375 0.6875 -0.265625q0.34375 -0.171875 0.34375 -0.640625l0 -5.15625q0 -0.65625 -0.140625 -1.109375q-0.125 -0.453125 -0.75 -0.625q-0.09375 -0.046875 -0.171875 -0.109375q-0.0625 -0.0625 -0.0625 -0.203125q0 -0.265625 0.21875 -0.28125q0.84375 -0.21875 1.359375 -0.53125q0.53125 -0.3125 1.03125 -0.703125q0.078125 -0.046875 0.140625 -0.078125q0.0625 -0.03125 0.125 -0.03125q0.046875 0 0.078125 0.046875q0.046875 0.046875 0.046875 0.109375q0 0.171875 -0.0625 0.6875q-0.0625 0.515625 -0.0625 0.859375q0 0.09375 0.015625 0.171875q0.015625 0.078125 0.03125 0.109375q0.84375 -0.796875 1.796875 -1.203125q0.953125 -0.40625 2.078125 -0.40625q1.171875 0 1.9375 0.96875q0.765625 0.953125 0.765625 2.375l0 5.109375q0 0.46875 0.328125 0.625q0.34375 0.15625 0.703125 0.28125q0.203125 0.078125 0.375 0.15625q0.1875 0.078125 0.1875 0.28125q0 0.140625 -0.171875 0.171875q-0.171875 0.046875 -0.3125 0.046875q-0.484375 0 -0.75 -0.046875q-0.265625 -0.03125 -0.5 -0.046875q-0.234375 -0.03125 -0.671875 -0.03125q-0.40625 0 -0.671875 0.03125q-0.265625 0.015625 -0.546875 0.046875q-0.265625 0.046875 -0.75 0.046875q-0.125 0 -0.3125 -0.046875q-0.171875 -0.03125 -0.171875 -0.171875q0 -0.203125 0.171875 -0.28125q0.1875 -0.078125 0.390625 -0.15625q0.359375 -0.125 0.6875 -0.28125q0.34375 -0.15625 0.34375 -0.625l0 -5.046875q0 -1.046875 -0.59375 -1.640625q-0.578125 -0.59375 -1.5625 -0.609375q-0.875 0 -1.53125 0.28125q-0.640625 0.265625 -1.140625 0.671875q-0.09375 0.09375 -0.140625 0.25q-0.046875 0.15625 -0.046875 0.3125l0 5.78125q0 0.46875 0.328125 0.640625q0.34375 0.171875 0.703125 0.265625q0.546875 0.140625 0.546875 0.390625q0 0.140625 -0.125 0.203125q-0.109375 0.0625 -0.359375 0.0625q-0.46875 0 -0.75 -0.046875q-0.28125 -0.03125 -0.515625 -0.046875q-0.234375 -0.03125 -0.671875 -0.03125q-0.40625 0 -0.65625 0.03125q-0.25 0.015625 -0.53125 0.046875q-0.28125 0.046875 -0.75 0.046875zm15.062592 0.265625q-0.734375 0 -1.390625 -0.234375q-0.640625 -0.234375 -1.109375 -0.640625q-0.109375 -0.265625 -0.171875 -0.890625q-0.0625 -0.625 -0.078125 -1.03125q0 -0.203125 0.3125 -0.203125q0.09375 0 0.171875 0.03125q0.078125 0.03125 0.109375 0.125q0.3125 1.1875 0.984375 1.6875q0.6875 0.5 1.390625 0.5q0.703125 0 1.1875 -0.46875q0.5 -0.46875 0.5 -1.15625q0 -0.65625 -0.4375 -1.125q-0.4375 -0.46875 -1.515625 -1.140625q-0.8125 -0.5 -1.328125 -0.953125q-0.5 -0.453125 -0.734375 -0.9375q-0.21875 -0.484375 -0.21875 -1.078125q0 -0.765625 0.359375 -1.390625q0.359375 -0.625 1.078125 -1.0q0.71875 -0.375 1.8125 -0.375q0.71875 0 1.1875 0.15625q0.484375 0.140625 0.71875 0.296875q0.203125 0.265625 0.328125 0.828125q0.140625 0.5625 0.140625 1.078125q0 0.15625 -0.25 0.15625q-0.140625 0 -0.28125 -0.046875q-0.125 -0.0625 -0.171875 -0.15625q-0.3125 -0.796875 -0.78125 -1.21875q-0.46875 -0.421875 -1.15625 -0.421875q-0.609375 0 -1.078125 0.359375q-0.46875 0.359375 -0.46875 1.0625q0 0.546875 0.34375 0.984375q0.359375 0.421875 1.3125 0.984375q1.390625 0.78125 2.078125 1.46875q0.6875 0.6875 0.6875 1.8125q0 1.296875 -0.984375 2.125q-0.984375 0.8125 -2.546875 0.8125zm8.830109 0q-1.171875 0 -1.828125 -0.71875q-0.65625 -0.734375 -0.65625 -2.140625l0 -5.578125q0 -0.1875 -0.15625 -0.265625q-0.140625 -0.09375 -0.625 -0.09375l-0.140625 0q-0.109375 0 -0.203125 -0.15625q-0.078125 -0.15625 -0.078125 -0.3125q0 -0.046875 0.0625 -0.140625q0.078125 -0.109375 0.109375 -0.125q0.46875 -0.34375 0.859375 -0.671875q0.40625 -0.34375 0.71875 -0.65625q0.328125 -0.328125 0.546875 -0.59375q0.125 -0.125 0.203125 -0.203125q0.09375 -0.09375 0.203125 -0.09375q0.125 0 0.234375 0.0625q0.109375 0.046875 0.078125 0.203125l-0.109375 1.078125q-0.03125 0.265625 0.109375 0.375q0.15625 0.09375 0.453125 0.09375l2.75 0q0.09375 0 0.15625 0.15625q0.078125 0.15625 0.078125 0.359375q0 0.21875 -0.078125 0.421875q-0.0625 0.203125 -0.15625 0.203125l-2.375 0q-0.609375 0 -0.796875 0.109375q-0.171875 0.09375 -0.171875 0.5625l0 4.734375q0 0.953125 0.40625 1.515625q0.40625 0.546875 1.171875 0.546875q0.703125 0 1.078125 -0.109375q0.390625 -0.109375 0.703125 -0.328125q0.046875 -0.046875 0.09375 -0.046875q0.09375 0 0.125 0.109375q0.046875 0.109375 0.046875 0.234375q0 0.109375 -0.40625 0.484375q-0.390625 0.359375 -1.03125 0.671875q-0.625 0.3125 -1.375 0.3125zm4.176605 -0.265625q-0.234375 0 -0.359375 -0.0625q-0.109375 -0.0625 -0.109375 -0.203125q0 -0.203125 0.140625 -0.25q0.140625 -0.0625 0.40625 -0.140625q0.453125 -0.125 0.671875 -0.34375q0.234375 -0.234375 0.234375 -0.5625l0 -5.15625q0 -0.65625 -0.1875 -1.125q-0.1875 -0.484375 -0.796875 -0.609375q-0.09375 -0.03125 -0.171875 -0.125q-0.0625 -0.09375 -0.0625 -0.1875q0 -0.234375 0.21875 -0.28125q0.625 -0.203125 1.296875 -0.5625q0.6875 -0.375 1.078125 -0.625q0.140625 -0.09375 0.21875 -0.125q0.09375 -0.03125 0.140625 -0.03125q0.125 0 0.125 0.15625q0 0.078125 -0.015625 0.375q-0.015625 0.28125 -0.03125 0.671875q-0.015625 0.375 -0.03125 0.75q0 0.0625 0.046875 0.0625q0.390625 -0.484375 0.84375 -0.84375q0.46875 -0.359375 0.953125 -0.578125q0.5 -0.21875 0.96875 -0.21875q0.5 0 0.8125 0.21875q0.328125 0.21875 0.328125 0.546875q0 0.25 -0.140625 0.53125q-0.125 0.28125 -0.34375 0.5q-0.203125 0.21875 -0.453125 0.21875q-0.140625 0 -0.3125 -0.0625q-0.15625 -0.0625 -0.359375 -0.15625q-0.1875 -0.0625 -0.375 -0.140625q-0.1875 -0.078125 -0.390625 -0.078125q-0.578125 0 -1.125 0.421875q-0.53125 0.40625 -0.53125 1.59375l0 4.859375q0 0.3125 0.328125 0.515625q0.34375 0.203125 0.953125 0.390625q0.265625 0.078125 0.40625 0.15625q0.140625 0.0625 0.140625 0.234375q0 0.265625 -0.484375 0.265625q-0.71875 0 -1.09375 -0.0625q-0.359375 -0.0625 -0.984375 -0.0625q-0.40625 0 -0.671875 0.03125q-0.25 0.015625 -0.53125 0.046875q-0.265625 0.046875 -0.75 0.046875zm9.656616 0.265625q-0.4375 0 -0.890625 -0.34375q-0.4375 -0.34375 -0.734375 -0.8125q-0.296875 -0.484375 -0.296875 -0.921875q0 -0.765625 0.40625 -1.1875q0.40625 -0.4375 1.296875 -0.796875l2.453125 -1.015625q0.46875 -0.1875 0.546875 -0.328125q0.09375 -0.140625 0.125 -0.625l0.046875 -1.53125q0.015625 -0.625 -0.359375 -1.078125q-0.359375 -0.46875 -1.0625 -0.46875q-0.359375 0 -0.71875 0.125q-0.359375 0.125 -0.59375 0.3125q-0.15625 0.09375 -0.203125 0.296875q-0.046875 0.1875 -0.046875 0.40625q0 0.09375 0.015625 0.21875q0.015625 0.109375 0.015625 0.203125q0 0.125 -0.3125 0.328125q-0.296875 0.203125 -0.671875 0.359375q-0.359375 0.15625 -0.609375 0.15625q-0.109375 0 -0.1875 -0.0625q-0.078125 -0.0625 -0.078125 -0.15625q0 -0.375 0.25 -0.8125q0.265625 -0.453125 0.71875 -0.84375q0.546875 -0.5 1.1875 -0.875q0.65625 -0.390625 1.28125 -0.609375q0.625 -0.21875 1.109375 -0.21875q0.859375 0 1.421875 0.609375q0.5625 0.609375 0.546875 1.53125l-0.125 5.75q-0.03125 0.515625 0.21875 0.828125q0.265625 0.3125 0.640625 0.3125q0.609375 0 0.890625 -0.265625q0.125 -0.125 0.1875 -0.125q0.125 0 0.1875 0.078125q0.078125 0.0625 0.078125 0.1875q0 0.265625 -0.265625 0.53125q-0.375 0.375 -0.828125 0.609375q-0.4375 0.234375 -0.828125 0.234375q-1.09375 0 -1.75 -1.25l-0.0625 0q-0.796875 0.640625 -1.515625 0.9375q-0.71875 0.3125 -1.484375 0.3125zm1.125 -1.15625q0.484375 0 0.8125 -0.15625q0.34375 -0.15625 0.609375 -0.421875q0.109375 -0.125 0.1875 -0.328125q0.09375 -0.203125 0.109375 -0.65625l0.0625 -1.171875q0.015625 -0.265625 -0.03125 -0.390625q-0.046875 -0.125 -0.1875 -0.125q-0.046875 0 -0.171875 0.03125q-0.125 0.015625 -0.3125 0.09375q-1.265625 0.453125 -1.765625 0.953125q-0.484375 0.484375 -0.484375 0.890625q0 0.625 0.359375 0.953125q0.375 0.328125 0.8125 0.328125zm6.7009583 0.890625q-0.21875 0 -0.359375 -0.0625q-0.125 -0.0625 -0.125 -0.203125q0 -0.203125 0.171875 -0.265625q0.1875 -0.078125 0.375 -0.125q0.5 -0.125 0.765625 -0.296875q0.265625 -0.1875 0.265625 -0.609375l0 -5.21875q0 -0.640625 -0.234375 -1.140625q-0.21875 -0.515625 -0.84375 -0.609375q-0.125 -0.015625 -0.1875 -0.078125q-0.046875 -0.078125 -0.046875 -0.234375q0 -0.265625 0.21875 -0.28125q0.953125 -0.21875 1.578125 -0.59375q0.625 -0.375 0.9375 -0.609375q0.21875 -0.171875 0.328125 -0.171875q0.15625 0 0.15625 0.125q0 0.1875 -0.0625 0.765625q-0.0625 0.5625 -0.109375 1.25q-0.046875 0.671875 -0.046875 1.21875l0 5.578125q0 0.40625 0.265625 0.59375q0.28125 0.1875 0.765625 0.3125q0.1875 0.046875 0.359375 0.125q0.1875 0.0625 0.1875 0.265625q0 0.265625 -0.484375 0.265625q-0.453125 0 -0.734375 -0.046875q-0.265625 -0.03125 -0.515625 -0.046875q-0.25 -0.03125 -0.6875 -0.03125q-0.40625 0 -0.671875 0.03125q-0.265625 0.015625 -0.53125 0.046875q-0.265625 0.046875 -0.734375 0.046875zm2.34375 -12.46875q-0.515625 0 -0.859375 -0.34375q-0.34375 -0.34375 -0.34375 -0.84375q0 -0.53125 0.34375 -0.875q0.34375 -0.359375 0.859375 -0.359375q0.515625 0 0.859375 0.359375q0.359375 0.34375 0.359375 0.875q0 0.5 -0.359375 0.84375q-0.34375 0.34375 -0.859375 0.34375zm3.536255 12.46875q-0.21875 0 -0.359375 -0.0625q-0.125 -0.0625 -0.125 -0.203125q0 -0.203125 0.140625 -0.25q0.140625 -0.0625 0.40625 -0.140625q0.359375 -0.09375 0.6875 -0.265625q0.34375 -0.171875 0.34375 -0.640625l0 -5.15625q0 -0.65625 -0.140625 -1.109375q-0.125 -0.453125 -0.75 -0.625q-0.09375 -0.046875 -0.171875 -0.109375q-0.0625 -0.0625 -0.0625 -0.203125q0 -0.265625 0.21875 -0.28125q0.84375 -0.21875 1.359375 -0.53125q0.53125 -0.3125 1.03125 -0.703125q0.078125 -0.046875 0.140625 -0.078125q0.0625 -0.03125 0.125 -0.03125q0.046875 0 0.078125 0.046875q0.046875 0.046875 0.046875 0.109375q0 0.171875 -0.0625 0.6875q-0.0625 0.515625 -0.0625 0.859375q0 0.09375 0.015625 0.171875q0.015625 0.078125 0.03125 0.109375q0.84375 -0.796875 1.796875 -1.203125q0.953125 -0.40625 2.078125 -0.40625q1.171875 0 1.9375 0.96875q0.765625 0.953125 0.765625 2.375l0 5.109375q0 0.46875 0.328125 0.625q0.34375 0.15625 0.703125 0.28125q0.203125 0.078125 0.375 0.15625q0.1875 0.078125 0.1875 0.28125q0 0.140625 -0.171875 0.171875q-0.171875 0.046875 -0.3125 0.046875q-0.484375 0 -0.75 -0.046875q-0.265625 -0.03125 -0.5 -0.046875q-0.234375 -0.03125 -0.671875 -0.03125q-0.40625 0 -0.671875 0.03125q-0.265625 0.015625 -0.546875 0.046875q-0.265625 0.046875 -0.75 0.046875q-0.125 0 -0.3125 -0.046875q-0.171875 -0.03125 -0.171875 -0.171875q0 -0.203125 0.171875 -0.28125q0.1875 -0.078125 0.390625 -0.15625q0.359375 -0.125 0.6875 -0.28125q0.34375 -0.15625 0.34375 -0.625l0 -5.046875q0 -1.046875 -0.59375 -1.640625q-0.578125 -0.59375 -1.5625 -0.609375q-0.875 0 -1.53125 0.28125q-0.640625 0.265625 -1.140625 0.671875q-0.09375 0.09375 -0.140625 0.25q-0.046875 0.15625 -0.046875 0.3125l0 5.78125q0 0.46875 0.328125 0.640625q0.34375 0.171875 0.703125 0.265625q0.546875 0.140625 0.546875 0.390625q0 0.140625 -0.125 0.203125q-0.109375 0.0625 -0.359375 0.0625q-0.46875 0 -0.75 -0.046875q-0.28125 -0.03125 -0.515625 -0.046875q-0.234375 -0.03125 -0.671875 -0.03125q-0.40625 0 -0.65625 0.03125q-0.25 0.015625 -0.53125 0.046875q-0.28125 0.046875 -0.75 0.046875zm16.140717 0.265625q-1.171875 0 -1.828125 -0.71875q-0.65625 -0.734375 -0.65625 -2.140625l0 -5.578125q0 -0.1875 -0.15625 -0.265625q-0.140625 -0.09375 -0.625 -0.09375l-0.140625 0q-0.109375 0 -0.203125 -0.15625q-0.078125 -0.15625 -0.078125 -0.3125q0 -0.046875 0.0625 -0.140625q0.078125 -0.109375 0.109375 -0.125q0.46875 -0.34375 0.859375 -0.671875q0.40625 -0.34375 0.71875 -0.65625q0.328125 -0.328125 0.546875 -0.59375q0.125 -0.125 0.203125 -0.203125q0.09375 -0.09375 0.203125 -0.09375q0.125 0 0.234375 0.0625q0.109375 0.046875 0.078125 0.203125l-0.109375 1.078125q-0.03125 0.265625 0.109375 0.375q0.15625 0.09375 0.453125 0.09375l2.75 0q0.09375 0 0.15625 0.15625q0.078125 0.15625 0.078125 0.359375q0 0.21875 -0.078125 0.421875q-0.0625 0.203125 -0.15625 0.203125l-2.375 0q-0.609375 0 -0.796875 0.109375q-0.171875 0.09375 -0.171875 0.5625l0 4.734375q0 0.953125 0.40625 1.515625q0.40625 0.546875 1.171875 0.546875q0.703125 0 1.078125 -0.109375q0.390625 -0.109375 0.703125 -0.328125q0.046875 -0.046875 0.09375 -0.046875q0.09375 0 0.125 0.109375q0.046875 0.109375 0.046875 0.234375q0 0.109375 -0.40625 0.484375q-0.390625 0.359375 -1.03125 0.671875q-0.625 0.3125 -1.375 0.3125zm6.457855 0q-0.734375 0 -1.390625 -0.234375q-0.640625 -0.234375 -1.109375 -0.640625q-0.109375 -0.265625 -0.171875 -0.890625q-0.0625 -0.625 -0.078125 -1.03125q0 -0.203125 0.3125 -0.203125q0.09375 0 0.171875 0.03125q0.078125 0.03125 0.109375 0.125q0.3125 1.1875 0.984375 1.6875q0.6875 0.5 1.390625 0.5q0.703125 0 1.1875 -0.46875q0.5 -0.46875 0.5 -1.15625q0 -0.65625 -0.4375 -1.125q-0.4375 -0.46875 -1.515625 -1.140625q-0.8125 -0.5 -1.328125 -0.953125q-0.5 -0.453125 -0.734375 -0.9375q-0.21875 -0.484375 -0.21875 -1.078125q0 -0.765625 0.359375 -1.390625q0.359375 -0.625 1.078125 -1.0q0.71875 -0.375 1.8125 -0.375q0.71875 0 1.1875 0.15625q0.484375 0.140625 0.71875 0.296875q0.203125 0.265625 0.328125 0.828125q0.140625 0.5625 0.140625 1.078125q0 0.15625 -0.25 0.15625q-0.140625 0 -0.28125 -0.046875q-0.125 -0.0625 -0.171875 -0.15625q-0.3125 -0.796875 -0.78125 -1.21875q-0.46875 -0.421875 -1.15625 -0.421875q-0.609375 0 -1.078125 0.359375q-0.46875 0.359375 -0.46875 1.0625q0 0.546875 0.34375 0.984375q0.359375 0.421875 1.3125 0.984375q1.390625 0.78125 2.078125 1.46875q0.6875 0.6875 0.6875 1.8125q0 1.296875 -0.984375 2.125q-0.984375 0.8125 -2.546875 0.8125z" fill-rule="nonzero"/><path fill="#ff9900" d="m329.83203 322.7723l0 0c0 4.4389343 -3.5984802 8.037415 -8.037415 8.037415l0 -8.037415l0 0c0 2.2194824 -1.7992249 4.0187073 -4.0187073 4.0187073c-2.219452 0 -4.0186768 -1.7992249 -4.0186768 -4.0187073l0 8.037415l-129.5256 0l0 0c-4.4389343 0 -8.037399 3.5984497 -8.037399 8.037384l0 96.44882c0 4.4389343 3.598465 8.037415 8.037399 8.037415c4.4389343 0 8.037399 -3.5984802 8.037399 -8.037415l0 -8.037384l129.52559 0c4.4389343 0 8.037415 -3.5984802 8.037415 -8.037415zm-145.6004 24.112213c4.4389343 0 8.037399 -3.5984802 8.037399 -8.037415c0 -2.219452 -1.7992249 -4.0187073 -4.018692 -4.0187073c-2.2194672 0 -4.0187073 1.7992554 -4.0187073 4.0187073z" fill-rule="evenodd"/><path fill="#cb7a00" d="m184.23163 346.88452c4.4389343 0 8.037399 -3.5984802 8.037399 -8.037415c0 -2.219452 -1.7992249 -4.0187073 -4.018692 -4.0187073c-2.2194672 0 -4.0187073 1.7992554 -4.0187073 4.0187073zm137.56299 -16.074799c4.4389343 0 8.037415 -3.5984802 8.037415 -8.037415c0 -4.4389343 -3.5984802 -8.037415 -8.037415 -8.037415c-4.4389343 0 -8.037384 3.5984802 -8.037384 8.037415c0 2.2194824 1.7992249 4.0187073 4.0186768 4.0187073c2.2194824 0 4.0187073 -1.7992249 4.0187073 -4.0187073z" fill-rule="evenodd"/><path fill="#000000" fill-opacity="0.0" d="m176.19423 338.8471c0 -4.4389343 3.598465 -8.037384 8.037399 -8.037384l129.5256 0l0 -8.037415l0 0c0 -4.4389343 3.5984497 -8.037415 8.037384 -8.037415c4.4389343 0 8.037415 3.5984802 8.037415 8.037415l0 96.44882c0 4.4389343 -3.5984802 8.037415 -8.037415 8.037415l-129.52559 0l0 8.037384c0 4.4389343 -3.598465 8.037415 -8.037399 8.037415c-4.4389343 0 -8.037399 -3.5984802 -8.037399 -8.037415zm137.563 -8.037384l8.037384 0c4.4389343 0 8.037415 -3.5984802 8.037415 -8.037415m-8.037415 8.037415l0 -8.037415l0 0c0 2.2194824 -1.7992249 4.0187073 -4.0187073 4.0187073c-2.219452 0 -4.0186768 -1.7992249 -4.0186768 -4.0187073m-129.5256 24.112213l0 -8.037415l0 0c0 -2.219452 1.7992401 -4.0187073 4.0187073 -4.0187073c2.2194672 0 4.018692 1.7992554 4.018692 4.0187073c0 4.4389343 -3.598465 8.037415 -8.037399 8.037415c-4.4389343 0 -8.037399 -3.5984802 -8.037399 -8.037415m16.074799 0l0 88.41144" fill-rule="evenodd"/><path stroke="#233a44" stroke-width="4.0" stroke-linejoin="round" stroke-linecap="butt" d="m176.19423 338.8471c0 -4.4389343 3.598465 -8.037384 8.037399 -8.037384l129.5256 0l0 -8.037415l0 0c0 -4.4389343 3.5984497 -8.037415 8.037384 -8.037415c4.4389343 0 8.037415 3.5984802 8.037415 8.037415l0 96.44882c0 4.4389343 -3.5984802 8.037415 -8.037415 8.037415l-129.52559 0l0 8.037384c0 4.4389343 -3.598465 8.037415 -8.037399 8.037415c-4.4389343 0 -8.037399 -3.5984802 -8.037399 -8.037415zm137.563 -8.037384l8.037384 0c4.4389343 0 8.037415 -3.5984802 8.037415 -8.037415m-8.037415 8.037415l0 -8.037415l0 0c0 2.2194824 -1.7992249 4.0187073 -4.0187073 4.0187073c-2.219452 0 -4.0186768 -1.7992249 -4.0186768 -4.0187073m-129.5256 24.112213l0 -8.037415l0 0c0 -2.219452 1.7992401 -4.0187073 4.0187073 -4.0187073c2.2194672 0 4.018692 1.7992554 4.018692 4.0187073c0 4.4389343 -3.598465 8.037415 -8.037399 8.037415c-4.4389343 0 -8.037399 -3.5984802 -8.037399 -8.037415m16.074799 0l0 88.41144" fill-rule="evenodd"/><path fill="#000000" d="m216.55028 373.57413q-0.671875 0 -1.265625 -0.109375q-0.59375 -0.109375 -1.109375 -0.390625q-0.5 -0.28125 -0.9375 -0.796875q-0.5625 -0.71875 -1.09375 -1.375q-0.53125 -0.65625 -1.125 -1.515625q-0.578125 -0.875 -1.421875 -2.21875q-0.359375 -0.59375 -1.03125 -0.9375q-0.53125 -0.265625 -1.046875 -0.359375q-0.515625 -0.109375 -0.84375 -0.140625q-0.203125 -0.03125 -0.28125 0.125q-0.078125 0.140625 -0.078125 0.359375l0 4.21875q0 0.765625 0.359375 1.328125q0.359375 0.5625 1.234375 0.734375q0.421875 0.078125 0.609375 0.171875q0.1875 0.09375 0.1875 0.265625q0 0.140625 -0.1875 0.203125q-0.1875 0.0625 -0.5 0.0625q-0.65625 0 -1.0 -0.046875q-0.34375 -0.046875 -0.625 -0.078125q-0.28125 -0.046875 -0.734375 -0.046875q-0.59375 0 -1.0625 0.046875q-0.46875 0.03125 -0.9375 0.078125q-0.46875 0.046875 -1.125 0.046875q-0.3125 0 -0.5 -0.0625q-0.1875 -0.0625 -0.1875 -0.203125q0 -0.296875 0.796875 -0.4375q0.90625 -0.171875 1.328125 -0.546875q0.421875 -0.390625 0.421875 -1.28125l0 -10.21875q0 -0.90625 -0.09375 -1.375q-0.078125 -0.46875 -0.375 -0.65625q-0.296875 -0.203125 -1.0 -0.265625q-0.40625 -0.046875 -0.609375 -0.171875q-0.1875 -0.140625 -0.1875 -0.3125q0 -0.140625 0.1875 -0.203125q0.203125 -0.0625 0.515625 -0.0625q0.640625 0 0.96875 0q0.328125 0 0.609375 0.015625q0.296875 0.015625 0.765625 0.015625q0.46875 0 0.828125 -0.03125q0.359375 -0.046875 0.796875 -0.0625q0.4375 -0.03125 1.140625 -0.03125q2.640625 0 4.015625 0.984375q1.390625 0.984375 1.390625 2.953125q0 1.078125 -0.4375 1.859375q-0.4375 0.78125 -1.09375 1.3125q-0.640625 0.515625 -1.3125 0.859375q-0.09375 0.015625 -0.078125 0.109375q0.015625 0.078125 0.078125 0.203125q0.75 1.125 1.4375 2.140625q0.6875 1.0 1.5 1.96875q0.8125 0.953125 1.9375 1.984375q0.625 0.546875 1.265625 0.671875q0.65625 0.125 1.5 0.125q0.359375 0 0.359375 0.25q0 0.375 -0.359375 0.546875q-0.359375 0.1875 -0.828125 0.234375q-0.453125 0.0625 -0.765625 0.0625zm-8.96875 -8.390625q1.109375 0 1.90625 -0.5q0.8125 -0.515625 1.25 -1.328125q0.4375 -0.8125 0.4375 -1.734375q0 -0.984375 -0.25 -1.796875q-0.25 -0.8125 -1.015625 -1.296875q-0.75 -0.5 -2.25 -0.5q-0.78125 0 -1.015625 0.5q-0.234375 0.484375 -0.28125 1.734375q-0.03125 0.59375 -0.046875 1.625q0 1.015625 0 2.453125q0 0.59375 0.328125 0.71875q0.34375 0.125 0.9375 0.125zm15.908829 8.25q-1.3125 0 -2.296875 -0.640625q-0.984375 -0.65625 -1.546875 -1.84375q-0.546875 -1.1875 -0.546875 -2.75q0 -1.390625 0.625 -2.53125q0.640625 -1.140625 1.703125 -1.828125q1.0625 -0.703125 2.3125 -0.703125q0.953125 0 1.6875 0.390625q0.75 0.375 1.171875 1.0625q0.421875 0.6875 0.421875 1.578125q0 0.734375 -0.71875 0.734375l-5.0625 0q-0.34375 0 -0.484375 0.1875q-0.125 0.171875 -0.125 0.703125q0 1.15625 0.5 2.109375q0.515625 0.9375 1.34375 1.5q0.84375 0.5625 1.859375 0.5625q0.71875 0 1.296875 -0.265625q0.59375 -0.28125 1.046875 -0.8125q0.109375 -0.109375 0.15625 -0.140625q0.046875 -0.046875 0.109375 -0.046875q0.203125 0 0.203125 0.234375q0 0.453125 -0.4375 1.015625q-0.359375 0.453125 -0.875 0.796875q-0.5 0.328125 -1.09375 0.5q-0.59375 0.1875 -1.25 0.1875zm-2.203125 -7.265625l2.1875 0q0.5625 0 0.96875 -0.015625q0.421875 -0.03125 0.796875 -0.109375q0.125 -0.03125 0.15625 -0.15625q0.046875 -0.125 0.046875 -0.375q0 -0.6875 -0.625 -1.171875q-0.609375 -0.5 -1.453125 -0.5q-0.546875 0 -1.09375 0.328125q-0.546875 0.3125 -0.921875 0.796875q-0.359375 0.484375 -0.359375 0.953125q0 0.25 0.296875 0.25zm9.906845 7.25q-0.734375 0 -1.390625 -0.234375q-0.640625 -0.234375 -1.109375 -0.640625q-0.109375 -0.265625 -0.171875 -0.890625q-0.0625 -0.625 -0.078125 -1.03125q0 -0.203125 0.3125 -0.203125q0.09375 0 0.171875 0.03125q0.078125 0.03125 0.109375 0.125q0.3125 1.1875 0.984375 1.6875q0.6875 0.5 1.390625 0.5q0.703125 0 1.1875 -0.46875q0.5 -0.46875 0.5 -1.15625q0 -0.65625 -0.4375 -1.125q-0.4375 -0.46875 -1.515625 -1.140625q-0.8125 -0.5 -1.328125 -0.953125q-0.5 -0.453125 -0.734375 -0.9375q-0.21875 -0.484375 -0.21875 -1.078125q0 -0.765625 0.359375 -1.390625q0.359375 -0.625 1.078125 -1.0q0.71875 -0.375 1.8125 -0.375q0.71875 0 1.1875 0.15625q0.484375 0.140625 0.71875 0.296875q0.203125 0.265625 0.328125 0.828125q0.140625 0.5625 0.140625 1.078125q0 0.15625 -0.25 0.15625q-0.140625 0 -0.28125 -0.046875q-0.125 -0.0625 -0.171875 -0.15625q-0.3125 -0.796875 -0.78125 -1.21875q-0.46875 -0.421875 -1.15625 -0.421875q-0.609375 0 -1.078125 0.359375q-0.46875 0.359375 -0.46875 1.0625q0 0.546875 0.34375 0.984375q0.359375 0.421875 1.3125 0.984375q1.390625 0.78125 2.078125 1.46875q0.6875 0.6875 0.6875 1.8125q0 1.296875 -0.984375 2.125q-0.984375 0.8125 -2.546875 0.8125zm9.908234 0q-1.34375 0 -2.421875 -0.625q-1.078125 -0.625 -1.71875 -1.71875q-0.625 -1.09375 -0.625 -2.484375q0 -1.015625 0.390625 -1.96875q0.390625 -0.96875 1.109375 -1.75q0.734375 -0.796875 1.6875 -1.265625q0.953125 -0.46875 2.0625 -0.46875q1.390625 0 2.5 0.671875q1.125 0.671875 1.78125 1.765625q0.671875 1.09375 0.671875 2.390625q0 1.390625 -0.625 2.640625q-0.609375 1.25 -1.8125 2.03125q-1.1875 0.78125 -3.0 0.78125zm0.515625 -0.734375q0.8125 0 1.453125 -0.3125q0.65625 -0.3125 1.015625 -1.0q0.28125 -0.546875 0.375 -1.34375q0.109375 -0.796875 0.109375 -1.484375q0 -1.15625 -0.421875 -2.21875q-0.421875 -1.078125 -1.1875 -1.75q-0.75 -0.6875 -1.78125 -0.6875q-0.640625 0 -1.15625 0.203125q-0.515625 0.203125 -0.953125 0.75q-0.484375 0.609375 -0.625 1.46875q-0.140625 0.859375 -0.140625 1.71875q0 1.1875 0.421875 2.25q0.4375 1.0625 1.171875 1.734375q0.75 0.671875 1.71875 0.671875zm6.3324585 0.46875q-0.125 0 -0.3125 -0.046875q-0.171875 -0.03125 -0.171875 -0.171875q0 -0.203125 0.171875 -0.28125q0.1875 -0.078125 0.390625 -0.15625q0.359375 -0.125 0.6875 -0.28125q0.34375 -0.15625 0.34375 -0.625l0 -12.09375q0 -0.703125 -0.265625 -1.171875q-0.25 -0.46875 -0.84375 -0.59375q-0.1875 -0.046875 -0.1875 -0.296875q0 -0.25 0.15625 -0.296875q0.625 -0.140625 1.078125 -0.296875q0.46875 -0.15625 0.859375 -0.328125q0.390625 -0.171875 0.78125 -0.3125q0.09375 -0.046875 0.140625 -0.046875q0.046875 0 0.078125 0.0625q0.046875 0.0625 0.046875 0.109375q0 0.21875 -0.09375 0.921875q-0.078125 0.703125 -0.078125 2.34375l0 12.0q0 0.46875 0.328125 0.625q0.34375 0.15625 0.703125 0.28125q0.1875 0.078125 0.359375 0.15625q0.1875 0.078125 0.1875 0.28125q0 0.140625 -0.1875 0.171875q-0.171875 0.046875 -0.28125 0.046875q-0.453125 0 -0.734375 -0.046875q-0.28125 -0.03125 -0.53125 -0.046875q-0.25 -0.03125 -0.6875 -0.03125q-0.40625 0 -0.671875 0.03125q-0.265625 0.015625 -0.53125 0.046875q-0.25 0.046875 -0.734375 0.046875zm9.9631195 0.421875q-0.09375 0 -0.25 -0.375q-0.140625 -0.359375 -0.1875 -0.53125q-0.171875 -0.40625 -0.3125 -0.84375q-0.140625 -0.453125 -0.28125 -0.84375q-0.53125 -1.484375 -1.1406403 -2.90625q-0.609375 -1.4375 -1.1875 -2.890625q-0.171875 -0.4375 -0.53125 -0.78125q-0.34375 -0.359375 -0.703125 -0.453125q-0.1875 -0.0625 -0.3125 -0.140625q-0.109375 -0.078125 -0.109375 -0.234375q0 -0.140625 0.171875 -0.171875q0.1875 -0.046875 0.296875 -0.046875q0.484375 0 0.703125 0.03125q0.21875 0.015625 0.421875 0.0625q0.21875 0.03125 0.640625 0.03125q0.421875 0 0.640625 -0.03125q0.21875 -0.046875 0.45314026 -0.0625q0.25 -0.03125 0.703125 -0.03125q0.109375 0 0.28125 0.046875q0.1875 0.03125 0.1875 0.171875q0 0.15625 -0.171875 0.265625q-0.15625 0.09375 -0.375 0.15625q-0.234375 0.109375 -0.359375 0.390625q-0.125 0.265625 -0.125 0.59375q0 0.171875 0.015625 0.34375q0.03125 0.171875 0.09375 0.3125l1.890625 5.03125q0.015625 0.03125 0.03125 0.03125q0.015625 0 0.03125 -0.03125l1.828125 -4.671875q0.09375 -0.234375 0.140625 -0.515625q0.0625 -0.28125 0.0625 -0.46875q0 -0.484375 -0.15625 -0.6875q-0.140625 -0.203125 -0.46875 -0.328125q-0.3125 -0.109375 -0.4375 -0.1875q-0.125 -0.078125 -0.125 -0.234375q0 -0.140625 0.15625 -0.171875q0.15625 -0.046875 0.328125 -0.046875q0.265625 0 0.6875 0.0625q0.4375 0.0625 1.0625 0.0625q0.625 0 0.84375 -0.0625q0.234375 -0.0625 0.578125 -0.0625q0.1875 0 0.328125 0.046875q0.140625 0.03125 0.140625 0.171875q0 0.265625 -0.546875 0.421875q-0.359375 0.109375 -0.796875 0.5625q-0.421875 0.453125 -0.6875 1.046875l-1.875 4.515625q-0.046875 0.09375 -0.1875 0.46875q-0.140625 0.375 -0.3125 0.828125q-0.171875 0.4375 -0.296875 0.765625q-0.109375 0.3125 -0.109375 0.3125q0 0 -0.109375 0.234375q-0.09375 0.21875 -0.21875 0.46875q-0.109375 0.265625 -0.203125 0.375l-0.140625 0zm9.880707 -0.140625q-1.3125 0 -2.296875 -0.640625q-0.984375 -0.65625 -1.546875 -1.84375q-0.546875 -1.1875 -0.546875 -2.75q0 -1.390625 0.625 -2.53125q0.640625 -1.140625 1.703125 -1.828125q1.0625 -0.703125 2.3125 -0.703125q0.953125 0 1.6875 0.390625q0.75 0.375 1.171875 1.0625q0.421875 0.6875 0.421875 1.578125q0 0.734375 -0.71875 0.734375l-5.0625 0q-0.34375 0 -0.484375 0.1875q-0.125 0.171875 -0.125 0.703125q0 1.15625 0.5 2.109375q0.515625 0.9375 1.34375 1.5q0.84375 0.5625 1.859375 0.5625q0.71875 0 1.296875 -0.265625q0.59375 -0.28125 1.046875 -0.8125q0.109375 -0.109375 0.15625 -0.140625q0.046875 -0.046875 0.109375 -0.046875q0.203125 0 0.203125 0.234375q0 0.453125 -0.4375 1.015625q-0.359375 0.453125 -0.875 0.796875q-0.5 0.328125 -1.09375 0.5q-0.59375 0.1875 -1.25 0.1875zm-2.203125 -7.265625l2.1875 0q0.5625 0 0.96875 -0.015625q0.421875 -0.03125 0.796875 -0.109375q0.125 -0.03125 0.15625 -0.15625q0.046875 -0.125 0.046875 -0.375q0 -0.6875 -0.625 -1.171875q-0.609375 -0.5 -1.453125 -0.5q-0.546875 0 -1.09375 0.328125q-0.546875 0.3125 -0.921875 0.796875q-0.359375 0.484375 -0.359375 0.953125q0 0.25 0.296875 0.25z" fill-rule="nonzero"/><path fill="#000000" d="m206.3784 402.4335q-1.203125 0 -2.171875 -0.609375q-0.96875 -0.609375 -1.53125 -1.671875q-0.5625 -1.078125 -0.5625 -2.390625q0 -1.5625 0.671875 -2.828125q0.6875 -1.28125 1.84375 -2.03125q1.15625 -0.765625 2.546875 -0.765625q1.5625 0 2.734375 0.84375q0.28125 0.21875 0.28125 0.453125q0 0.1875 -0.171875 0.4375q-0.15625 0.234375 -0.40625 0.390625q-0.234375 0.15625 -0.453125 0.15625q-0.109375 0 -0.234375 -0.078125q-0.125 -0.09375 -0.265625 -0.1875q-0.53125 -0.40625 -1.1875 -0.765625q-0.640625 -0.359375 -1.0625 -0.359375q-1.1875 0 -1.921875 1.09375q-0.71875 1.09375 -0.71875 2.859375q0 1.140625 0.484375 2.046875q0.5 0.90625 1.328125 1.4375q0.828125 0.53125 1.828125 0.53125q0.703125 0 1.203125 -0.21875q0.5 -0.234375 1.078125 -0.8125q0.046875 -0.046875 0.109375 -0.078125q0.078125 -0.046875 0.125 -0.046875q0.265625 0 0.265625 0.34375q0 0.140625 -0.078125 0.328125q-0.078125 0.171875 -0.28125 0.40625q-0.375 0.484375 -0.90625 0.84375q-0.53125 0.34375 -1.171875 0.5q-0.625 0.171875 -1.375 0.171875zm9.787979 -0.015625q-1.34375 0 -2.421875 -0.625q-1.078125 -0.625 -1.71875 -1.71875q-0.625 -1.09375 -0.625 -2.484375q0 -1.015625 0.390625 -1.96875q0.390625 -0.96875 1.109375 -1.75q0.734375 -0.796875 1.6875 -1.265625q0.953125 -0.46875 2.0625 -0.46875q1.390625 0 2.5 0.671875q1.125 0.671875 1.78125 1.765625q0.671875 1.09375 0.671875 2.390625q0 1.390625 -0.625 2.640625q-0.609375 1.25 -1.8125 2.03125q-1.1875 0.78125 -3.0 0.78125zm0.515625 -0.734375q0.8125 0 1.453125 -0.3125q0.65625 -0.3125 1.015625 -1.0q0.28125 -0.546875 0.375 -1.34375q0.109375 -0.796875 0.109375 -1.484375q0 -1.15625 -0.421875 -2.21875q-0.421875 -1.078125 -1.1875 -1.75q-0.75 -0.6875 -1.78125 -0.6875q-0.640625 0 -1.15625 0.203125q-0.515625 0.203125 -0.953125 0.75q-0.484375 0.609375 -0.625 1.46875q-0.140625 0.859375 -0.140625 1.71875q0 1.1875 0.421875 2.25q0.4375 1.0625 1.171875 1.734375q0.75 0.671875 1.71875 0.671875zm6.817459 0.46875q-0.21875 0 -0.359375 -0.0625q-0.125 -0.0625 -0.125 -0.203125q0 -0.203125 0.140625 -0.25q0.140625 -0.0625 0.40625 -0.140625q0.359375 -0.09375 0.6875 -0.265625q0.34375 -0.171875 0.34375 -0.640625l0 -5.15625q0 -0.65625 -0.140625 -1.109375q-0.125 -0.453125 -0.75 -0.625q-0.09375 -0.046875 -0.171875 -0.109375q-0.0625 -0.0625 -0.0625 -0.203125q0 -0.265625 0.21875 -0.28125q0.84375 -0.21875 1.359375 -0.53125q0.53125 -0.3125 1.03125 -0.703125q0.078125 -0.046875 0.140625 -0.078125q0.0625 -0.03125 0.125 -0.03125q0.046875 0 0.078125 0.046875q0.046875 0.046875 0.046875 0.109375q0 0.171875 -0.0625 0.6875q-0.0625 0.515625 -0.0625 0.859375q0 0.09375 0.015625 0.171875q0.015625 0.078125 0.03125 0.109375q0.84375 -0.796875 1.796875 -1.203125q0.953125 -0.40625 2.078125 -0.40625q1.171875 0 1.9375 0.96875q0.765625 0.953125 0.765625 2.375l0 5.109375q0 0.46875 0.328125 0.625q0.34375 0.15625 0.703125 0.28125q0.203125 0.078125 0.375 0.15625q0.1875 0.078125 0.1875 0.28125q0 0.140625 -0.171875 0.171875q-0.171875 0.046875 -0.3125 0.046875q-0.484375 0 -0.75 -0.046875q-0.265625 -0.03125 -0.5 -0.046875q-0.234375 -0.03125 -0.671875 -0.03125q-0.40625 0 -0.671875 0.03125q-0.265625 0.015625 -0.546875 0.046875q-0.265625 0.046875 -0.75 0.046875q-0.125 0 -0.3125 -0.046875q-0.171875 -0.03125 -0.171875 -0.171875q0 -0.203125 0.171875 -0.28125q0.1875 -0.078125 0.390625 -0.15625q0.359375 -0.125 0.6875 -0.28125q0.34375 -0.15625 0.34375 -0.625l0 -5.046875q0 -1.046875 -0.59375 -1.640625q-0.578125 -0.59375 -1.5625 -0.609375q-0.875 0 -1.53125 0.28125q-0.640625 0.265625 -1.140625 0.671875q-0.09375 0.09375 -0.140625 0.25q-0.046875 0.15625 -0.046875 0.3125l0 5.78125q0 0.46875 0.328125 0.640625q0.34375 0.171875 0.703125 0.265625q0.546875 0.140625 0.546875 0.390625q0 0.140625 -0.125 0.203125q-0.109375 0.0625 -0.359375 0.0625q-0.46875 0 -0.75 -0.046875q-0.28125 -0.03125 -0.515625 -0.046875q-0.234375 -0.03125 -0.671875 -0.03125q-0.40625 0 -0.65625 0.03125q-0.25 0.015625 -0.53125 0.046875q-0.28125 0.046875 -0.75 0.046875zm15.062592 0.265625q-0.734375 0 -1.390625 -0.234375q-0.640625 -0.234375 -1.109375 -0.640625q-0.109375 -0.265625 -0.171875 -0.890625q-0.0625 -0.625 -0.078125 -1.03125q0 -0.203125 0.3125 -0.203125q0.09375 0 0.171875 0.03125q0.078125 0.03125 0.109375 0.125q0.3125 1.1875 0.984375 1.6875q0.6875 0.5 1.390625 0.5q0.703125 0 1.1875 -0.46875q0.5 -0.46875 0.5 -1.15625q0 -0.65625 -0.4375 -1.125q-0.4375 -0.46875 -1.515625 -1.140625q-0.8125 -0.5 -1.328125 -0.953125q-0.5 -0.453125 -0.734375 -0.9375q-0.21875 -0.484375 -0.21875 -1.078125q0 -0.765625 0.359375 -1.390625q0.359375 -0.625 1.078125 -1.0q0.71875 -0.375 1.8125 -0.375q0.71875 0 1.1875 0.15625q0.484375 0.140625 0.71875 0.296875q0.203125 0.265625 0.328125 0.828125q0.140625 0.5625 0.140625 1.078125q0 0.15625 -0.25 0.15625q-0.140625 0 -0.28125 -0.046875q-0.125 -0.0625 -0.171875 -0.15625q-0.3125 -0.796875 -0.78125 -1.21875q-0.46875 -0.421875 -1.15625 -0.421875q-0.609375 0 -1.078125 0.359375q-0.46875 0.359375 -0.46875 1.0625q0 0.546875 0.34375 0.984375q0.359375 0.421875 1.3125 0.984375q1.390625 0.78125 2.078125 1.46875q0.6875 0.6875 0.6875 1.8125q0 1.296875 -0.984375 2.125q-0.984375 0.8125 -2.546875 0.8125zm8.830109 0q-1.171875 0 -1.828125 -0.71875q-0.65625 -0.734375 -0.65625 -2.140625l0 -5.578125q0 -0.1875 -0.15625 -0.265625q-0.140625 -0.09375 -0.625 -0.09375l-0.140625 0q-0.109375 0 -0.203125 -0.15625q-0.078125 -0.15625 -0.078125 -0.3125q0 -0.046875 0.0625 -0.140625q0.078125 -0.109375 0.109375 -0.125q0.46875 -0.34375 0.859375 -0.671875q0.40625 -0.34375 0.71875 -0.65625q0.328125 -0.328125 0.546875 -0.59375q0.125 -0.125 0.203125 -0.203125q0.09375 -0.09375 0.203125 -0.09375q0.125 0 0.234375 0.0625q0.109375 0.046875 0.078125 0.203125l-0.109375 1.078125q-0.03125 0.265625 0.109375 0.375q0.15625 0.09375 0.453125 0.09375l2.75 0q0.09375 0 0.15625 0.15625q0.078125 0.15625 0.078125 0.359375q0 0.21875 -0.078125 0.421875q-0.0625 0.203125 -0.15625 0.203125l-2.375 0q-0.609375 0 -0.796875 0.109375q-0.171875 0.09375 -0.171875 0.5625l0 4.734375q0 0.953125 0.40625 1.515625q0.40625 0.546875 1.171875 0.546875q0.703125 0 1.078125 -0.109375q0.390625 -0.109375 0.703125 -0.328125q0.046875 -0.046875 0.09375 -0.046875q0.09375 0 0.125 0.109375q0.046875 0.109375 0.046875 0.234375q0 0.109375 -0.40625 0.484375q-0.390625 0.359375 -1.03125 0.671875q-0.625 0.3125 -1.375 0.3125zm4.176605 -0.265625q-0.234375 0 -0.359375 -0.0625q-0.109375 -0.0625 -0.109375 -0.203125q0 -0.203125 0.140625 -0.25q0.140625 -0.0625 0.40625 -0.140625q0.453125 -0.125 0.671875 -0.34375q0.234375 -0.234375 0.234375 -0.5625l0 -5.15625q0 -0.65625 -0.1875 -1.125q-0.1875 -0.484375 -0.796875 -0.609375q-0.09375 -0.03125 -0.171875 -0.125q-0.0625 -0.09375 -0.0625 -0.1875q0 -0.234375 0.21875 -0.28125q0.625 -0.203125 1.296875 -0.5625q0.6875 -0.375 1.078125 -0.625q0.140625 -0.09375 0.21875 -0.125q0.09375 -0.03125 0.140625 -0.03125q0.125 0 0.125 0.15625q0 0.078125 -0.015625 0.375q-0.015625 0.28125 -0.03125 0.671875q-0.015625 0.375 -0.03125 0.75q0 0.0625 0.046875 0.0625q0.390625 -0.484375 0.84375 -0.84375q0.46875 -0.359375 0.95314026 -0.578125q0.5 -0.21875 0.96875 -0.21875q0.5 0 0.8125 0.21875q0.328125 0.21875 0.328125 0.546875q0 0.25 -0.140625 0.53125q-0.125 0.28125 -0.34375 0.5q-0.203125 0.21875 -0.453125 0.21875q-0.140625 0 -0.3125 -0.0625q-0.15625 -0.0625 -0.359375 -0.15625q-0.1875 -0.0625 -0.375 -0.140625q-0.1875 -0.078125 -0.39064026 -0.078125q-0.578125 0 -1.125 0.421875q-0.53125 0.40625 -0.53125 1.59375l0 4.859375q0 0.3125 0.328125 0.515625q0.34375 0.203125 0.953125 0.390625q0.265625 0.078125 0.40625 0.15625q0.14064026 0.0625 0.14064026 0.234375q0 0.265625 -0.48439026 0.265625q-0.71875 0 -1.09375 -0.0625q-0.359375 -0.0625 -0.984375 -0.0625q-0.40625 0 -0.671875 0.03125q-0.25 0.015625 -0.53125 0.046875q-0.265625 0.046875 -0.75 0.046875zm9.656601 0.265625q-0.4375 0 -0.890625 -0.34375q-0.4375 -0.34375 -0.734375 -0.8125q-0.296875 -0.484375 -0.296875 -0.921875q0 -0.765625 0.40625 -1.1875q0.40625 -0.4375 1.296875 -0.796875l2.453125 -1.015625q0.46875 -0.1875 0.546875 -0.328125q0.09375 -0.140625 0.125 -0.625l0.046875 -1.53125q0.015625 -0.625 -0.359375 -1.078125q-0.359375 -0.46875 -1.0625 -0.46875q-0.359375 0 -0.71875 0.125q-0.359375 0.125 -0.59375 0.3125q-0.15625 0.09375 -0.203125 0.296875q-0.046875 0.1875 -0.046875 0.40625q0 0.09375 0.015625 0.21875q0.015625 0.109375 0.015625 0.203125q0 0.125 -0.3125 0.328125q-0.296875 0.203125 -0.671875 0.359375q-0.359375 0.15625 -0.609375 0.15625q-0.109375 0 -0.1875 -0.0625q-0.078125 -0.0625 -0.078125 -0.15625q0 -0.375 0.25 -0.8125q0.265625 -0.453125 0.71875 -0.84375q0.546875 -0.5 1.1875 -0.875q0.65625 -0.390625 1.28125 -0.609375q0.625 -0.21875 1.109375 -0.21875q0.859375 0 1.421875 0.609375q0.5625 0.609375 0.546875 1.53125l-0.125 5.75q-0.03125 0.515625 0.21875 0.828125q0.265625 0.3125 0.640625 0.3125q0.609375 0 0.890625 -0.265625q0.125 -0.125 0.1875 -0.125q0.125 0 0.1875 0.078125q0.078125 0.0625 0.078125 0.1875q0 0.265625 -0.265625 0.53125q-0.375 0.375 -0.828125 0.609375q-0.4375 0.234375 -0.828125 0.234375q-1.09375 0 -1.75 -1.25l-0.0625 0q-0.796875 0.640625 -1.515625 0.9375q-0.71875 0.3125 -1.484375 0.3125zm1.125 -1.15625q0.484375 0 0.8125 -0.15625q0.34375 -0.15625 0.609375 -0.421875q0.109375 -0.125 0.1875 -0.328125q0.09375 -0.203125 0.109375 -0.65625l0.0625 -1.171875q0.015625 -0.265625 -0.03125 -0.390625q-0.046875 -0.125 -0.1875 -0.125q-0.046875 0 -0.171875 0.03125q-0.125 0.015625 -0.3125 0.09375q-1.265625 0.453125 -1.765625 0.953125q-0.484375 0.484375 -0.484375 0.890625q0 0.625 0.359375 0.953125q0.375 0.328125 0.8125 0.328125zm6.700989 0.890625q-0.21875 0 -0.359375 -0.0625q-0.125 -0.0625 -0.125 -0.203125q0 -0.203125 0.171875 -0.265625q0.1875 -0.078125 0.375 -0.125q0.5 -0.125 0.765625 -0.296875q0.265625 -0.1875 0.265625 -0.609375l0 -5.21875q0 -0.640625 -0.234375 -1.140625q-0.21875 -0.515625 -0.84375 -0.609375q-0.125 -0.015625 -0.1875 -0.078125q-0.046875 -0.078125 -0.046875 -0.234375q0 -0.265625 0.21875 -0.28125q0.953125 -0.21875 1.578125 -0.59375q0.625 -0.375 0.9375 -0.609375q0.21875 -0.171875 0.328125 -0.171875q0.15625 0 0.15625 0.125q0 0.1875 -0.0625 0.765625q-0.0625 0.5625 -0.109375 1.25q-0.046875 0.671875 -0.046875 1.21875l0 5.578125q0 0.40625 0.265625 0.59375q0.28125 0.1875 0.765625 0.3125q0.1875 0.046875 0.359375 0.125q0.1875 0.0625 0.1875 0.265625q0 0.265625 -0.484375 0.265625q-0.453125 0 -0.734375 -0.046875q-0.265625 -0.03125 -0.515625 -0.046875q-0.25 -0.03125 -0.6875 -0.03125q-0.40625 0 -0.671875 0.03125q-0.265625 0.015625 -0.53125 0.046875q-0.265625 0.046875 -0.734375 0.046875zm2.34375 -12.46875q-0.515625 0 -0.859375 -0.34375q-0.34375 -0.34375 -0.34375 -0.84375q0 -0.53125 0.34375 -0.875q0.34375 -0.359375 0.859375 -0.359375q0.515625 0 0.859375 0.359375q0.359375 0.34375 0.359375 0.875q0 0.5 -0.359375 0.84375q-0.34375 0.34375 -0.859375 0.34375zm3.5362244 12.46875q-0.21875 0 -0.359375 -0.0625q-0.125 -0.0625 -0.125 -0.203125q0 -0.203125 0.140625 -0.25q0.140625 -0.0625 0.40625 -0.140625q0.359375 -0.09375 0.6875 -0.265625q0.34375 -0.171875 0.34375 -0.640625l0 -5.15625q0 -0.65625 -0.140625 -1.109375q-0.125 -0.453125 -0.75 -0.625q-0.09375 -0.046875 -0.171875 -0.109375q-0.0625 -0.0625 -0.0625 -0.203125q0 -0.265625 0.21875 -0.28125q0.84375 -0.21875 1.359375 -0.53125q0.53125 -0.3125 1.03125 -0.703125q0.078125 -0.046875 0.140625 -0.078125q0.0625 -0.03125 0.125 -0.03125q0.046875 0 0.078125 0.046875q0.046875 0.046875 0.046875 0.109375q0 0.171875 -0.0625 0.6875q-0.0625 0.515625 -0.0625 0.859375q0 0.09375 0.015625 0.171875q0.015625 0.078125 0.03125 0.109375q0.84375 -0.796875 1.796875 -1.203125q0.953125 -0.40625 2.078125 -0.40625q1.171875 0 1.9375 0.96875q0.765625 0.953125 0.765625 2.375l0 5.109375q0 0.46875 0.328125 0.625q0.34375 0.15625 0.703125 0.28125q0.203125 0.078125 0.375 0.15625q0.1875 0.078125 0.1875 0.28125q0 0.140625 -0.171875 0.171875q-0.171875 0.046875 -0.3125 0.046875q-0.484375 0 -0.75 -0.046875q-0.265625 -0.03125 -0.5 -0.046875q-0.234375 -0.03125 -0.671875 -0.03125q-0.40625 0 -0.671875 0.03125q-0.265625 0.015625 -0.546875 0.046875q-0.265625 0.046875 -0.75 0.046875q-0.125 0 -0.3125 -0.046875q-0.171875 -0.03125 -0.171875 -0.171875q0 -0.203125 0.171875 -0.28125q0.1875 -0.078125 0.390625 -0.15625q0.359375 -0.125 0.6875 -0.28125q0.34375 -0.15625 0.34375 -0.625l0 -5.046875q0 -1.046875 -0.59375 -1.640625q-0.578125 -0.59375 -1.5625 -0.609375q-0.875 0 -1.53125 0.28125q-0.640625 0.265625 -1.140625 0.671875q-0.09375 0.09375 -0.140625 0.25q-0.046875 0.15625 -0.046875 0.3125l0 5.78125q0 0.46875 0.328125 0.640625q0.34375 0.171875 0.703125 0.265625q0.546875 0.140625 0.546875 0.390625q0 0.140625 -0.125 0.203125q-0.109375 0.0625 -0.359375 0.0625q-0.46875 0 -0.75 -0.046875q-0.28125 -0.03125 -0.515625 -0.046875q-0.234375 -0.03125 -0.671875 -0.03125q-0.40625 0 -0.65625 0.03125q-0.25 0.015625 -0.53125 0.046875q-0.28125 0.046875 -0.75 0.046875zm16.140717 0.265625q-1.171875 0 -1.828125 -0.71875q-0.65625 -0.734375 -0.65625 -2.140625l0 -5.578125q0 -0.1875 -0.15625 -0.265625q-0.140625 -0.09375 -0.625 -0.09375l-0.140625 0q-0.109375 0 -0.203125 -0.15625q-0.078125 -0.15625 -0.078125 -0.3125q0 -0.046875 0.0625 -0.140625q0.078125 -0.109375 0.109375 -0.125q0.46875 -0.34375 0.859375 -0.671875q0.40625 -0.34375 0.71875 -0.65625q0.328125 -0.328125 0.546875 -0.59375q0.125 -0.125 0.203125 -0.203125q0.09375 -0.09375 0.203125 -0.09375q0.125 0 0.234375 0.0625q0.109375 0.046875 0.078125 0.203125l-0.109375 1.078125q-0.03125 0.265625 0.109375 0.375q0.15625 0.09375 0.453125 0.09375l2.75 0q0.09375 0 0.15625 0.15625q0.078125 0.15625 0.078125 0.359375q0 0.21875 -0.078125 0.421875q-0.0625 0.203125 -0.15625 0.203125l-2.375 0q-0.609375 0 -0.796875 0.109375q-0.171875 0.09375 -0.171875 0.5625l0 4.734375q0 0.953125 0.40625 1.515625q0.40625 0.546875 1.171875 0.546875q0.703125 0 1.078125 -0.109375q0.390625 -0.109375 0.703125 -0.328125q0.046875 -0.046875 0.09375 -0.046875q0.09375 0 0.125 0.109375q0.046875 0.109375 0.046875 0.234375q0 0.109375 -0.40625 0.484375q-0.390625 0.359375 -1.03125 0.671875q-0.625 0.3125 -1.375 0.3125zm6.457855 0q-0.734375 0 -1.390625 -0.234375q-0.640625 -0.234375 -1.109375 -0.640625q-0.109375 -0.265625 -0.171875 -0.890625q-0.0625 -0.625 -0.078125 -1.03125q0 -0.203125 0.3125 -0.203125q0.09375 0 0.171875 0.03125q0.078125 0.03125 0.109375 0.125q0.3125 1.1875 0.984375 1.6875q0.6875 0.5 1.390625 0.5q0.703125 0 1.1875 -0.46875q0.5 -0.46875 0.5 -1.15625q0 -0.65625 -0.4375 -1.125q-0.4375 -0.46875 -1.515625 -1.140625q-0.8125 -0.5 -1.328125 -0.953125q-0.5 -0.453125 -0.734375 -0.9375q-0.21875 -0.484375 -0.21875 -1.078125q0 -0.765625 0.359375 -1.390625q0.359375 -0.625 1.078125 -1.0q0.71875 -0.375 1.8125 -0.375q0.71875 0 1.1875 0.15625q0.484375 0.140625 0.71875 0.296875q0.203125 0.265625 0.328125 0.828125q0.140625 0.5625 0.140625 1.078125q0 0.15625 -0.25 0.15625q-0.140625 0 -0.28125 -0.046875q-0.125 -0.0625 -0.171875 -0.15625q-0.3125 -0.796875 -0.78125 -1.21875q-0.46875 -0.421875 -1.15625 -0.421875q-0.609375 0 -1.078125 0.359375q-0.46875 0.359375 -0.46875 1.0625q0 0.546875 0.34375 0.984375q0.359375 0.421875 1.3125 0.984375q1.390625 0.78125 2.078125 1.46875q0.6875 0.6875 0.6875 1.8125q0 1.296875 -0.984375 2.125q-0.984375 0.8125 -2.546875 0.8125z" fill-rule="nonzero"/><path fill="#ff9900" d="m443.5643 332.98688l0 0c3.622467 0 6.5590515 -2.9365845 6.5590515 -6.5590515l-6.5590515 0l0 0c1.8112488 0 3.279541 -1.4682922 3.279541 -3.279541c0 -1.8112183 -1.4682922 -3.2795105 -3.279541 -3.2795105l6.5590515 0l0 -85.26773l0 0c0 -3.622467 2.9365845 -6.5590515 6.5590515 -6.5590515l182.86618 0c3.6224365 0 6.559021 2.9365845 6.559021 6.5590515c0 3.622467 -2.9365845 6.559067 -6.559021 6.559067l-6.559082 0l0 85.267715c0 3.622467 -2.9365845 6.5590515 -6.559082 6.5590515zm19.677155 -98.38583l0 0c0 3.622467 -2.9365845 6.559067 -6.5590515 6.559067c-1.8112183 0 -3.2795105 -1.4683075 -3.2795105 -3.2795258c0 -1.8112335 1.4682922 -3.279541 3.2795105 -3.279541z" fill-rule="evenodd"/><path fill="#cb7a00" d="m463.24146 234.60104l0 0c0 3.622467 -2.9365845 6.559067 -6.5590515 6.559067c-1.8112183 0 -3.2795105 -1.4683075 -3.2795105 -3.2795258c0 -1.8112335 1.4682922 -3.279541 3.2795105 -3.279541zm-13.118103 91.82678c0 3.622467 -2.9365845 6.5590515 -6.5590515 6.5590515c-3.622467 0 -6.5590515 -2.9365845 -6.5590515 -6.5590515c0 -3.622467 2.9365845 -6.5590515 6.5590515 -6.5590515l0 0c1.8112488 0 3.279541 1.4682922 3.279541 3.2795105c0 1.8112488 -1.4682922 3.279541 -3.279541 3.279541z" fill-rule="evenodd"/><path fill="#000000" fill-opacity="0.0" d="m450.12335 319.86877l0 -85.26773l0 0c0 -3.622467 2.9365845 -6.5590515 6.5590515 -6.5590515l182.86618 0c3.6224365 0 6.559021 2.9365845 6.559021 6.5590515c0 3.622467 -2.9365845 6.559067 -6.559021 6.559067l-6.559082 0l0 85.267715c0 3.622467 -2.9365845 6.5590515 -6.559082 6.5590515l-182.86612 0l0 0c-3.622467 0 -6.5590515 -2.9365845 -6.5590515 -6.5590515c0 -3.622467 2.9365845 -6.5590515 6.5590515 -6.5590515zm6.5590515 -91.82678l0 0c3.622467 0 6.5590515 2.9365845 6.5590515 6.5590515c0 3.622467 -2.9365845 6.559067 -6.5590515 6.559067c-1.8112183 0 -3.2795105 -1.4683075 -3.2795105 -3.2795258c0 -1.8112335 1.4682922 -3.279541 3.2795105 -3.279541l6.5590515 0m169.74805 6.559067l-176.3071 0m-13.118103 78.708664l0 0c1.8112488 0 3.279541 1.4682922 3.279541 3.2795105c0 1.8112488 -1.4682922 3.279541 -3.279541 3.279541l6.5590515 0m-6.5590515 6.5590515l0 0c3.622467 0 6.5590515 -2.9365845 6.5590515 -6.5590515l0 -6.5590515" fill-rule="evenodd"/><path stroke="#233a44" stroke-width="4.0" stroke-linejoin="round" stroke-linecap="butt" d="m450.12335 319.86877l0 -85.26773l0 0c0 -3.622467 2.9365845 -6.5590515 6.5590515 -6.5590515l182.86618 0c3.6224365 0 6.559021 2.9365845 6.559021 6.5590515c0 3.622467 -2.9365845 6.559067 -6.559021 6.559067l-6.559082 0l0 85.267715c0 3.622467 -2.9365845 6.5590515 -6.559082 6.5590515l-182.86612 0l0 0c-3.622467 0 -6.5590515 -2.9365845 -6.5590515 -6.5590515c0 -3.622467 2.9365845 -6.5590515 6.5590515 -6.5590515zm6.5590515 -91.82678l0 0c3.622467 0 6.5590515 2.9365845 6.5590515 6.5590515c0 3.622467 -2.9365845 6.559067 -6.5590515 6.559067c-1.8112183 0 -3.2795105 -1.4683075 -3.2795105 -3.2795258c0 -1.8112335 1.4682922 -3.279541 3.2795105 -3.279541l6.5590515 0m169.74805 6.559067l-176.3071 0m-13.118103 78.708664l0 0c1.8112488 0 3.279541 1.4682922 3.279541 3.2795105c0 1.8112488 -1.4682922 3.279541 -3.279541 3.279541l6.5590515 0m-6.5590515 6.5590515l0 0c3.622467 0 6.5590515 -2.9365845 6.5590515 -6.5590515l0 -6.5590515" fill-rule="evenodd"/><path fill="#000000" d="m464.01398 278.22458q-1.0 0 -1.859375 -0.3125q-0.84375 -0.296875 -1.515625 -0.84375q-0.09375 -0.09375 -0.1875 -0.21875q-0.078125 -0.125 -0.125 -0.265625q-0.125 -0.484375 -0.15625 -1.25q-0.03125 -0.765625 -0.09375 -1.265625q0 -0.171875 0.140625 -0.25q0.15625 -0.09375 0.34375 -0.09375q0.125 0 0.234375 0.0625q0.125 0.0625 0.15625 0.203125q0.46875 1.859375 1.421875 2.65625q0.953125 0.78125 1.984375 0.78125q0.84375 0 1.484375 -0.359375q0.65625 -0.359375 1.015625 -1.015625q0.375 -0.671875 0.375 -1.5625q0 -0.96875 -0.328125 -1.578125q-0.3125 -0.625 -0.921875 -1.078125q-0.59375 -0.453125 -1.453125 -0.984375q-0.9375 -0.59375 -1.859375 -1.203125q-0.90625 -0.625 -1.515625 -1.421875q-0.59375 -0.8125 -0.59375 -1.953125q0 -1.234375 0.546875 -2.21875q0.5625 -0.984375 1.671875 -1.5625q1.125 -0.59375 2.796875 -0.59375q0.859375 0 1.5 0.1875q0.640625 0.171875 1.015625 0.34375q0.203125 0.0625 0.328125 0.234375q0.140625 0.171875 0.1875 0.359375q0.140625 0.515625 0.296875 1.15625q0.171875 0.640625 0.171875 1.21875q0 0.265625 -0.359375 0.265625q-0.203125 0 -0.421875 -0.09375q-0.203125 -0.09375 -0.25 -0.234375q-0.5 -1.28125 -1.171875 -1.953125q-0.671875 -0.671875 -1.703125 -0.671875q-0.71875 0 -1.34375 0.265625q-0.625 0.265625 -1.03125 0.875q-0.390625 0.59375 -0.390625 1.59375q0 0.734375 0.46875 1.328125q0.46875 0.578125 1.234375 1.109375q0.78125 0.515625 1.65625 1.078125q0.84375 0.5 1.640625 1.109375q0.8125 0.59375 1.328125 1.421875q0.515625 0.828125 0.515625 2.03125q0 1.40625 -0.65625 2.484375q-0.640625 1.0625 -1.8125 1.640625q-1.171875 0.578125 -2.765625 0.578125zm10.800598 -0.046875q-1.171875 0 -1.828125 -0.71875q-0.65625 -0.734375 -0.65625 -2.140625l0 -5.578125q0 -0.1875 -0.15625 -0.265625q-0.140625 -0.09375 -0.625 -0.09375l-0.140625 0q-0.109375 0 -0.203125 -0.15625q-0.078125 -0.15625 -0.078125 -0.3125q0 -0.046875 0.0625 -0.140625q0.078125 -0.109375 0.109375 -0.125q0.46875 -0.34375 0.859375 -0.671875q0.40625 -0.34375 0.71875 -0.65625q0.328125 -0.328125 0.546875 -0.59375q0.125 -0.125 0.203125 -0.203125q0.09375 -0.09375 0.203125 -0.09375q0.125 0 0.234375 0.0625q0.109375 0.046875 0.078125 0.203125l-0.109375 1.078125q-0.03125 0.265625 0.109375 0.375q0.15625 0.09375 0.453125 0.09375l2.75 0q0.09375 0 0.15625 0.15625q0.078125 0.15625 0.078125 0.359375q0 0.21875 -0.078125 0.421875q-0.0625 0.203125 -0.15625 0.203125l-2.375 0q-0.609375 0 -0.796875 0.109375q-0.171875 0.09375 -0.171875 0.5625l0 4.734375q0 0.953125 0.40625 1.515625q0.40625 0.546875 1.171875 0.546875q0.703125 0 1.078125 -0.109375q0.390625 -0.109375 0.703125 -0.328125q0.046875 -0.046875 0.09375 -0.046875q0.09375 0 0.125 0.109375q0.046875 0.109375 0.046875 0.234375q0 0.109375 -0.40625 0.484375q-0.390625 0.359375 -1.03125 0.671875q-0.625 0.3125 -1.375 0.3125zm5.81723 0q-0.4375 0 -0.890625 -0.34375q-0.4375 -0.34375 -0.734375 -0.8125q-0.296875 -0.484375 -0.296875 -0.921875q0 -0.765625 0.40625 -1.1875q0.40625 -0.4375 1.296875 -0.796875l2.453125 -1.015625q0.46875 -0.1875 0.546875 -0.328125q0.09375 -0.140625 0.125 -0.625l0.046875 -1.53125q0.015625 -0.625 -0.359375 -1.078125q-0.359375 -0.46875 -1.0625 -0.46875q-0.359375 0 -0.71875 0.125q-0.359375 0.125 -0.59375 0.3125q-0.15625 0.09375 -0.203125 0.296875q-0.046875 0.1875 -0.046875 0.40625q0 0.09375 0.015625 0.21875q0.015625 0.109375 0.015625 0.203125q0 0.125 -0.3125 0.328125q-0.296875 0.203125 -0.671875 0.359375q-0.359375 0.15625 -0.609375 0.15625q-0.109375 0 -0.1875 -0.0625q-0.078125 -0.0625 -0.078125 -0.15625q0 -0.375 0.25 -0.8125q0.265625 -0.453125 0.71875 -0.84375q0.546875 -0.5 1.1875 -0.875q0.65625 -0.390625 1.28125 -0.609375q0.625 -0.21875 1.109375 -0.21875q0.859375 0 1.421875 0.609375q0.5625 0.609375 0.546875 1.53125l-0.125 5.75q-0.03125 0.515625 0.21875 0.828125q0.265625 0.3125 0.640625 0.3125q0.609375 0 0.890625 -0.265625q0.125 -0.125 0.1875 -0.125q0.125 0 0.1875 0.078125q0.078125 0.0625 0.078125 0.1875q0 0.265625 -0.265625 0.53125q-0.375 0.375 -0.828125 0.609375q-0.4375 0.234375 -0.828125 0.234375q-1.09375 0 -1.75 -1.25l-0.0625 0q-0.796875 0.640625 -1.515625 0.9375q-0.71875 0.3125 -1.484375 0.3125zm1.125 -1.15625q0.484375 0 0.8125 -0.15625q0.34375 -0.15625 0.609375 -0.421875q0.109375 -0.125 0.1875 -0.328125q0.09375 -0.203125 0.109375 -0.65625l0.0625 -1.171875q0.015625 -0.265625 -0.03125 -0.390625q-0.046875 -0.125 -0.1875 -0.125q-0.046875 0 -0.171875 0.03125q-0.125 0.015625 -0.3125 0.09375q-1.265625 0.453125 -1.765625 0.953125q-0.484375 0.484375 -0.484375 0.890625q0 0.625 0.359375 0.953125q0.375 0.328125 0.8125 0.328125zm10.325989 7.765625q-2.046875 0 -3.234375 -0.78125q-1.1875 -0.765625 -1.1875 -2.09375q0 -0.625 0.1875 -1.0625q0.1875 -0.421875 0.609375 -0.734375q0.328125 -0.296875 0.890625 -0.734375q0.5625 -0.4375 1.171875 -0.921875l1.0 0.046875q-1.15625 0.75 -1.609375 1.421875q-0.453125 0.671875 -0.453125 1.625q0 0.96875 0.84375 1.625q0.859375 0.65625 2.109375 0.65625q1.421875 0 2.28125 -0.640625q0.59375 -0.46875 0.921875 -1.203125q0.34375 -0.71875 0.34375 -1.546875q0 -0.515625 -0.375 -0.875q-0.359375 -0.34375 -1.15625 -0.5625q-0.796875 -0.21875 -2.0625 -0.28125q-2.25 -0.171875 -3.140625 -0.609375q-0.875 -0.421875 -0.875 -1.34375q0 -0.234375 0.125 -0.4375q0.140625 -0.203125 0.4375 -0.4375q0.546875 -0.4375 0.8125 -0.640625q0.265625 -0.203125 0.390625 -0.34375q0.140625 -0.15625 0.25 -0.359375l0.828125 0.40625q-0.53125 0.1875 -0.890625 0.515625q-0.359375 0.3125 -0.359375 0.578125q0 0.34375 0.359375 0.59375q0.359375 0.25 1.046875 0.40625q0.703125 0.140625 1.703125 0.203125q2.21875 0.125 3.296875 0.71875q1.078125 0.609375 1.078125 1.703125q0 0.9375 -0.46875 1.828125q-0.46875 0.90625 -1.234375 1.65625q-0.765625 0.75 -1.71875 1.1875q-0.953125 0.4375 -1.921875 0.4375zm0.28125 -10.34375q0.90625 0 1.5 -0.921875q0.609375 -0.921875 0.609375 -2.28125q0 -0.703125 -0.328125 -1.3125q-0.3125 -0.609375 -0.828125 -0.984375q-0.515625 -0.375 -1.125 -0.375q-0.546875 0 -1.046875 0.40625q-0.484375 0.390625 -0.796875 1.015625q-0.296875 0.625 -0.296875 1.359375q0 0.84375 0.3125 1.5625q0.3125 0.703125 0.84375 1.125q0.53125 0.40625 1.15625 0.40625zm-0.140625 0.84375q-0.984375 0 -1.875 -0.5q-0.890625 -0.5 -1.453125 -1.328125q-0.5625 -0.828125 -0.5625 -1.8125q0 -1.125 0.578125 -1.984375q0.59375 -0.859375 1.546875 -1.328125q0.96875 -0.484375 2.046875 -0.484375q0.703125 0 1.21875 0.1875q0.515625 0.171875 1.015625 0.3125q0.578125 0.171875 0.90625 0.21875q0.34375 0.03125 0.703125 0.03125q0.28125 0 0.71875 -0.03125q0.4375 -0.046875 0.59375 -0.046875q0.3125 0 0.3125 0.359375q0 0.21875 -0.234375 0.453125q-0.125 0.125 -0.1875 0.125l-0.65625 0q-0.640625 0 -0.71875 0.1875q-0.015625 0.09375 -0.0625 0.28125q-0.03125 0.171875 -0.0625 0.390625q-0.015625 0.21875 -0.015625 0.4375q0 1.21875 -0.53125 2.25q-0.53125 1.03125 -1.390625 1.65625q-0.859375 0.625 -1.890625 0.625zm10.721222 2.90625q-1.3125 0 -2.296875 -0.640625q-0.984375 -0.65625 -1.546875 -1.84375q-0.546875 -1.1875 -0.546875 -2.75q0 -1.390625 0.625 -2.53125q0.640625 -1.140625 1.703125 -1.828125q1.0625 -0.703125 2.3125 -0.703125q0.953125 0 1.6875 0.390625q0.75 0.375 1.171875 1.0625q0.421875 0.6875 0.421875 1.578125q0 0.734375 -0.71875 0.734375l-5.0625 0q-0.34375 0 -0.484375 0.1875q-0.125 0.171875 -0.125 0.703125q0 1.15625 0.5 2.109375q0.515625 0.9375 1.34375 1.5q0.84375 0.5625 1.859375 0.5625q0.71875 0 1.296875 -0.265625q0.59375 -0.28125 1.046875 -0.8125q0.109375 -0.109375 0.15625 -0.140625q0.046875 -0.046875 0.109375 -0.046875q0.203125 0 0.203125 0.234375q0 0.453125 -0.4375 1.015625q-0.359375 0.453125 -0.875 0.796875q-0.5 0.328125 -1.09375 0.5q-0.59375 0.1875 -1.25 0.1875zm-2.203125 -7.265625l2.1875 0q0.5625 0 0.96875 -0.015625q0.421875 -0.03125 0.796875 -0.109375q0.125 -0.03125 0.15625 -0.15625q0.046875 -0.125 0.046875 -0.375q0 -0.6875 -0.625 -1.171875q-0.609375 -0.5 -1.453125 -0.5q-0.546875 0 -1.09375 0.328125q-0.546875 0.3125 -0.921875 0.796875q-0.359375 0.484375 -0.359375 0.953125q0 0.25 0.296875 0.25z" fill-rule="nonzero"/><path fill="#000000" d="m459.76398 306.95895q-0.296875 0 -0.5 -0.09375q-0.1875 -0.078125 -0.1875 -0.21875q0 -0.171875 0.203125 -0.296875q0.203125 -0.140625 0.59375 -0.265625q0.625 -0.1875 1.140625 -0.5625q0.53125 -0.390625 0.921875 -1.28125q0.671875 -1.53125 1.234375 -2.875q0.5625 -1.34375 1.0625 -2.640625q0.5 -1.296875 1.046875 -2.703125q0.546875 -1.40625 1.140625 -3.0625q0.125 -0.328125 0.21875 -0.65625q0.09375 -0.34375 0.109375 -0.734375q0.21875 -0.078125 0.4375 -0.140625q0.21875 -0.078125 0.4375 -0.21875q0.21875 -0.140625 0.296875 -0.421875q0.078125 -0.296875 0.15625 -0.390625q0.015625 -0.03125 0.046875 -0.03125q0.046875 0 0.078125 0.046875q0.046875 0.109375 0.078125 0.25q0.03125 0.140625 0.078125 0.28125q0.578125 1.828125 1.203125 3.734375q0.625 1.890625 1.203125 3.65625q0.59375 1.75 1.078125 3.15625q0.5 1.40625 0.796875 2.265625q0.328125 0.96875 0.703125 1.453125q0.390625 0.46875 0.8125 0.671875q0.421875 0.1875 0.90625 0.28125q0.40625 0.078125 0.59375 0.234375q0.203125 0.15625 0.203125 0.3125q0 0.15625 -0.203125 0.203125q-0.1875 0.046875 -0.5 0.046875q-0.328125 0 -0.90625 -0.046875q-0.578125 -0.03125 -1.234375 -0.078125q-0.640625 -0.03125 -1.1875 -0.03125q-0.46875 0 -0.953125 0q-0.46875 0 -0.875 0.015625q-0.40625 0.015625 -0.703125 0.015625q-0.3125 0 -0.5 -0.0625q-0.1875 -0.078125 -0.1875 -0.21875q0 -0.171875 0.234375 -0.296875q0.234375 -0.125 0.546875 -0.171875q0.796875 -0.109375 1.125 -0.390625q0.34375 -0.296875 0.34375 -0.6875q0 -0.359375 -0.15625 -1.03125q-0.15625 -0.6875 -0.375 -1.46875q-0.21875 -0.78125 -0.40625 -1.390625q-0.046875 -0.1875 -0.1875 -0.21875q-0.125 -0.03125 -0.453125 -0.03125l-4.546875 0q-0.09375 0 -0.203125 0.078125q-0.109375 0.078125 -0.203125 0.34375q-0.0625 0.25 -0.234375 0.765625q-0.171875 0.515625 -0.34375 1.09375q-0.15625 0.5625 -0.28125 1.03125q-0.125 0.453125 -0.125 0.5625q0 0.53125 0.40625 0.890625q0.421875 0.34375 0.984375 0.484375q0.796875 0.21875 0.796875 0.484375q0 0.140625 -0.1875 0.203125q-0.1875 0.0625 -0.5 0.0625q-0.3125 0 -0.921875 -0.03125q-0.59375 -0.03125 -1.265625 -0.03125q-0.796875 0 -1.546875 0.078125q-0.734375 0.078125 -1.34375 0.078125zm5.625 -6.890625l3.71875 0q0.328125 0 0.328125 -0.125q0 -0.046875 -0.015625 -0.109375q0 -0.0625 -0.03125 -0.125l-1.859375 -5.859375q-0.15625 -0.4375 -0.21875 -0.4375q-0.046875 0 -0.203125 0.40625l-2.171875 5.890625q-0.046875 0.140625 -0.046875 0.1875q0 0.125 0.125 0.15625q0.140625 0.015625 0.375 0.015625zm18.904846 7.21875q-0.046875 0 -0.15625 -0.09375q-0.109375 -0.09375 -0.109375 -0.140625q0 -0.25 0.0625 -0.6875q0.0625 -0.4375 0.0625 -0.75l0 -0.15625q-0.359375 0.5625 -1.15625 1.140625q-0.78125 0.578125 -1.984375 0.578125q-1.375 0 -2.375 -0.71875q-0.984375 -0.734375 -1.53125 -1.859375q-0.53125 -1.125 -0.53125 -2.328125q0 -1.390625 0.640625 -2.609375q0.65625 -1.234375 1.859375 -2.0q1.21875 -0.765625 2.890625 -0.765625q0.484375 0 0.96875 0.09375q0.5 0.078125 0.765625 0.171875q0.21875 0.078125 0.3125 0.078125q0.171875 0 0.171875 -0.578125l0 -3.40625q0 -0.984375 -0.3125 -1.3125q-0.3125 -0.34375 -0.890625 -0.453125q-0.21875 -0.046875 -0.21875 -0.296875q0 -0.21875 0.1875 -0.296875q1.0625 -0.265625 1.65625 -0.5q0.609375 -0.25 0.9375 -0.390625q0.09375 -0.046875 0.171875 -0.046875q0.09375 -0.015625 0.140625 -0.015625q0.140625 0 0.171875 0.140625q0 0.140625 -0.046875 0.5q-0.03125 0.34375 -0.078125 1.015625q-0.046875 0.671875 -0.046875 1.75l0 10.84375q0 0.8125 0.125 1.1875q0.125 0.375 0.375 0.375q0.125 0 0.421875 -0.015625q0.3125 -0.03125 0.609375 -0.0625q0.4375 -0.015625 0.4375 0.21875q0 0.171875 -0.109375 0.3125q-0.109375 0.125 -0.21875 0.125q-0.671875 0.09375 -1.328125 0.28125q-0.640625 0.171875 -1.484375 0.53125q-0.1875 0.09375 -0.25 0.109375q-0.0625 0.03125 -0.140625 0.03125zm-2.421875 -1.359375q0.625 0 1.21875 -0.328125q0.609375 -0.328125 1.0625 -0.859375l0.03125 -4.3125q0 -0.65625 -0.375 -1.265625q-0.375 -0.625 -1.03125 -1.015625q-0.65625 -0.40625 -1.546875 -0.40625q-0.5625 0 -1.265625 0.34375q-0.6875 0.328125 -1.1875 1.1875q-0.5 0.84375 -0.5 2.453125q0 1.359375 0.40625 2.1875q0.40625 0.828125 0.984375 1.265625q0.59375 0.4375 1.203125 0.59375q0.625 0.15625 1.0 0.15625zm11.143951 1.40625q-0.09375 0 -0.25 -0.375q-0.140625 -0.359375 -0.1875 -0.53125q-0.171875 -0.40625 -0.3125 -0.84375q-0.140625 -0.453125 -0.28125 -0.84375q-0.53125 -1.484375 -1.140625 -2.90625q-0.609375 -1.4375 -1.1875 -2.890625q-0.171875 -0.4375 -0.53125 -0.78125q-0.34375 -0.359375 -0.703125 -0.453125q-0.1875 -0.0625 -0.3125 -0.140625q-0.109375 -0.078125 -0.109375 -0.234375q0 -0.140625 0.171875 -0.171875q0.1875 -0.046875 0.296875 -0.046875q0.484375 0 0.703125 0.03125q0.21875 0.015625 0.421875 0.0625q0.21875 0.03125 0.640625 0.03125q0.421875 0 0.640625 -0.03125q0.21875 -0.046875 0.453125 -0.0625q0.25 -0.03125 0.703125 -0.03125q0.109375 0 0.28125 0.046875q0.1875 0.03125 0.1875 0.171875q0 0.15625 -0.171875 0.265625q-0.15625 0.09375 -0.375 0.15625q-0.234375 0.109375 -0.359375 0.390625q-0.125 0.265625 -0.125 0.59375q0 0.171875 0.015625 0.34375q0.03125 0.171875 0.09375 0.3125l1.890625 5.03125q0.015625 0.03125 0.03125 0.03125q0.015625 0 0.03125 -0.03125l1.828125 -4.671875q0.09375 -0.234375 0.140625 -0.515625q0.0625 -0.28125 0.0625 -0.46875q0 -0.484375 -0.15625 -0.6875q-0.140625 -0.203125 -0.46875 -0.328125q-0.3125 -0.109375 -0.4375 -0.1875q-0.125 -0.078125 -0.125 -0.234375q0 -0.140625 0.15625 -0.171875q0.15625 -0.046875 0.328125 -0.046875q0.265625 0 0.6875 0.0625q0.4375 0.0625 1.0625 0.0625q0.625 0 0.84375 -0.0625q0.234375 -0.0625 0.578125 -0.0625q0.1875 0 0.328125 0.046875q0.140625 0.03125 0.140625 0.171875q0 0.265625 -0.546875 0.421875q-0.359375 0.109375 -0.796875 0.5625q-0.421875 0.453125 -0.6875 1.046875l-1.875 4.515625q-0.046875 0.09375 -0.1875 0.46875q-0.140625 0.375 -0.3125 0.828125q-0.171875 0.4375 -0.296875 0.765625q-0.109375 0.3125 -0.109375 0.3125q0 0 -0.109375 0.234375q-0.09375 0.21875 -0.21875 0.46875q-0.109375 0.265625 -0.203125 0.375l-0.140625 0zm7.8238525 -0.15625q-0.4375 0 -0.890625 -0.34375q-0.4375 -0.34375 -0.734375 -0.8125q-0.296875 -0.484375 -0.296875 -0.921875q0 -0.765625 0.40625 -1.1875q0.40625 -0.4375 1.296875 -0.796875l2.453125 -1.015625q0.46875 -0.1875 0.546875 -0.328125q0.09375 -0.140625 0.125 -0.625l0.046875 -1.53125q0.015625 -0.625 -0.359375 -1.078125q-0.359375 -0.46875 -1.0625 -0.46875q-0.359375 0 -0.71875 0.125q-0.359375 0.125 -0.59375 0.3125q-0.15625 0.09375 -0.203125 0.296875q-0.046875 0.1875 -0.046875 0.40625q0 0.09375 0.015625 0.21875q0.015625 0.109375 0.015625 0.203125q0 0.125 -0.3125 0.328125q-0.296875 0.203125 -0.671875 0.359375q-0.359375 0.15625 -0.609375 0.15625q-0.109375 0 -0.1875 -0.0625q-0.078125 -0.0625 -0.078125 -0.15625q0 -0.375 0.25 -0.8125q0.265625 -0.453125 0.71875 -0.84375q0.546875 -0.5 1.1875 -0.875q0.65625 -0.390625 1.28125 -0.609375q0.625 -0.21875 1.109375 -0.21875q0.859375 0 1.421875 0.609375q0.5625 0.609375 0.546875 1.53125l-0.125 5.75q-0.03125 0.515625 0.21875 0.828125q0.265625 0.3125 0.640625 0.3125q0.609375 0 0.890625 -0.265625q0.125 -0.125 0.1875 -0.125q0.125 0 0.1875 0.078125q0.078125 0.0625 0.078125 0.1875q0 0.265625 -0.265625 0.53125q-0.375 0.375 -0.828125 0.609375q-0.4375 0.234375 -0.828125 0.234375q-1.09375 0 -1.75 -1.25l-0.0625 0q-0.796875 0.640625 -1.515625 0.9375q-0.71875 0.3125 -1.484375 0.3125zm1.125 -1.15625q0.484375 0 0.8125 -0.15625q0.34375 -0.15625 0.609375 -0.421875q0.109375 -0.125 0.1875 -0.328125q0.09375 -0.203125 0.109375 -0.65625l0.0625 -1.171875q0.015625 -0.265625 -0.03125 -0.390625q-0.046875 -0.125 -0.1875 -0.125q-0.046875 0 -0.171875 0.03125q-0.125 0.015625 -0.3125 0.09375q-1.265625 0.453125 -1.765625 0.953125q-0.484375 0.484375 -0.484375 0.890625q0 0.625 0.359375 0.953125q0.375 0.328125 0.8125 0.328125zm6.7009583 0.890625q-0.21875 0 -0.359375 -0.0625q-0.125 -0.0625 -0.125 -0.203125q0 -0.203125 0.140625 -0.25q0.140625 -0.0625 0.40625 -0.140625q0.359375 -0.09375 0.6875 -0.265625q0.34375 -0.171875 0.34375 -0.640625l0 -5.15625q0 -0.65625 -0.140625 -1.109375q-0.125 -0.453125 -0.75 -0.625q-0.09375 -0.046875 -0.171875 -0.109375q-0.0625 -0.0625 -0.0625 -0.203125q0 -0.265625 0.21875 -0.28125q0.84375 -0.21875 1.359375 -0.53125q0.53125 -0.3125 1.03125 -0.703125q0.078125 -0.046875 0.140625 -0.078125q0.0625 -0.03125 0.125 -0.03125q0.046875 0 0.078125 0.046875q0.046875 0.046875 0.046875 0.109375q0 0.171875 -0.0625 0.6875q-0.0625 0.515625 -0.0625 0.859375q0 0.09375 0.015625 0.171875q0.015625 0.078125 0.03125 0.109375q0.84375 -0.796875 1.796875 -1.203125q0.953125 -0.40625 2.078125 -0.40625q1.171875 0 1.9375 0.96875q0.765625 0.953125 0.765625 2.375l0 5.109375q0 0.46875 0.328125 0.625q0.34375 0.15625 0.703125 0.28125q0.203125 0.078125 0.375 0.15625q0.1875 0.078125 0.1875 0.28125q0 0.140625 -0.171875 0.171875q-0.171875 0.046875 -0.3125 0.046875q-0.484375 0 -0.75 -0.046875q-0.265625 -0.03125 -0.5 -0.046875q-0.234375 -0.03125 -0.671875 -0.03125q-0.40625 0 -0.671875 0.03125q-0.265625 0.015625 -0.546875 0.046875q-0.265625 0.046875 -0.75 0.046875q-0.125 0 -0.3125 -0.046875q-0.171875 -0.03125 -0.171875 -0.171875q0 -0.203125 0.171875 -0.28125q0.1875 -0.078125 0.390625 -0.15625q0.359375 -0.125 0.6875 -0.28125q0.34375 -0.15625 0.34375 -0.625l0 -5.046875q0 -1.046875 -0.59375 -1.640625q-0.578125 -0.59375 -1.5625 -0.609375q-0.875 0 -1.53125 0.28125q-0.640625 0.265625 -1.140625 0.671875q-0.09375 0.09375 -0.140625 0.25q-0.046875 0.15625 -0.046875 0.3125l0 5.78125q0 0.46875 0.328125 0.640625q0.34375 0.171875 0.703125 0.265625q0.546875 0.140625 0.546875 0.390625q0 0.140625 -0.125 0.203125q-0.109375 0.0625 -0.359375 0.0625q-0.46875 0 -0.75 -0.046875q-0.28125 -0.03125 -0.515625 -0.046875q-0.234375 -0.03125 -0.671875 -0.03125q-0.40625 0 -0.65625 0.03125q-0.25 0.015625 -0.53125 0.046875q-0.28125 0.046875 -0.75 0.046875zm16.718872 0.28125q-1.203125 0 -2.171875 -0.609375q-0.96875 -0.609375 -1.53125 -1.671875q-0.5625 -1.078125 -0.5625 -2.390625q0 -1.5625 0.671875 -2.828125q0.6875 -1.28125 1.84375 -2.03125q1.15625 -0.765625 2.546875 -0.765625q1.5625 0 2.734375 0.84375q0.28125 0.21875 0.28125 0.453125q0 0.1875 -0.171875 0.4375q-0.15625 0.234375 -0.40625 0.390625q-0.234375 0.15625 -0.453125 0.15625q-0.109375 0 -0.234375 -0.078125q-0.125 -0.09375 -0.265625 -0.1875q-0.53125 -0.40625 -1.1875 -0.765625q-0.640625 -0.359375 -1.0625 -0.359375q-1.1875 0 -1.921875 1.09375q-0.71875 1.09375 -0.71875 2.859375q0 1.140625 0.484375 2.046875q0.5 0.90625 1.328125 1.4375q0.828125 0.53125 1.828125 0.53125q0.703125 0 1.203125 -0.21875q0.5 -0.234375 1.078125 -0.8125q0.046875 -0.046875 0.109375 -0.078125q0.078125 -0.046875 0.125 -0.046875q0.265625 0 0.265625 0.34375q0 0.140625 -0.078125 0.328125q-0.078125 0.171875 -0.28125 0.40625q-0.375 0.484375 -0.90625 0.84375q-0.53125 0.34375 -1.171875 0.5q-0.625 0.171875 -1.375 0.171875zm9.287964 0q-1.3125 0 -2.296875 -0.640625q-0.984375 -0.65625 -1.546875 -1.84375q-0.546875 -1.1875 -0.546875 -2.75q0 -1.390625 0.625 -2.53125q0.640625 -1.140625 1.703125 -1.828125q1.0625 -0.703125 2.3125 -0.703125q0.953125 0 1.6875 0.390625q0.75 0.375 1.171875 1.0625q0.421875 0.6875 0.421875 1.578125q0 0.734375 -0.71875 0.734375l-5.0625 0q-0.34375 0 -0.484375 0.1875q-0.125 0.171875 -0.125 0.703125q0 1.15625 0.5 2.109375q0.515625 0.9375 1.34375 1.5q0.84375 0.5625 1.859375 0.5625q0.71875 0 1.296875 -0.265625q0.59375 -0.28125 1.046875 -0.8125q0.109375 -0.109375 0.15625 -0.140625q0.046875 -0.046875 0.109375 -0.046875q0.203125 0 0.203125 0.234375q0 0.453125 -0.4375 1.015625q-0.359375 0.453125 -0.875 0.796875q-0.5 0.328125 -1.09375 0.5q-0.59375 0.1875 -1.25 0.1875zm-2.203125 -7.265625l2.1875 0q0.5625 0 0.96875 -0.015625q0.421875 -0.03125 0.796875 -0.109375q0.125 -0.03125 0.15625 -0.15625q0.046875 -0.125 0.046875 -0.375q0 -0.6875 -0.625 -1.171875q-0.609375 -0.5 -1.453125 -0.5q-0.546875 0 -1.09375 0.328125q-0.546875 0.3125 -0.921875 0.796875q-0.359375 0.484375 -0.359375 0.953125q0 0.25 0.296875 0.25zm7.5162354 6.984375q-0.203125 0 -0.34375 -0.0625q-0.140625 -0.046875 -0.140625 -0.203125q0 -0.171875 0.15625 -0.234375q0.15625 -0.078125 0.390625 -0.15625q0.34375 -0.125 0.6875 -0.28125q0.34375 -0.15625 0.34375 -0.625l0 -5.15625q0 -0.65625 -0.140625 -1.140625q-0.140625 -0.5 -0.765625 -0.59375q-0.09375 -0.03125 -0.15625 -0.09375q-0.0625 -0.078125 -0.0625 -0.21875q0 -0.234375 0.1875 -0.28125q0.65625 -0.171875 1.03125 -0.34375q0.390625 -0.1875 0.6875 -0.40625q0.296875 -0.234375 0.734375 -0.5q0.046875 -0.03125 0.09375 -0.0625q0.046875 -0.03125 0.125 -0.03125q0.140625 0 0.140625 0.15625q0 0.171875 -0.0625 0.6875q-0.0625 0.515625 -0.0625 0.859375q0 0.234375 0.046875 0.28125l0.0625 0q0.546875 -0.53125 1.4375 -1.0625q0.90625 -0.546875 2.296875 -0.546875q0.859375 0 1.4375 0.375q0.578125 0.375 0.96875 1.28125l0.0625 0q0.765625 -0.6875 1.75 -1.171875q0.984375 -0.484375 2.171875 -0.484375q0.78125 0 1.3125 0.484375q0.53125 0.484375 0.796875 1.25q0.28125 0.765625 0.28125 1.609375l0 5.109375q0 0.46875 0.328125 0.625q0.34375 0.15625 0.703125 0.28125q0.25 0.078125 0.40625 0.15625q0.15625 0.0625 0.15625 0.234375q0 0.140625 -0.109375 0.203125q-0.109375 0.0625 -0.375 0.0625q-0.484375 0 -0.75 -0.046875q-0.265625 -0.03125 -0.5 -0.046875q-0.21875 -0.03125 -0.640625 -0.03125q-0.40625 0 -0.671875 0.03125q-0.265625 0.015625 -0.5625 0.046875q-0.28125 0.046875 -0.765625 0.046875q-0.21875 0 -0.359375 -0.0625q-0.125 -0.0625 -0.125 -0.203125q0 -0.203125 0.15625 -0.265625q0.15625 -0.078125 0.40625 -0.125q0.375 -0.09375 0.703125 -0.265625q0.328125 -0.171875 0.328125 -0.640625l0 -5.046875q0 -0.578125 -0.265625 -1.09375q-0.265625 -0.515625 -0.703125 -0.84375q-0.421875 -0.34375 -0.953125 -0.34375q-0.59375 0 -1.125 0.15625q-0.515625 0.140625 -0.96875 0.5q-0.671875 0.53125 -0.671875 1.71875l0 4.953125q0 0.46875 0.359375 0.640625q0.359375 0.171875 0.71875 0.265625q0.25 0.046875 0.40625 0.140625q0.15625 0.078125 0.15625 0.25q0 0.140625 -0.125 0.203125q-0.125 0.0625 -0.359375 0.0625q-0.484375 0 -0.765625 -0.046875q-0.265625 -0.03125 -0.515625 -0.046875q-0.25 -0.03125 -0.6875 -0.03125q-0.40625 0 -0.671875 0.03125q-0.265625 0.015625 -0.5625 0.046875q-0.28125 0.046875 -0.75 0.046875q-0.203125 0 -0.34375 -0.0625q-0.140625 -0.0625 -0.140625 -0.203125q0 -0.203125 0.171875 -0.25q0.1875 -0.0625 0.375 -0.140625q0.359375 -0.125 0.703125 -0.28125q0.359375 -0.15625 0.359375 -0.625l0 -5.046875q0 -0.578125 -0.265625 -1.09375q-0.265625 -0.515625 -0.703125 -0.84375q-0.421875 -0.34375 -0.953125 -0.34375q-0.609375 0 -1.125 0.15625q-0.515625 0.140625 -0.96875 0.5q-0.640625 0.46875 -0.640625 1.71875l0 4.953125q0 0.46875 0.328125 0.625q0.34375 0.15625 0.703125 0.28125q0.1875 0.078125 0.359375 0.140625q0.1875 0.046875 0.1875 0.25q0 0.140625 -0.140625 0.203125q-0.125 0.0625 -0.34375 0.0625q-0.46875 0 -0.75 -0.046875q-0.28125 -0.03125 -0.515625 -0.046875q-0.234375 -0.03125 -0.671875 -0.03125q-0.40625 0 -0.65625 0.03125q-0.25 0.015625 -0.53125 0.046875q-0.28125 0.046875 -0.75 0.046875zm22.718811 0.28125q-1.3125 0 -2.296875 -0.640625q-0.984375 -0.65625 -1.546875 -1.84375q-0.546875 -1.1875 -0.546875 -2.75q0 -1.390625 0.625 -2.53125q0.640625 -1.140625 1.703125 -1.828125q1.0625 -0.703125 2.3125 -0.703125q0.953125 0 1.6875 0.390625q0.75 0.375 1.171875 1.0625q0.421875 0.6875 0.421875 1.578125q0 0.734375 -0.71875 0.734375l-5.0625 0q-0.34375 0 -0.484375 0.1875q-0.125 0.171875 -0.125 0.703125q0 1.15625 0.5 2.109375q0.515625 0.9375 1.34375 1.5q0.84375 0.5625 1.859375 0.5625q0.71875 0 1.296875 -0.265625q0.59375 -0.28125 1.046875 -0.8125q0.109375 -0.109375 0.15625 -0.140625q0.046875 -0.046875 0.109375 -0.046875q0.203125 0 0.203125 0.234375q0 0.453125 -0.4375 1.015625q-0.359375 0.453125 -0.875 0.796875q-0.5 0.328125 -1.09375 0.5q-0.59375 0.1875 -1.25 0.1875zm-2.203125 -7.265625l2.1875 0q0.5625 0 0.96875 -0.015625q0.421875 -0.03125 0.796875 -0.109375q0.125 -0.03125 0.15625 -0.15625q0.046875 -0.125 0.046875 -0.375q0 -0.6875 -0.625 -1.171875q-0.609375 -0.5 -1.453125 -0.5q-0.546875 0 -1.09375 0.328125q-0.546875 0.3125 -0.921875 0.796875q-0.359375 0.484375 -0.359375 0.953125q0 0.25 0.296875 0.25zm7.5162354 6.984375q-0.21875 0 -0.359375 -0.0625q-0.125 -0.0625 -0.125 -0.203125q0 -0.203125 0.140625 -0.25q0.140625 -0.0625 0.40625 -0.140625q0.359375 -0.09375 0.6875 -0.265625q0.34375 -0.171875 0.34375 -0.640625l0 -5.15625q0 -0.65625 -0.140625 -1.109375q-0.125 -0.453125 -0.75 -0.625q-0.09375 -0.046875 -0.171875 -0.109375q-0.0625 -0.0625 -0.0625 -0.203125q0 -0.265625 0.21875 -0.28125q0.84375 -0.21875 1.359375 -0.53125q0.53125 -0.3125 1.03125 -0.703125q0.078125 -0.046875 0.140625 -0.078125q0.0625 -0.03125 0.125 -0.03125q0.046875 0 0.078125 0.046875q0.046875 0.046875 0.046875 0.109375q0 0.171875 -0.0625 0.6875q-0.0625 0.515625 -0.0625 0.859375q0 0.09375 0.015625 0.171875q0.015625 0.078125 0.03125 0.109375q0.84375 -0.796875 1.796875 -1.203125q0.953125 -0.40625 2.078125 -0.40625q1.171875 0 1.9375 0.96875q0.765625 0.953125 0.765625 2.375l0 5.109375q0 0.46875 0.328125 0.625q0.34375 0.15625 0.703125 0.28125q0.203125 0.078125 0.375 0.15625q0.1875 0.078125 0.1875 0.28125q0 0.140625 -0.171875 0.171875q-0.171875 0.046875 -0.3125 0.046875q-0.484375 0 -0.75 -0.046875q-0.265625 -0.03125 -0.5 -0.046875q-0.234375 -0.03125 -0.671875 -0.03125q-0.40625 0 -0.671875 0.03125q-0.265625 0.015625 -0.546875 0.046875q-0.265625 0.046875 -0.75 0.046875q-0.125 0 -0.3125 -0.046875q-0.171875 -0.03125 -0.171875 -0.171875q0 -0.203125 0.171875 -0.28125q0.1875 -0.078125 0.390625 -0.15625q0.359375 -0.125 0.6875 -0.28125q0.34375 -0.15625 0.34375 -0.625l0 -5.046875q0 -1.046875 -0.59375 -1.640625q-0.578125 -0.59375 -1.5625 -0.609375q-0.875 0 -1.53125 0.28125q-0.640625 0.265625 -1.140625 0.671875q-0.09375 0.09375 -0.140625 0.25q-0.046875 0.15625 -0.046875 0.3125l0 5.78125q0 0.46875 0.328125 0.640625q0.34375 0.171875 0.703125 0.265625q0.546875 0.140625 0.546875 0.390625q0 0.140625 -0.125 0.203125q-0.109375 0.0625 -0.359375 0.0625q-0.46875 0 -0.75 -0.046875q-0.28125 -0.03125 -0.515625 -0.046875q-0.234375 -0.03125 -0.671875 -0.03125q-0.40625 0 -0.65625 0.03125q-0.25 0.015625 -0.53125 0.046875q-0.28125 0.046875 -0.75 0.046875zm16.140686 0.265625q-1.171875 0 -1.828125 -0.71875q-0.65625 -0.734375 -0.65625 -2.140625l0 -5.578125q0 -0.1875 -0.15625 -0.265625q-0.140625 -0.09375 -0.625 -0.09375l-0.140625 0q-0.109375 0 -0.203125 -0.15625q-0.078125 -0.15625 -0.078125 -0.3125q0 -0.046875 0.0625 -0.140625q0.078125 -0.109375 0.109375 -0.125q0.46875 -0.34375 0.859375 -0.671875q0.40625 -0.34375 0.71875 -0.65625q0.328125 -0.328125 0.546875 -0.59375q0.125 -0.125 0.203125 -0.203125q0.09375 -0.09375 0.203125 -0.09375q0.125 0 0.234375 0.0625q0.109375 0.046875 0.078125 0.203125l-0.109375 1.078125q-0.03125 0.265625 0.109375 0.375q0.15625 0.09375 0.453125 0.09375l2.75 0q0.09375 0 0.15625 0.15625q0.078125 0.15625 0.078125 0.359375q0 0.21875 -0.078125 0.421875q-0.0625 0.203125 -0.15625 0.203125l-2.375 0q-0.609375 0 -0.796875 0.109375q-0.171875 0.09375 -0.171875 0.5625l0 4.734375q0 0.953125 0.40625 1.515625q0.40625 0.546875 1.171875 0.546875q0.703125 0 1.078125 -0.109375q0.390625 -0.109375 0.703125 -0.328125q0.046875 -0.046875 0.09375 -0.046875q0.09375 0 0.125 0.109375q0.046875 0.109375 0.046875 0.234375q0 0.109375 -0.40625 0.484375q-0.390625 0.359375 -1.03125 0.671875q-0.625 0.3125 -1.375 0.3125z" fill-rule="nonzero"/><path fill="#000000" fill-opacity="0.0" d="m176.19423 215.82414c-12.5 0 -25.007874 40.803146 -25.0 81.60631c0.007873535 40.80313 12.531494 81.60629 25.062988 81.60629" fill-rule="evenodd"/><path stroke="#00ff00" stroke-width="8.0" stroke-linejoin="round" stroke-linecap="butt" d="m176.19423 215.82414c-12.5 0 -25.007874 40.803146 -25.0 81.60631c0.0019683838 10.200775 0.78616333 20.40158 2.1571655 29.964813c0.34274292 2.390808 0.7221832 4.7417603 1.1352234 7.0429077l0.3065796 1.6649475" fill-rule="evenodd"/><path fill="#00ff00" stroke="#00ff00" stroke-width="8.0" stroke-linecap="butt" d="m142.97404 342.01193l28.053452 26.564026l-4.415161 -38.381622z" fill-rule="evenodd"/><path fill="#000000" fill-opacity="0.0" d="m329.83203 215.82414c12.5 0 24.992126 40.803146 25.0 81.60631c0.007873535 40.80313 -12.468506 81.60629 -24.937012 81.60629" fill-rule="evenodd"/><path stroke="#00ff00" stroke-width="8.0" stroke-linejoin="round" stroke-linecap="butt" d="m351.24664 258.78244l0.30126953 1.6402893c0.4119873 2.301117 0.7904663 4.6520996 1.1323547 7.0429077c1.3675537 9.563232 2.1497803 19.764008 2.151764 29.964813c0.007873535 40.80313 -12.468506 81.60629 -24.937012 81.60629" fill-rule="evenodd"/><path fill="#00ff00" stroke="#00ff00" stroke-width="8.0" stroke-linecap="butt" d="m363.07257 252.88724l-28.022888 -26.596283l4.371002 38.38669z" fill-rule="evenodd"/><path fill="#000000" fill-opacity="0.0" d="m329.83203 215.82414c26.793121 0 38.550842 16.173233 53.586273 32.346466c15.035431 16.173233 33.348602 32.34645 66.697174 32.34645" fill-rule="evenodd"/><path stroke="#9900ff" stroke-width="8.0" stroke-linejoin="round" stroke-linecap="butt" d="m329.83203 215.82414c26.793121 0 38.550842 16.173233 53.586273 32.346466c3.75885 4.0433044 7.7225647 8.086624 12.07486 11.877213c2.176178 1.8952942 4.4494324 3.727417 6.8428345 5.4647827c0.29916382 0.21716309 0.6002197 0.43286133 0.9031677 0.6470032l0.88500977 0.6170044" fill-rule="evenodd"/><path fill="#9900ff" stroke="#9900ff" stroke-width="8.0" stroke-linecap="butt" d="m400.34158 279.4375l38.568115 -2.2683105l-31.00293 -23.053452z" fill-rule="evenodd"/></g></svg>